<svg width="24" height="24" viewBox="0 0 24 24" fill="none" xmlns="http://www.w3.org/2000/svg">
<path d="M8.80005 21.6L8.32114 21.7437C8.3844 21.9545 8.57814 22.0992 8.79829 22.1C9.01844 22.1008 9.21319 21.9574 9.27794 21.747L8.80005 21.6ZM15.2 21.6L14.7211 21.7437C14.7822 21.9473 14.9654 22.09 15.1778 22.0995C15.3902 22.109 15.5853 21.9831 15.6643 21.7857L15.2 21.6ZM20.8492 7.477L21.3135 7.66269L20.8492 7.477ZM19.9828 4.38703L19.6828 4.78703L19.6828 4.78703L19.9828 4.38703ZM19.7715 4.22856L20.0715 3.82856L20.0715 3.82856L19.7715 4.22856ZM16.5715 7.42856L16.9715 7.12856L16.9715 7.12856L16.5715 7.42856ZM17.0286 4.22856L16.7286 3.82856L17.0286 4.22856ZM12 22.7C6.0906 22.7 1.30005 17.9094 1.30005 12H0.300049C0.300049 18.4617 5.53832 23.7 12 23.7V22.7ZM22.7 12C22.7 17.9094 17.9095 22.7 12 22.7V23.7C18.4618 23.7 23.7 18.4617 23.7 12H22.7ZM12 1.29999C17.9095 1.29999 22.7 6.09054 22.7 12H23.7C23.7 5.53826 18.4618 0.299988 12 0.299988V1.29999ZM12 0.299988C5.53832 0.299988 0.300049 5.53826 0.300049 12H1.30005C1.30005 6.09054 6.0906 1.29999 12 1.29999V0.299988ZM3.52114 5.74366L8.32114 21.7437L9.27896 21.4563L4.47896 5.45631L3.52114 5.74366ZM9.27794 21.747L12.4779 11.347L11.5222 11.0529L8.32216 21.4529L9.27794 21.747ZM9.92114 5.74366L14.7211 21.7437L15.679 21.4563L10.879 5.45631L9.92114 5.74366ZM20.2828 3.98703L20.0715 3.82856L19.4715 4.62856L19.6828 4.78703L20.2828 3.98703ZM16.1715 7.72856L17.2 9.09999L18 8.49999L16.9715 7.12856L16.1715 7.72856ZM16.7286 3.82856C15.4978 4.75166 15.2484 6.49775 16.1715 7.72856L16.9715 7.12856C16.3797 6.33958 16.5396 5.22029 17.3286 4.62856L16.7286 3.82856ZM20.0715 3.82856C19.081 3.0857 17.7191 3.0857 16.7286 3.82856L17.3286 4.62856C17.9635 4.15237 18.8366 4.15237 19.4715 4.62856L20.0715 3.82856ZM21.3135 7.66269C21.8404 6.34535 21.4178 4.83832 20.2828 3.98703L19.6828 4.78703C20.4561 5.36702 20.744 6.39378 20.385 7.2913L21.3135 7.66269ZM3.20005 6.09999H6.40005V5.09999H3.20005V6.09999ZM8.00005 6.09999H12.8V5.09999H8.00005V6.09999ZM15.6643 21.7857L21.3135 7.66269L20.385 7.2913L14.7358 21.4143L15.6643 21.7857Z" fill="#DDDDDD"/>
</svg>
