<svg fill="none" height="24" viewBox="0 0 24 24" width="24" xmlns="http://www.w3.org/2000/svg"><path d="m8.80005 21.6-.47891.1437c.06326.2108.257.3555.47715.3563s.4149-.1426.47965-.353zm6.39995 0-.4789.1437c.0611.2036.2443.3463.4567.3558s.4075-.1164.4865-.3138zm5.6492-14.123.4643.18569zm-.8664-3.08997-.3.4zm-.2113-.15847.3-.4zm-3.2 3.2.4-.3zm.4571-3.2-.3-.4zm-5.0286 18.47144c-5.9094 0-10.69995-4.7906-10.69995-10.7h-1.000001c0 6.4617 5.238271 11.7 11.699951 11.7zm10.7-10.7c0 5.9094-4.7905 10.7-10.7 10.7v1c6.4618 0 11.7-5.2383 11.7-11.7zm-10.7-10.70001c5.9095 0 10.7 4.79055 10.7 10.70001h1c0-6.46174-5.2382-11.700012-11.7-11.700012zm0-1.000002c-6.46168 0-11.699951 5.238272-11.699951 11.700012h1.000001c0-5.90946 4.79055-10.70001 10.69995-10.70001zm-8.47886 5.443672 4.8 16.00004.95782-.2874-4.8-15.99999zm5.7568 16.00334 3.19996-10.4-.9557-.2941-3.20004 10.4zm.6432-16.00334 4.79996 16.00004.9579-.2874-4.8-15.99999zm10.36166-1.75663-.2113-.15847-.6.8.2113.15847zm-4.1113 3.74153 1.0285 1.37143.8-.6-1.0285-1.37143zm.5571-3.9c-1.2308.9231-1.4802 2.66919-.5571 3.9l.8-.6c-.5918-.78898-.4319-1.90827.3571-2.5zm3.3429 0c-.9905-.74286-2.3524-.74286-3.3429 0l.6.8c.6349-.47619 1.508-.47619 2.1429 0zm1.242 3.83413c.5269-1.31734.1043-2.82437-1.0307-3.67566l-.6.8c.7733.57999 1.0612 1.60675.7022 2.50427zm-18.11345-1.5627h3.2v-1h-3.2zm4.8 0h4.79995v-1h-4.79995zm7.66425 15.68571 5.6492-14.12301-.9285-.37139-5.6492 14.123z" fill="#ddd"/></svg>