<svg fill="none" height="24" viewBox="0 0 24 24" width="24" xmlns="http://www.w3.org/2000/svg"><path d="m6.52115 10.3518.49498.0707zm-.01608.1125-.49497-.0707zm10.97373-.1125.495-.0708zm.0161.1125-.495.0707zm-2.2949 9.5357v.5c.2761 0 .5-.2239.5-.5zm-6.4 0h-.5c0 .2761.22386.5.5.5zm-1.19122-5.3553.3954-.3061zm8.78242-.0001-.3954-.306zm-6.7912 9.0554h4.8v-1h-4.8zm-3.57382-13.419-.01608.1126.98995.1414.01608-.1125zm5.97382-5.181c-3.00307 0-5.54913 2.20818-5.97382 5.181l.98995.1415c.35432-2.48025 2.47845-4.3225 4.98387-4.3225zm5.9738 5.181c-.4247-2.97282-2.9708-5.181-5.9738-5.181v1c2.5054 0 4.6295 1.84225 4.9838 4.3225zm.0161.1126-.0161-.1126-.99.1415.0161.1125zm-1.2033 4.5571c.9601-1.2405 1.446-2.8579 1.2033-4.5571l-.99.1414c.2027 1.4193-.2019 2.7671-1.0041 3.8036zm-2.0866 2.4914v2.5579h1v-2.5579zm.5 2.0579h-6.4v1h6.4zm-5.9.5v-2.5579h-1v2.5579zm-3.2899-9.6064c-.24274 1.6992.24316 3.3166 1.20328 4.5571l.7908-.6121c-.80226-1.0365-1.20688-2.3843-1.00413-3.8036zm3.2899 7.0485c0-1.2133-.64625-2.2642-1.29582-3.1035l-.7908.6121c.62174.8033 1.08662 1.6277 1.08662 2.4914zm6.6958-3.1035c-.6496.8392-1.2958 1.8902-1.2958 3.1035h1c0-.8638.4649-1.6882 1.0866-2.4914zm-4.4958-14.3386v3.2h1v-3.2zm-11.5 12.5h3.2v-1h-3.2zm20.8 0h3.2v-1h-3.2zm-15.64645-6.45355-2.4-2.4-.7071.7071 2.4 2.4zm14.40005.7071 2.4-2.4-.7072-.7071-2.4 2.4z" fill="#686868"/></svg>