<svg fill="none" height="24" viewBox="0 0 24 24" width="24" xmlns="http://www.w3.org/2000/svg"><path d="m16.4463 16.4465-.3535.3535.7071.7071.3536-.3535zm5.1536-4.4465.3536.3536.3535-.3536-.3535-.3535zm-4.4464-5.15353-.3536-.35355-.7071.7071.3535.35356zm-10.30715 10.30713.35355.3535.70711-.7071-.35355-.3535zm-4.44645-5.1536-.35355-.3535-.35355.3535.35355.3536zm5.15356-4.44642.35355-.35356-.70711-.7071-.35355.35355zm9.60004 9.60002 4.8-4.8-.7072-.7071-4.8 4.8zm4.8-5.5071-4.8-4.80003-.7072.70711 4.8 4.80002zm-14.40004 4.8-4.8-4.8-.70711.7071 4.8 4.8zm-4.8-4.0929 4.8-4.80002-.70711-.70711-4.8 4.80003zm10.35324-10.03578-3.2 19.19998.9864.1644 3.2-19.19998z" fill="#686868"/></svg>