<svg fill="none" height="24" viewBox="0 0 24 24" width="24" xmlns="http://www.w3.org/2000/svg"><path d="m16.8001.799988.2774-.416025-.126-.083975h-.1514zm4.8 3.200002h.5v-.26759l-.2226-.14844zm-1.6 15.50001h-12.79995v1h12.79995zm-13.89995-1.1v-16.00001h-1v16.00001zm1.1-17.10001h9.59995v-1.000002h-9.59995zm13.89995 2.7v14.40001h1v-14.40001zm-4.5773-2.78398 4.8 3.2.5547-.83205-4.8-3.199997zm-9.32265 18.28399c-.60752 0-1.1-.4925-1.1-1.1h-1c0 1.1598.9402 2.1 2.1 2.1zm12.79995 1c1.1598 0 2.1-.9402 2.1-2.1h-1c0 .6075-.4924 1.1-1.1 1.1zm-13.89995-18.10001c0-.60752.49248-1.1 1.1-1.1v-1.000002c-1.1598 0-2.1.940202-2.1 2.100002zm-4.2 3.2v16.00001h1v-16.00001zm2.1 18.10001h12.79995v-1h-12.79995zm0-19.20001h1.6v-1h-1.6zm14.89995 17.10001v-1.6h-1v1.6zm-2.1 2.1c1.1598 0 2.1-.9402 2.1-2.1h-1c0 .6075-.4924 1.1-1.1 1.1zm-14.89995-2.1c0 1.1598.9402 2.1 2.1 2.1v-1c-.60752 0-1.1-.4925-1.1-1.1zm1-16.00001c0-.60752.49248-1.1 1.1-1.1v-1c-1.1598 0-2.1.9402-2.1 2.1z" fill="#ddd"/></svg>