<svg fill="none" height="24" viewBox="0 0 24 24" width="24" xmlns="http://www.w3.org/2000/svg"><path d="m23.1655 2.39999.4989-.03307c-.0133-.20057-.1454-.37368-.3354-.43943-.1899-.06574-.4008-.01134-.5352.1381zm-1.0976 4.73425c0-.27614-.2238-.5-.5-.5-.2761 0-.5.22386-.5.5zm-10.0851.13151h-.5zm0 1.53424h.5zm-11.182751 11.20001v-.5c-.220268 0-.414589.1441-.478494.3549-.063906.2108.017661.4386.200847.5609zm1.597531-17.60001.46825-.17532c-.06976-.18634-.24337-.31357-.44207-.32399s-.38466.09797-.47353.27598zm6.39012 14.40001.35383.3533c.12236-.1226.17259-.2997.13278-.4683-.03982-.1685-.16401-.3044-.32827-.3593zm11.558-12.8426-.3708.33535.1801.19924.2656-.04022zm2.3209-1.52433c.0835 1.25956.0098 2.06321-.2122 2.68891-.2183.61525-.5976 1.10872-1.2324 1.717l.6919.72203c.6853-.6567 1.1899-1.27854 1.483-2.1047.2893-.81571.3543-1.77958.2675-3.08939zm-.5987 5.86691v-1.16574h-1v1.16574zm-10.5851-1.03423v1.53424h1v-1.53424zm0 1.53424v.8h1v-.8zm5.3582-6.9c-2.96 0-5.3582 2.40306-5.3582 5.36576h1c0-2.41187 1.9519-4.36576 4.3582-4.36576zm4.2269 6.39999c0 7.07002-5.7223 12.80002-12.77944 12.80002v1c7.61094 0 13.77944-6.1792 13.77944-13.80002zm-19.13857-5.72466c.84291 2.25123 4.02184 6.72467 10.05347 6.72467v-1c-5.47066 0-8.36235-4.05989-9.11697-6.07532zm.0209-.39866c-1.645802 3.29669-1.8819618 6.45528-.70934 9.12444 1.17088 2.6652 3.70259 4.7426 7.38848 5.9732l.31667-.9486c-3.503-1.1694-5.76389-3.092-6.78961-5.4268-1.02398-2.33085-.86076-5.17226.6885-8.27558zm6.48364 14.27004c-1.00148 1.0031-3.96994 3.0533-7.633821 3.0533v1c4.004271 0 7.212961-2.2164 8.341481-3.3467zm12.28273-12.82464c-.9556-1.05685-2.3383-1.72207-3.8756-1.72207v1c1.2427 0 2.3597.53653 3.1339 1.39276zm-.296.82971c1.1455-.17349 2.2706-.77696 3.1166-1.71737l-.7434-.66881c-.6973.77502-1.6153 1.25998-2.5229 1.39745zm-19.898198 15.96403c2.539298 1.6955 5.201128 1.6842 7.766058 1.6842v-1c-2.59797 0-4.95747-.0113-7.21076-1.5158z" fill="#ddd"/></svg>