<svg fill="none" height="24" viewBox="0 0 24 24" width="24" xmlns="http://www.w3.org/2000/svg"><g stroke="#686868"><path d="m14 1.6001h-4c-1.10457 0-2 .89543-2 2v4c0 1.10457.89543 2 2 2h4c1.1046 0 2-.89543 2-2v-4c0-1.10457-.8954-2-2-2z"/><path d="m12 9.6001v2.4m6.4 2.4v-2.4h-12.80002v2.4" stroke-linecap="round" stroke-linejoin="round"/><path d="m7.59998 14.3999h-4c-1.10457 0-2 .8954-2 2v4c0 1.1046.89543 2 2 2h4c1.10457 0 2-.8954 2-2v-4c0-1.1046-.89543-2-2-2z"/><path d="m20.4 14.3999h-4c-1.1045 0-2 .8954-2 2v4c0 1.1046.8955 2 2 2h4c1.1046 0 2-.8954 2-2v-4c0-1.1046-.8954-2-2-2z"/></g></svg>