<svg fill="none" height="24" viewBox="0 0 24 24" width="24" xmlns="http://www.w3.org/2000/svg"><path d="m12.0001 1.59998v13.60002m0 0v3.2c0 1.7673-1.4327 3.2-3.2 3.2-1.76731 0-3.2-1.4327-3.2-3.2s1.43269-3.2 3.2-3.2m3.2 0h-3.2m0 0c-1.76731 0-3.2-1.4327-3.2-3.2s1.43269-3.20002 3.2-3.20002m0 0h3.2m-3.2 0h6.4m-6.4 0c-1.76731 0-3.2-1.43269-3.2-3.2 0-1.76732 1.43269-3.2 3.2-3.2h6.4c1.7673 0 3.2 1.43268 3.2 3.2 0 1.76731-1.4327 3.2-3.2 3.2m0 0c1.7673 0 3.2 1.43272 3.2 3.20002s-1.4327 3.2-3.2 3.2-3.2-1.4327-3.2-3.2 1.4327-3.20002 3.2-3.20002z" stroke="#ddd"/></svg>