<svg fill="none" height="40" viewBox="0 0 179 40" width="179" xmlns="http://www.w3.org/2000/svg"><g fill="#ddd"><path d="m26.6195 34.8602h5.0974l-10.577-29.5646h-5.6071l-10.57699 29.5646h5.05489zm-1.3959-4.538h-13.6283l6.741-19.1647z"/><path d="m58.907 34.8602h4.8425v-29.52212h-4.8425z"/><path d="m67.9833 34.8602h4.8425v-12.9133h9.7699v-3.9504h-9.7699v-8.70798h12.531v-3.95044h-17.3735z"/><path d="m116.266 20.0354c0-8.8354-6.669-15.07962-15.08-15.07962-8.3256 0-15.0795 6.24422-15.0795 15.07962 0 8.8779 6.7539 15.1221 15.0795 15.1221 8.411 0 15.08-6.2442 15.08-15.1221zm-25.1896 0c0-6.669 4.2478-10.83183 10.1096-10.83183 5.862 0 10.11 4.16283 10.11 10.83183s-4.248 10.9168-10.11 10.9168c-5.8618 0-10.1096-4.2478-10.1096-10.9168z"/><path d="m118.907 5.33808v29.52212h17.093v-3.908h-12.251v-25.61412z"/><path d="m135.658 34.8602h4.842v-14.7611-14.76102h-4.842z"/><path d="m173.279 20.0354c0-8.8354-6.669-15.07962-15.08-15.07962-8.325 0-15.079 6.24422-15.079 15.07962 0 8.8779 6.754 15.1221 15.079 15.1221 8.411 0 15.08-6.2442 15.08-15.1221zm-25.189 0c0-6.669 4.247-10.83183 10.109-10.83183s10.11 4.16283 10.11 10.83183-4.248 10.9168-10.11 10.9168-10.109-4.2478-10.109-10.9168z"/><path clip-rule="evenodd" d="m44.3866 19.1859c3.7805 0 5.4796-2.0815 5.4796-5.0124 0-2.9735-1.6991-4.88498-5.4796-4.88498h-5.3523v25.57168h-4.8424v-29.52212h10.1947c7.0088 0 10.4495 4.0354 10.4495 8.83542 0 3.4832-1.869 7.2212-6.8389 8.4531l7.3062 12.2336h-5.777l-5.7364-9.967v-5.7073z" fill-rule="evenodd"/></g></svg>