<svg fill="none" height="60" viewBox="0 0 174 60" width="174" xmlns="http://www.w3.org/2000/svg"><g fill="#ddd"><path d="m45.3117 47.7923-12.935-36.1559h-6.8572l-12.935 36.1559zm-8.6233-5.7923h-15.75l8.0097-23.1948z"/><path d="m84.7975 47.7923h5.9221v-36.1039h-5.9221z"/><path d="m123.378 37.5585c0-13.1948-19.117-8.1039-19.117-16.2598 0-3.4805 2.649-5.1428 6.078-5.0389 3.74.1039 5.87 2.3376 6.078 4.7792h6.545c-.519-6.1818-5.402-9.8182-12.311-9.8182-7.377 0-12.416 3.9481-12.416 10.2857 0 13.2987 19.169 7.6364 19.169 16.3637 0 3.0649-2.338 5.2987-6.494 5.2987-4.104 0-6.181-2.3896-6.441-5.3507h-6.3379c0 6.3896 5.5589 10.3377 12.7789 10.3377 8.052 0 12.468-5.1948 12.468-10.5974z"/><path d="m70.6242 22.4936c0 3.5844-2.0779 6.1298-6.7013 6.1298h-1.0129v6.4874l7.2986 12.6815h7.065l-8.9351-14.9611c6.0779-1.5065 8.3637-6.0779 8.3637-10.3376 0-5.8702-4.2078-10.8052-12.7793-10.8052h-12.4675v36.1039h5.9221v-31.2728h6.5454c4.6234 0 6.7013 2.3377 6.7013 5.9741z"/><path d="m161.486 47.7923-12.935-36.1558h-6.858l-12.935 36.1558zm-8.624-5.7923h-15.75l8.01-23.1947z"/></g></svg>