<svg fill="none" height="182" viewBox="0 0 602 182" width="602" xmlns="http://www.w3.org/2000/svg"><g stroke="#ddd" stroke-linecap="round"><path d="m3.0443 115.513c-3.72612 2.489-1.46726-.808-.17866-2.686 5.36986-7.827 10.01386-16.0239 15.09696-24.0361 9.6315-15.1817 20.1399-29.9548 31.1319-44.1784 6.2109-8.0369 13.8063-14.9654 19.6975-23.2305 2.0429-2.8662 3.8407-5.627 6.2532-8.1912 1.8998-2.0192-1.6247 1.7709-2.0546 2.4171-7.0421 10.5856-10.316 23.8117-14.9183 35.5396-3.5537 9.0556-6.9372 18.9347-7.5485 28.7361-.0409.6555-.5092 3.1099-.3573 2.7751 1.7708-3.904 3.5298-7.1334 6.2085-10.5634 9.7473-12.4812 19.8717-24.5626 30.5512-36.2558 10.1444-11.1071 22.6578-24.1325 35.9108-31.51119"/><path d="m92.2859 56.6978c-7.171-1.0061-8.2881 2.3415-11.6577 8.6387-1.6026 2.9949-5.9068 9.7023-4.3325 13.3833 2.0206 4.7248 10.1525-.7754 12.149-2.417 2.3675-1.9467 19.7383-17.9973 11.8363-20.7688-4.042-1.4177-10.6516-1.0082-13.6229 1.9695"/><path d="m158.212 55.8921c1.03-2.7093 6.072-12.5215-.759-11.951-4.784.3995-9.567 7.014-12.372 10.2054-1.523 1.7324-11.395 13.3461-6.655 14.7708 4.776 1.4359 13.05-3.9465 16.303-7.2064 3.729-3.7377 9.14-8.2927 11.747-12.9357.856-1.5262-.977-.5488-1.43.2686-1.447 2.6113-1.643 5.158-3.305 7.7883-3.578 5.661-5.584 12.093-7.995 18.3069-3.446 8.8792-8.023 17.0368-13.668 24.7077-3.88 5.2723-11.236 15.3773-19.295 13.0703-5.686-1.628-3.157-14.1136-.983-17.2778 2.759-4.015 4.644-7.2742 9.112-9.5787 3.038-1.5672 6.236-2.6885 9.201-4.3865"/><path d="m174.292 42.1954c-4.157 5.8315-4.022 12.7605-5.807 19.5155-.342 1.2972-2.805 10.0176-1.429 4.1179 3.141-13.4639 10.87-24.4391 25.728-24.4391"/><path d="m180.724 55.8921c6.784 3.7228 14.6-2.0996 18.759-7.8778 3.874-5.3821-8.59.4219-9.915 1.4323-2.49 1.8974-9.406 8.9789-4.646 11.9062 6.375 3.9203 16.526-4.1091 21.529-7.0721"/><path d="m220.119 53.4751c.67-3.0599 4.159-10.0104-2.055-8.0568-4.469 1.405-15.272 11.037-11.881 15.9794 3.446 5.0236 19.287-13.9677 19.563-18.3965.172-2.755-2.503 4.9551-3.26 7.6092-.47 1.6495-.759 2.9048-.759 4.8789 0 2.603 5.79.6443 7.235.4028"/><path d="m226.551 56.6978c4.774-1.9363 8.508-4.4544 11.926-8.415 2.691-3.1182 4.92-6.8921 8.62-8.952 1.721-.9579 6.372-4.6302 4.735-3.5361-3.529 2.3576-6.426 5.783-8.397 9.6235-1.211 2.3593-4.423 7.1962-.804 8.8625 9.891 4.5545 25.782-8.7641 31.578-15.2185 1.421-1.5816 6.274-6.0438 5.226-8.773-1.115-2.9062-5.979 1.4694-7.057 2.238-4.643 3.3109-9.054 7.9283-10.854 13.3386-1.338 4.0236 3.092 5.9978 6.387 5.9978 5.528 0 9.1-.6008 14.115-3.2227 7.033-3.6775 8.903-6.0513 10.496-11.6377.739-2.5903-.84 3.0692-1.251 4.0285-1.995 4.6658-5.167 9.0302-6.655 13.8756-.107.3504 4.906-5.827 6.03-7.1616 6.437-7.6454 16.541-14.4128 26.755-14.4128"/><path d="m232.982 41.3898c6.683.8845 13.427-.1978 20.1-.8057"/><path d="m360.012 33.3329c-3.619 4.9866-3.577 11.1936-5.003 17.0985-2.59 10.7275-6.01 22.8017-12.864 31.6902-3.724 4.8295-13.411 11.2411-19.742 7.8778-6.734-3.5773-6.97-11.4976-6.61-17.9936"/><path d="m359.207 22.859c2.494-.4759 5.049-1.4611 7.236 0"/><path d="m370.463 34.1386c-4.071 1.7486-5.799 3.2616-6.789 7.654-.775 3.4398.685 6.4277 4.556 6.4903 6.524.1054 13.135-9.0174 12.238-15.308-1.273-8.9316-11.188 3.274-5.985 3.5808 3.083.1817 10.126-1.9196 12.774-3.6256 1.662-1.0703 3.209-2.145 4.914-2.9989 1.502-.7528-.929 3.4305-1.206 4.2074-.385 1.0807-2.653 7.491-.715 7.9226 1.647.3667 3.668-2.4985 4.511-3.4465 4.464-5.0215 9.99-9.0262 14.74-13.7862 3.051-3.0575 2.285-1.6447 1.34 1.4323-1.622 5.282-1.365 11.5584-2.725 17.0089-2.501 10.0255-7.615 21.9104-15.097 29.4075-2.418 2.4233-11.974 8.3211-15.32 4.9684-3.246-3.2531-2.742-9.4604-.357-12.9357 3.118-4.5456 10.293-6.9131 15.186-8.6388 9.252-3.263 19.002-5.4083 28.586-7.4302"/><path d="m449.066 48.9593c8.443-8.4615 14.873-18.7001 22.336-28.0169 2.392-2.9875 7.594-13.29949 5.698-9.9735-2.32 4.0684-4.18 8.4532-6.306 12.6381-2.538 4.9961-12.427 19.1459-.494 17.739 3.162-.3729 5.269-2.6614 7.635-4.568 4.341-3.497 8.823-6.6747 12.688-10.7347 5.919-6.2188 12.072-13.053 14.51-21.46952.592-2.04256.986-4.894663-1.899-2.89305-1.954 1.35558-3.186 5.20514-4.254 7.27069-3.206 6.19528-5.759 13.29588-8.167 19.83258-1.387 3.7646-2.592 7.5042-4.673 10.9632-.663 1.1035-2.96 4.1848-2.051 3.2737 2.83-2.836 4.745-6.9244 7.141-10.1257 2.601-3.4754 5.928-5.9834 9.649-8.1462 1.042-.6059 3.808-2.885 5.242-2.4743 1.049.3003-2.417 8.6519-2.621 9.5166-1.28 5.4171.847 6.89 5.736 6.89"/><path d="m520.176 29.7737c.502-2.5824 1.042-6.4602-3.039-4.3395-3.413 1.7731-9.871 8.0658-9.117 12.4096.832 4.7923 7.764.5466 9.269-1.2181 2.725-3.1965 4.87-7.4932 6.153-11.4961.649-2.0224.372-.3524 0 .533-1.336 3.1808-2.475 6.5754-3.114 9.9734-.408 2.1671-.717 2.3468.531.5329 3.576-5.196 9.296-10.7644 14.511-14.313 10.561-7.1863 2.959 6.6548 1.216 10.3541-.718 1.5233-1.731 2.7243.151.8375 2.57-2.5749 5.257-4.9063 8.054-7.2327 1.594-1.3261 4.435-4.0779 6.837-2.7407 1.414.7872.684 5.2298.684 6.5474 0 2.1238-1.389 4.9727 0 6.8519 2.21 2.9903 8.898-1.3097 10.94-2.5885"/><path d="m460.69 21.5514c6.141 0 12.385-1.1857 18.461-2.0556"/><path d="m106.016 118.348c-2.655-3.251-7.2099-3.621-10.8181-1.451-12.1305 7.294-22.0613 19.383-24.7101 33.441-.775 4.114-.9185 7.943 1.803 11.374 3.7327 4.706 10.4409 1.295 14.4241-1.214 5.4126-3.409 10.2018-7.498 14.7201-12.026 4.471-4.48 7.414-9.778 11.438-14.543 1.047-1.24 3.367-2.963 3.547-4.68.034-.322-1.294.772-1.359 1.362-.115 1.037-1.127 2.37-1.715 3.199-2.047 2.887-3.705 6.168-4.965 9.479-.396 1.04-4.533 11.027-1.803 6.753 2.671-4.183 6.705-7.573 10.345-10.871 3.652-3.308 7.596-6.684 12.65-7.434 1.304-.194 3.792-.254 4.759-1.007.448-.35.34 2.808.68 3.08 1.068.856 1.569 2.289 3.044 3.199 4.085 2.519 10.527-1.821 13.42-4.384.996-.883 6.732-9.311 1.803-7.582-5.616 1.969-10.831 6.025-12.828 11.877-1.555 4.554-.677 8.504 4.758 7.316 7.245-1.582 11.781-6.981 17.735-10.959"/><path d="m175.713 127.412c-1.386-6.061-9.127-1.546-11.468 1.925-1.526 2.263-4.073 4.61-3.015 7.554 1.681 4.678 16.833-11.236 18.207-13.093.366-.493 3.473-3.542 1.862-2.251-1.897 1.522-3.115 4.813-3.99 6.931-1.202 2.913-4.354 9.102 1.685 6.872 9.252-3.415 16.764-11.09 22.73-18.749 5.087-6.533-.917.536-2.306 2.814-2.095 3.436-4.02 8.106-4.02 12.144 0 3.351 7.726-1.09 9.341-2.014 2.164-1.24 4.194-2.604 5.97-4.384 3.355-3.361 7.488-6.462 10.405-10.219 1.917-2.471-3.555 5.192-5.764 7.405-2.533 2.538-2.129 5.652-3.724 8.531-1.649 2.973 3.287-1.7 3.576-1.985 3.159-3.116 6.603-6.139 10.286-8.619 1.508-1.016 6.431-4.67 8.513-3.94.591.208.236 3.233.236 3.88 0 2.571-3.602 5.983-5.202 7.613-.695.707-6.483 6.766-4.581 5.154 4.298-3.645 8.478-8.088 13.241-11.108.648-.41 10.3-5.832 10.375-3.939.056 1.404-1.162 3.827-1.892 4.976-1.47 2.316-3.455 4.289-3.842 7.168-.233 1.737 1.217 3.324 2.601 4.206 2.96 1.888 7.386-.981 10.05-2.073"/><path d="m264.563 124.746c1.215-.869 6.098-4.795 2.542-5.983-3.014-1.007-7 1.59-9.163 3.584-1.94 1.789-3.856 4.962-2.66 7.701 1.396 3.199 6.237.672 8.099-.622 3.284-2.282 5.235-4.9 7.034-8.412.286-.558 2.761-4.884 1.301-5.302-.918-.263-2.686 10.284-2.897 11.167-1.07 4.48-1.199 9.106-3.192 13.329-2.728 5.78-6.065 11.252-10.404 15.995-5.783 6.322-13.588 11.086-20.691 15.728-6.257 4.09-13.477 9.59-21.458 8.679-4.334-.495-4.711-4.823-4.257-8.412.861-6.801 7.379-10.291 12.415-13.862 9.493-6.733 21.335-10.462 32.158-14.425 10.171-3.724 20.131-8.051 30.326-11.7"/><path d="m189.014 121.547c6.206 0 11.263-.724 17.025-3.199"/><path d="m219.34 108.218c2.329-2.873 5.055-2.132 8.512-2.132"/><path d="m331.754 102.179c-1.476-2.9591-5.336-2.7929-8.245-2.099-5.278 1.259-11.197 6.017-14.353 10.317-6.708 9.144 10.303 8.621 14.637 11.127 8.093 4.679-.798 16.331-5.083 20.088-5.093 4.465-11.384 9.004-18.126 10.426-3.879.819-8.38.693-10.448-3.038"/><path d="m339.214 126.966c-4.991-4.287-13.026 11.254-7.766 12.81 5.701 1.685 16.35-13.238 11.605-15.389-1.14-.517-2.76.078-3.447 1.093-.515.761-2.332 3.682-1.788 4.547 2.937 4.675 12.188-5.822 14.745-6.514 1.631-.442.519 3.692.305 4.328-.984 2.921-2.945 6.051-4.929 8.394-2.384 2.813-.179-.731.698-1.793 3.113-3.77 7.474-7.345 11.604-9.967 3.273-2.08.488 2.662-.131 3.672-1.184 1.932-1.852 4.09-2.836 6.12-.346.714 1.853-2.482 2.356-3.06 2.242-2.573 5.078-5.105 7.765-7.213 1.097-.861 2.477-.9 1.571.699-1.012 1.784-2.002 3.87-2.661 5.815-1.727 5.096 8.518 1.972 10.47 1.092 4.028-1.816 6.44-3.799 8.376-7.781.458-.943.654-1.915-.698-1.968-2.27-.087-3.169 2.536-4.014 4.328-1.147 2.435-.092 7.614 3.447 5.334 1.803-1.161 3.674-1.988 5.584-2.973 2.725-1.404 4.36-4.081 6.282-6.383 1.635-1.958 4.057-3.459 4.319-6.207.046-.489.543-1.762-.088-.569-.617 1.169-.958 2.511-1.57 3.716-.972 1.912-2.638 3.44-3.447 5.421-.354.868-1.504 4.697.393 4.809 2.066.122 3.339-1.12 4.712-2.535 2.62-2.702 5.822-4.964 8.245-7.695.516-.581 2.338-3.724 1.657-2.36-.738 1.48-1.4 2.849-2.137 4.328-.723 1.448-.96 2.951-1.571 4.328-1.552 3.499 3.325-1.29 4.014-1.968 1.892-1.86 5.945-5.628 8.943-5.508 1.801.072-1.046 4.63-1.483 5.115-.888.983-3.533 4.721-.785 1.967 2.742-2.748 5.964-3.794 9.03-5.989.907-.649 3.175-1.219 4.319-.612 1.646.873-.989 3.264-1.571 3.847-.821.823-2.64 3.649-1.57 4.721 2.218 2.223 5.793-.542 7.852-1.573"/><path d="m442.474 120.671c.807-1.399 3.726-6.491-.065-5.858-2.13.356-10.294 7.132-6.435 9.137 4.875 2.533 7.919-4.418 9.99-7.301.964-1.341.517.235.349.875-.513 1.953-1.305 3.833-1.876 5.77-1.019 3.461-1.73 7.038-3.228 10.339-1.964 4.331-5.808 8.341-9.597 11.17-3.394 2.534-7.449 3.491-11.605 3.716-3.987.217-9.749.814-13.087-1.923-7.322-6.003 12.606-11.421 15.094-12.066 12.976-3.369 26.417-3.7 39.699-4.809"/><path d="m390.255 121.065c4.295-1.062 8.572-1.788 12.957-2.361"/><path d="m409.101 111.228c2.356-.41 4.682-.393 7.067-.393"/><path d="m478.606 131.369c4.163-2.166 6.932-5.923 9.923-9.463 5.846-6.919 11.432-13.994 15.335-22.2333 2.228-4.7051 4.217-10.1388 4.049-15.4442-.042-1.3308-.73-3.9428-2.514-3.9428-1.818 0-4.15 2.125-5.182 3.4235-2.865 3.605-4.249 8.942-6.065 13.117-2.548 5.8588-4.032 12.0268-5.489 18.2328-1.03 4.389-2.408 9.793.691 13.675 5.462 6.842 13.267-2.7 16.256-7.309 1.823-2.809 3.647-5.693 5.316-8.597.871-1.515 1.242-3.285 2.054-4.75.727-1.312-.87 2.879-1.478 4.25-.806 1.818-1.246 8.878.442 10.194 1.665 1.298 5.5.975 7.235.461 5.962-1.763 10.596-9.315 12.034-15.078.398-1.595-.979-1.562-2.092-1.116-1.032.414-1.458 1.266-2.15 2.058-1.6 1.833-3.342 3.672-4.414 5.905-1.193 2.483-.693 7.464.96 9.616.877 1.143 3.639 1.007 4.836.423 5.96-2.905 8.328-8.819 12.226-13.79 1.504-1.918 2.666-4.254 4.28-6.058.57-.638-.323.269-.442.48-.961 1.712-1.71 3.448-2.591 5.213-.948 1.901-4.814 8.065-2.38 9.962 2.474 1.928 5.051-2.036 6.334-3.5 3.318-3.787 4.989-8.364 7.984-12.309 1.082-1.426-.477-1.176-.537-.077-.117 2.102-2.16 4.035-2.399 6.193-.202 1.815-1.237 5.957-.02 7.482.653.817 1.999.561 2.956.5 3.795-.246 6.848-3.934 9.481-6.213"/><path d="m563.245 113.021c1.659-2.032 3.529-3.818 5.336-5.713 1.108-1.162 3.262-3.197 3.262-5 0-2.6418-6.089.122-6.871 1.096-2.253 2.808-6.178 9.627-2.38 12.482 4.807 3.613 13.889-4.329 17.581-7.02"/><path d="m535.607 110.943c-1.347.527-2.763.987-.671.02 2.421-1.12 5.326-1.36 7.926-1.751"/><path d="m547.354 110.251c3.037-.974 6.165-1.097 9.327-1.385"/><path d="m581.554 101.25c-1.485 3.851-1.451 7.971-2.591 11.905-.827 2.855-.133 1.885.518-.211 1.246-4.008 4.944-7.23 8.138-9.732 4.45-3.4873 8.731-2.433 13.627-.924"/></g></svg>