<svg width="602" height="182" viewBox="0 0 602 182" fill="none" xmlns="http://www.w3.org/2000/svg">
<path d="M3.0443 115.513C-0.68182 118.002 1.57704 114.705 2.86564 112.827C8.2355 105 12.8795 96.8031 17.9626 88.7909C27.5941 73.6092 38.1025 58.8361 49.0945 44.6125C55.3054 36.5756 62.9008 29.6471 68.792 21.382C70.8349 18.5158 72.6327 15.755 75.0452 13.1908C76.945 11.1716 73.4205 14.9617 72.9906 15.6079C65.9485 26.1935 62.6746 39.4196 58.0723 51.1475C54.5186 60.2031 51.1351 70.0822 50.5238 79.8836C50.4829 80.5391 50.0146 82.9935 50.1665 82.6587C51.9373 78.7547 53.6963 75.5253 56.375 72.0953C66.1223 59.6141 76.2467 47.5327 86.9262 35.8395C97.0706 24.7324 109.584 11.707 122.837 4.32831" stroke="#DDDDDD" stroke-linecap="round"/>
<path d="M92.2859 56.6978C85.1149 55.6917 83.9978 59.0393 80.6282 65.3365C79.0256 68.3314 74.7214 75.0388 76.2957 78.7198C78.3163 83.4446 86.4482 77.9444 88.4447 76.3028C90.8122 74.3561 108.183 58.3055 100.281 55.534C96.239 54.1163 89.6294 54.5258 86.6581 57.5035" stroke="#DDDDDD" stroke-linecap="round"/>
<path d="M158.212 55.8921C159.242 53.1828 164.284 43.3706 157.453 43.9411C152.669 44.3406 147.886 50.9551 145.081 54.1465C143.558 55.8789 133.686 67.4926 138.426 68.9173C143.202 70.3532 151.476 64.9708 154.729 61.7109C158.458 57.9732 163.869 53.4182 166.476 48.7752C167.332 47.249 165.499 48.2264 165.046 49.0438C163.599 51.6551 163.403 54.2018 161.741 56.8321C158.163 62.4931 156.157 68.9251 153.746 75.139C150.3 84.0182 145.723 92.1758 140.078 99.8467C136.198 105.119 128.842 115.224 120.783 112.917C115.097 111.289 117.626 98.8034 119.8 95.6392C122.559 91.6242 124.444 88.365 128.912 86.0605C131.95 84.4933 135.148 83.372 138.113 81.674" stroke="#DDDDDD" stroke-linecap="round"/>
<path d="M174.292 42.1954C170.135 48.0269 170.27 54.9559 168.485 61.7109C168.143 63.0081 165.68 71.7285 167.056 65.8288C170.197 52.3649 177.926 41.3897 192.784 41.3897" stroke="#DDDDDD" stroke-linecap="round"/>
<path d="M180.724 55.8921C187.508 59.6149 195.324 53.7925 199.483 48.0143C203.357 42.6322 190.893 48.4362 189.568 49.4466C187.078 51.344 180.162 58.4255 184.922 61.3528C191.297 65.2731 201.448 57.2437 206.451 54.2807" stroke="#DDDDDD" stroke-linecap="round"/>
<path d="M220.119 53.4751C220.789 50.4152 224.278 43.4647 218.064 45.4183C213.595 46.8233 202.792 56.4553 206.183 61.3977C209.629 66.4213 225.47 47.43 225.746 43.0012C225.918 40.2462 223.243 47.9563 222.486 50.6104C222.016 52.2599 221.727 53.5152 221.727 55.4893C221.727 58.0923 227.517 56.1336 228.962 55.8921" stroke="#DDDDDD" stroke-linecap="round"/>
<path d="M226.551 56.6978C231.325 54.7615 235.059 52.2434 238.477 48.2828C241.168 45.1646 243.397 41.3907 247.097 39.3308C248.818 38.3729 253.469 34.7006 251.832 35.7947C248.303 38.1523 245.406 41.5777 243.435 45.4182C242.224 47.7775 239.012 52.6144 242.631 54.2807C252.522 58.8352 268.413 45.5166 274.209 39.0622C275.63 37.4806 280.483 33.0184 279.435 30.2892C278.32 27.383 273.456 31.7586 272.378 32.5272C267.735 35.8381 263.324 40.4555 261.524 45.8658C260.186 49.8894 264.616 51.8636 267.911 51.8636C273.439 51.8636 277.011 51.2628 282.026 48.6409C289.059 44.9634 290.929 42.5896 292.522 37.0032C293.261 34.4129 291.682 40.0724 291.271 41.0317C289.276 45.6975 286.104 50.0619 284.616 54.9073C284.509 55.2577 289.522 49.0803 290.646 47.7457C297.083 40.1003 307.187 33.3329 317.401 33.3329" stroke="#DDDDDD" stroke-linecap="round"/>
<path d="M232.982 41.3898C239.665 42.2743 246.409 41.192 253.082 40.5841" stroke="#DDDDDD" stroke-linecap="round"/>
<path d="M360.012 33.3329C356.393 38.3195 356.435 44.5265 355.009 50.4314C352.419 61.1589 348.999 73.2331 342.145 82.1216C338.421 86.9511 328.734 93.3627 322.403 89.9994C315.669 86.4221 315.433 78.5018 315.793 72.0058" stroke="#DDDDDD" stroke-linecap="round"/>
<path d="M359.207 22.859C361.701 22.3831 364.256 21.3979 366.443 22.859" stroke="#DDDDDD" stroke-linecap="round"/>
<path d="M370.463 34.1386C366.392 35.8872 364.664 37.4002 363.674 41.7926C362.899 45.2324 364.359 48.2203 368.23 48.2829C374.754 48.3883 381.365 39.2655 380.468 32.9749C379.195 24.0433 369.28 36.2489 374.483 36.5557C377.566 36.7374 384.609 34.6361 387.257 32.9301C388.919 31.8598 390.466 30.7851 392.171 29.9312C393.673 29.1784 391.242 33.3617 390.965 34.1386C390.58 35.2193 388.312 41.6296 390.25 42.0612C391.897 42.4279 393.918 39.5627 394.761 38.6147C399.225 33.5932 404.751 29.5885 409.501 24.8285C412.552 21.771 411.786 23.1838 410.841 26.2608C409.219 31.5428 409.476 37.8192 408.116 43.2697C405.615 53.2952 400.501 65.1801 393.019 72.6772C390.601 75.1005 381.045 80.9983 377.699 77.6456C374.453 74.3925 374.957 68.1852 377.342 64.7099C380.46 60.1643 387.635 57.7968 392.528 56.0711C401.78 52.8081 411.53 50.6628 421.114 48.6409" stroke="#DDDDDD" stroke-linecap="round"/>
<path d="M449.066 48.9593C457.509 40.4978 463.939 30.2592 471.402 20.9424C473.794 17.9549 478.996 7.64291 477.1 10.9689C474.78 15.0373 472.92 19.4221 470.794 23.607C468.256 28.6031 458.367 42.7529 470.3 41.346C473.462 40.9731 475.569 38.6846 477.935 36.778C482.276 33.281 486.758 30.1033 490.623 26.0433C496.542 19.8245 502.695 12.9903 505.133 4.57378C505.725 2.53122 506.119 -0.320883 503.234 1.68073C501.28 3.03631 500.048 6.88587 498.98 8.95142C495.774 15.1467 493.221 22.2473 490.813 28.784C489.426 32.5486 488.221 36.2882 486.14 39.7472C485.477 40.8507 483.18 43.932 484.089 43.0209C486.919 40.1849 488.834 36.0965 491.23 32.8952C493.831 29.4198 497.158 26.9118 500.879 24.749C501.921 24.1431 504.687 21.864 506.121 22.2747C507.17 22.575 503.704 30.9266 503.5 31.7913C502.22 37.2084 504.347 38.6813 509.236 38.6813" stroke="#DDDDDD" stroke-linecap="round"/>
<path d="M520.176 29.7737C520.678 27.1913 521.218 23.3135 517.137 25.4342C513.724 27.2073 507.266 33.5 508.02 37.8438C508.852 42.6361 515.784 38.3904 517.289 36.6257C520.014 33.4292 522.159 29.1325 523.442 25.1296C524.091 23.1072 523.814 24.7772 523.442 25.6626C522.106 28.8434 520.967 32.238 520.328 35.636C519.92 37.8031 519.611 37.9828 520.859 36.1689C524.435 30.9729 530.155 25.4045 535.37 21.8559C545.931 14.6696 538.329 28.5107 536.586 32.21C535.868 33.7333 534.855 34.9343 536.737 33.0475C539.307 30.4726 541.994 28.1412 544.791 25.8148C546.385 24.4887 549.226 21.7369 551.628 23.0741C553.042 23.8613 552.312 28.3039 552.312 29.6215C552.312 31.7453 550.923 34.5942 552.312 36.4734C554.522 39.4637 561.21 35.1637 563.252 33.8849" stroke="#DDDDDD" stroke-linecap="round"/>
<path d="M460.69 21.5514C466.831 21.5514 473.075 20.3657 479.151 19.4958" stroke="#DDDDDD" stroke-linecap="round"/>
<path d="M106.016 118.348C103.361 115.097 98.8061 114.727 95.1979 116.897C83.0674 124.191 73.1366 136.28 70.4878 150.338C69.7128 154.452 69.5693 158.281 72.2908 161.712C76.0235 166.418 82.7317 163.007 86.7149 160.498C92.1275 157.089 96.9167 153 101.435 148.472C105.906 143.992 108.849 138.694 112.873 133.929C113.92 132.689 116.24 130.966 116.42 129.249C116.454 128.927 115.126 130.021 115.061 130.611C114.946 131.648 113.934 132.981 113.346 133.81C111.299 136.697 109.641 139.978 108.381 143.289C107.985 144.329 103.848 154.316 106.578 150.042C109.249 145.859 113.283 142.469 116.923 139.171C120.575 135.863 124.519 132.487 129.573 131.737C130.877 131.543 133.365 131.483 134.332 130.73C134.78 130.38 134.672 133.538 135.012 133.81C136.08 134.666 136.581 136.099 138.056 137.009C142.141 139.528 148.583 135.188 151.476 132.625C152.472 131.742 158.208 123.314 153.279 125.043C147.663 127.012 142.448 131.068 140.451 136.92C138.896 141.474 139.774 145.424 145.209 144.236C152.454 142.654 156.99 137.255 162.944 133.277" stroke="#DDDDDD" stroke-linecap="round"/>
<path d="M175.713 127.412C174.327 121.351 166.586 125.866 164.245 129.337C162.719 131.6 160.172 133.947 161.23 136.891C162.911 141.569 178.063 125.655 179.437 123.798C179.803 123.305 182.91 120.256 181.299 121.547C179.402 123.069 178.184 126.36 177.309 128.478C176.107 131.391 172.955 137.58 178.994 135.35C188.246 131.935 195.758 124.26 201.724 116.601C206.811 110.068 200.807 117.137 199.418 119.415C197.323 122.851 195.398 127.521 195.398 131.559C195.398 134.91 203.124 130.469 204.739 129.545C206.903 128.305 208.933 126.941 210.709 125.161C214.064 121.8 218.197 118.699 221.114 114.942C223.031 112.471 217.559 120.134 215.35 122.347C212.817 124.885 213.221 127.999 211.626 130.878C209.977 133.851 214.913 129.178 215.202 128.893C218.361 125.777 221.805 122.754 225.488 120.274C226.996 119.258 231.919 115.604 234.001 116.334C234.592 116.542 234.237 119.567 234.237 120.214C234.237 122.785 230.635 126.197 229.035 127.827C228.34 128.534 222.552 134.593 224.454 132.981C228.752 129.336 232.932 124.893 237.695 121.873C238.343 121.463 247.995 116.041 248.07 117.934C248.126 119.338 246.908 121.761 246.178 122.91C244.708 125.226 242.723 127.199 242.336 130.078C242.103 131.815 243.553 133.402 244.937 134.284C247.897 136.172 252.323 133.303 254.987 132.211" stroke="#DDDDDD" stroke-linecap="round"/>
<path d="M264.563 124.746C265.778 123.877 270.661 119.951 267.105 118.763C264.091 117.756 260.105 120.353 257.942 122.347C256.002 124.136 254.086 127.309 255.282 130.048C256.678 133.247 261.519 130.72 263.381 129.426C266.665 127.144 268.616 124.526 270.415 121.014C270.701 120.456 273.176 116.13 271.716 115.712C270.798 115.449 269.03 125.996 268.819 126.879C267.749 131.359 267.62 135.985 265.627 140.208C262.899 145.988 259.562 151.46 255.223 156.203C249.44 162.525 241.635 167.289 234.532 171.931C228.275 176.021 221.055 181.521 213.074 180.61C208.74 180.115 208.363 175.787 208.817 172.198C209.678 165.397 216.196 161.907 221.232 158.336C230.725 151.603 242.567 147.874 253.39 143.911C263.561 140.187 273.521 135.86 283.716 132.211" stroke="#DDDDDD" stroke-linecap="round"/>
<path d="M189.014 121.547C195.22 121.547 200.277 120.823 206.039 118.348" stroke="#DDDDDD" stroke-linecap="round"/>
<path d="M219.34 108.218C221.669 105.345 224.395 106.086 227.852 106.086" stroke="#DDDDDD" stroke-linecap="round"/>
<path d="M331.754 102.179C330.278 99.2199 326.418 99.3861 323.509 100.08C318.231 101.339 312.312 106.097 309.156 110.397C302.448 119.541 319.459 119.018 323.793 121.524C331.886 126.203 322.995 137.855 318.71 141.612C313.617 146.077 307.326 150.616 300.584 152.038C296.705 152.857 292.204 152.731 290.136 149" stroke="#DDDDDD" stroke-linecap="round"/>
<path d="M339.214 126.966C334.223 122.679 326.188 138.22 331.448 139.776C337.149 141.461 347.798 126.538 343.053 124.387C341.913 123.87 340.293 124.465 339.606 125.48C339.091 126.241 337.274 129.162 337.818 130.027C340.755 134.702 350.006 124.205 352.563 123.513C354.194 123.071 353.082 127.205 352.868 127.841C351.884 130.762 349.923 133.892 347.939 136.235C345.555 139.048 347.76 135.504 348.637 134.442C351.75 130.672 356.111 127.097 360.241 124.475C363.514 122.395 360.729 127.137 360.11 128.147C358.926 130.079 358.258 132.237 357.274 134.267C356.928 134.981 359.127 131.785 359.63 131.207C361.872 128.634 364.708 126.102 367.395 123.994C368.492 123.133 369.872 123.094 368.966 124.693C367.954 126.477 366.964 128.563 366.305 130.508C364.578 135.604 374.823 132.48 376.775 131.6C380.803 129.784 383.215 127.801 385.151 123.819C385.609 122.876 385.805 121.904 384.453 121.851C382.183 121.764 381.284 124.387 380.439 126.179C379.292 128.614 380.347 133.793 383.886 131.513C385.689 130.352 387.56 129.525 389.47 128.54C392.195 127.136 393.83 124.459 395.752 122.157C397.387 120.199 399.809 118.698 400.071 115.95C400.117 115.461 400.614 114.188 399.983 115.381C399.366 116.55 399.025 117.892 398.413 119.097C397.441 121.009 395.775 122.537 394.966 124.518C394.612 125.386 393.462 129.215 395.359 129.327C397.425 129.449 398.698 128.207 400.071 126.792C402.691 124.09 405.893 121.828 408.316 119.097C408.832 118.516 410.654 115.373 409.973 116.737C409.235 118.217 408.573 119.586 407.836 121.065C407.113 122.513 406.876 124.016 406.265 125.393C404.713 128.892 409.59 124.103 410.279 123.425C412.171 121.565 416.224 117.797 419.222 117.917C421.023 117.989 418.176 122.547 417.739 123.032C416.851 124.015 414.206 127.753 416.954 124.999C419.696 122.251 422.918 121.205 425.984 119.01C426.891 118.361 429.159 117.791 430.303 118.398C431.949 119.271 429.314 121.662 428.732 122.245C427.911 123.068 426.092 125.894 427.162 126.966C429.38 129.189 432.955 126.424 435.014 125.393" stroke="#DDDDDD" stroke-linecap="round"/>
<path d="M442.474 120.671C443.281 119.272 446.2 114.18 442.409 114.813C440.279 115.169 432.115 121.945 435.974 123.95C440.849 126.483 443.893 119.532 445.964 116.649C446.928 115.308 446.481 116.884 446.313 117.524C445.8 119.477 445.008 121.357 444.437 123.294C443.418 126.755 442.707 130.332 441.209 133.633C439.245 137.964 435.401 141.974 431.612 144.803C428.218 147.337 424.163 148.294 420.007 148.519C416.02 148.736 410.258 149.333 406.92 146.596C399.598 140.593 419.526 135.175 422.014 134.53C434.99 131.161 448.431 130.83 461.713 129.721" stroke="#DDDDDD" stroke-linecap="round"/>
<path d="M390.255 121.065C394.55 120.003 398.827 119.277 403.212 118.704" stroke="#DDDDDD" stroke-linecap="round"/>
<path d="M409.101 111.228C411.457 110.818 413.783 110.835 416.168 110.835" stroke="#DDDDDD" stroke-linecap="round"/>
<path d="M478.606 131.369C482.769 129.203 485.538 125.446 488.529 121.906C494.375 114.987 499.961 107.912 503.864 99.6727C506.092 94.9676 508.081 89.5339 507.913 84.2285C507.871 82.8977 507.183 80.2857 505.399 80.2857C503.581 80.2857 501.249 82.4107 500.217 83.7092C497.352 87.3142 495.968 92.6512 494.152 96.8262C491.604 102.685 490.12 108.853 488.663 115.059C487.633 119.448 486.255 124.852 489.354 128.734C494.816 135.576 502.621 126.034 505.61 121.425C507.433 118.616 509.257 115.732 510.926 112.828C511.797 111.313 512.168 109.543 512.98 108.078C513.707 106.766 512.11 110.957 511.502 112.328C510.696 114.146 510.256 121.206 511.944 122.522C513.609 123.82 517.444 123.497 519.179 122.983C525.141 121.22 529.775 113.668 531.213 107.905C531.611 106.31 530.234 106.343 529.121 106.789C528.089 107.203 527.663 108.055 526.971 108.847C525.371 110.68 523.629 112.519 522.557 114.752C521.364 117.235 521.864 122.216 523.517 124.368C524.394 125.511 527.156 125.375 528.353 124.791C534.313 121.886 536.681 115.972 540.579 111.001C542.083 109.083 543.245 106.747 544.859 104.943C545.429 104.305 544.536 105.212 544.417 105.423C543.456 107.135 542.707 108.871 541.826 110.636C540.878 112.537 537.012 118.701 539.446 120.598C541.92 122.526 544.497 118.562 545.78 117.098C549.098 113.311 550.769 108.734 553.764 104.789C554.846 103.363 553.287 103.613 553.227 104.712C553.11 106.814 551.067 108.747 550.828 110.905C550.626 112.72 549.591 116.862 550.808 118.387C551.461 119.204 552.807 118.948 553.764 118.887C557.559 118.641 560.612 114.953 563.245 112.674" stroke="#DDDDDD" stroke-linecap="round"/>
<path d="M563.245 113.021C564.904 110.989 566.774 109.203 568.581 107.308C569.689 106.146 571.843 104.111 571.843 102.308C571.843 99.6662 565.754 102.43 564.972 103.404C562.719 106.212 558.794 113.031 562.592 115.886C567.399 119.499 576.481 111.557 580.173 108.866" stroke="#DDDDDD" stroke-linecap="round"/>
<path d="M535.607 110.943C534.26 111.47 532.844 111.93 534.936 110.963C537.357 109.843 540.262 109.603 542.862 109.212" stroke="#DDDDDD" stroke-linecap="round"/>
<path d="M547.354 110.251C550.391 109.277 553.519 109.154 556.681 108.866" stroke="#DDDDDD" stroke-linecap="round"/>
<path d="M581.554 101.25C580.069 105.101 580.103 109.221 578.963 113.155C578.136 116.01 578.83 115.04 579.481 112.944C580.727 108.936 584.425 105.714 587.619 103.212C592.069 99.7247 596.35 100.779 601.246 102.288" stroke="#DDDDDD" stroke-linecap="round"/>
</svg>
