<svg fill="none" height="24" viewBox="0 0 24 24" width="24" xmlns="http://www.w3.org/2000/svg"><path d="m7.60005 14.1-.3-.4-.8.6.3.4zm9.59995.6.3-.4-.8-.6-.3.4zm-5.2 8c-5.9094 0-10.69995-4.7905-10.69995-10.7h-1.000001c0 6.4618 5.238271 11.7 11.699951 11.7zm10.7-10.7c0 5.9095-4.7905 10.7-10.7 10.7v1c6.4618 0 11.7-5.2382 11.7-11.7zm-10.7-10.69995c5.9095 0 10.7 4.79055 10.7 10.69995h1c0-6.46168-5.2382-11.699951-11.7-11.699951zm0-1.000001c-6.46168 0-11.699951 5.238271-11.699951 11.699951h1.000001c0-5.9094 4.79055-10.69995 10.69995-10.69995zm-5.59995 9.000001h1.6v-1h-1.6zm9.59995 0h1.6v-1h-1.6zm.4 4.79995c-2.2 2.9334-6.59995 2.9334-8.79995 0l-.8.6c2.6 3.4667 7.79995 3.4667 10.39995 0z" fill="#9c9c9c"/></svg>