<svg fill="none" height="135" viewBox="0 0 600 135" width="600" xmlns="http://www.w3.org/2000/svg"><g stroke="#686868"><path d="m0 18.5 600 .0001"/><path d="m0 30.5 600 .0001"/><path d="m0 117h600"/><path d="m0 104.5h600"/><path d="m17 0v135"/><path d="m115.5 0v135"/><path d="m131.5 0v135"/><path d="m147.5 0v135"/><path d="m198.5 0v135"/><path d="m214.5 0v135"/><path d="m228.5 0v135"/><path d="m290.5 0v135"/><path d="m374.5 0v135"/><path d="m416.5 0v135"/><path d="m472.5 0v135"/><path d="m498.5 0v135"/><path d="m306.5 0v135"/><path d="m390.5 0v135"/><path d="m400.5 0v135"/><path d="m456.5 0v135"/><path d="m482.5 0v135"/><path d="m566.5 0v135"/><path d="m583 0v135"/></g><path d="m89.5807 117.653h17.1533l-35.5936-99.7803h-18.8691l-35.5941 99.7803h17.0108zm-4.6975-15.316h-45.8625l22.6851-64.6802z" fill="#ddd"/><path d="m198.236 117.653h16.296v-99.6369h-16.296z" fill="#ddd"/><path d="m228.78 117.653h16.296v-43.5821h32.878v-13.3327h-32.878v-29.3894h42.169v-13.3327h-58.465z" fill="#ddd"/><path d="m391.261 67.6196c0-29.8194-22.443-50.8938-50.746-50.8938-28.018 0-50.747 21.0744-50.747 50.8938 0 29.9628 22.729 51.0374 50.747 51.0374 28.303 0 50.746-21.0746 50.746-51.0374zm-84.768 0c0-22.5079 14.295-36.5575 34.022-36.5575 19.726 0 34.021 14.0496 34.021 36.5575 0 22.508-14.295 36.8444-34.021 36.8444-19.727 0-34.022-14.3364-34.022-36.8444z" fill="#ddd"/><path d="m400.15 18.0161v99.6369h57.522v-13.189h-41.226v-86.4479z" fill="#ddd"/><path d="m456.519 117.653h16.296v-49.8183-49.8186h-16.296z" fill="#ddd"/><path d="m583.124 67.6196c0-29.8194-22.443-50.8938-50.747-50.8938-28.017 0-50.746 21.0744-50.746 50.8938 0 29.9628 22.729 51.0374 50.746 51.0374 28.304 0 50.747-21.0746 50.747-51.0374zm-84.768 0c0-22.5079 14.295-36.5575 34.021-36.5575 19.727 0 34.022 14.0496 34.022 36.5575 0 22.508-14.295 36.8444-34.022 36.8444-19.726 0-34.021-14.3364-34.021-36.8444z" fill="#ddd"/><path clip-rule="evenodd" d="m149.371 64.7524c12.722 0 18.44-7.0248 18.44-16.9168 0-10.0354-5.718-16.4868-18.44-16.4868h-18.012v86.3042h-16.296v-99.6369h34.308c23.586 0 35.165 13.6195 35.165 29.8195 0 11.7557-6.29 24.3716-23.015 28.5291l24.587 41.2883h-19.44l-19.305-33.6385v-19.2621z" fill="#ddd" fill-rule="evenodd"/></svg>