<svg fill="none" height="208" viewBox="0 0 600 208" width="600" xmlns="http://www.w3.org/2000/svg"><g stroke="#686868"><path d="m0 40.5 600 .0001"/><path d="m0 57.5 600 .0001"/><path d="m0 166h600"/><path d="m0 148.5h600"/><path d="m41.5 0v208"/><path d="m155.5 0v208"/><path d="m176.5 0v208"/><path d="m196.5 0v208"/><path d="m216.5 0v208"/><path d="m292.5 0v208"/><path d="m339.5 0v208"/><path d="m425.5 0v208"/><path d="m312.5 0v208"/><path d="m359.5 0v208"/><path d="m405.5 0v208"/><path d="m445.5 0v208"/><path d="m559.5 0v208"/></g><path d="m155.101 165.68-44.959-125.3404h-23.834l-44.9594 125.3404zm-29.973-20.08h-54.743l27.84-80.4084z" fill="#ddd"/><path d="m292.345 165.68h20.584v-125.1603h-20.584z" fill="#ddd"/><path d="m426.442 130.203c0-45.7422-66.446-28.094-66.446-56.3673 0-12.0658 9.208-17.8285 21.125-17.4684 13 .3602 20.403 8.1039 21.126 16.568h22.75c-1.805-21.4303-18.778-34.0364-42.792-34.0364-25.64 0-43.154 13.6866-43.154 35.6572 0 46.1019 66.626 26.4729 66.626 56.7269 0 10.625-8.125 18.369-22.57 18.369-14.264 0-21.486-8.284-22.389-18.549h-22.028c0 22.151 19.32 35.837 44.417 35.837 27.987 0 43.335-18.008 43.335-36.737z" fill="#ddd"/><path d="m243.082 77.9777c0 12.426-7.223 21.2502-23.292 21.2502h-3.521v22.4891l25.368 43.963h24.556l-31.056-51.865c21.126-5.223 29.07-21.0702 29.07-35.8373 0-20.3498-14.625-37.458-44.417-37.458h-43.335v125.1603h20.584v-108.4122h22.751c16.069 0 23.292 8.1039 23.292 20.7099z" fill="#ddd"/><path d="m558.895 165.68-44.959-125.3404h-23.834l-44.959 125.3404zm-29.973-20.08h-54.743l27.84-80.4085z" fill="#ddd"/></svg>