<svg width="600" height="135" viewBox="0 0 600 135" fill="none" xmlns="http://www.w3.org/2000/svg">
<line x1="4.45222e-08" y1="18.5" x2="600" y2="18.5001" stroke="#686868"/>
<line x1="4.45222e-08" y1="30.5" x2="600" y2="30.5001" stroke="#686868"/>
<line x1="-4.29321e-08" y1="117" x2="600" y2="117" stroke="#686868"/>
<line x1="-4.29321e-08" y1="104.5" x2="600" y2="104.5" stroke="#686868"/>
<line x1="17" y1="-1.09278e-08" x2="17" y2="135" stroke="#686868"/>
<line x1="115.5" y1="-1.09278e-08" x2="115.5" y2="135" stroke="#686868"/>
<line x1="131.5" y1="-1.09278e-08" x2="131.5" y2="135" stroke="#686868"/>
<line x1="147.5" y1="-1.09278e-08" x2="147.5" y2="135" stroke="#686868"/>
<line x1="198.5" y1="-1.09278e-08" x2="198.5" y2="135" stroke="#686868"/>
<line x1="214.5" y1="-1.09278e-08" x2="214.5" y2="135" stroke="#686868"/>
<line x1="228.5" y1="-1.09278e-08" x2="228.5" y2="135" stroke="#686868"/>
<line x1="290.5" y1="-1.09278e-08" x2="290.5" y2="135" stroke="#686868"/>
<line x1="374.5" y1="-1.09278e-08" x2="374.5" y2="135" stroke="#686868"/>
<line x1="416.5" y1="-1.09278e-08" x2="416.5" y2="135" stroke="#686868"/>
<line x1="472.5" y1="-1.09278e-08" x2="472.5" y2="135" stroke="#686868"/>
<line x1="498.5" y1="-1.09278e-08" x2="498.5" y2="135" stroke="#686868"/>
<line x1="306.5" y1="-1.09278e-08" x2="306.5" y2="135" stroke="#686868"/>
<line x1="390.5" y1="-1.09278e-08" x2="390.5" y2="135" stroke="#686868"/>
<line x1="400.5" y1="-1.09278e-08" x2="400.5" y2="135" stroke="#686868"/>
<line x1="456.5" y1="-1.09278e-08" x2="456.5" y2="135" stroke="#686868"/>
<line x1="482.5" y1="-1.09278e-08" x2="482.5" y2="135" stroke="#686868"/>
<line x1="566.5" y1="-1.09278e-08" x2="566.5" y2="135" stroke="#686868"/>
<line x1="583" y1="-1.09278e-08" x2="583" y2="135" stroke="#686868"/>
<path d="M89.5807 117.653H106.734L71.1404 17.8727H52.2713L16.6772 117.653H33.688H89.5807ZM84.8832 102.337H39.0207L61.7058 37.6568L84.8832 102.337Z" fill="#DDDDDD"/>
<path d="M198.236 117.653H214.532V18.0161H198.236V117.653Z" fill="#DDDDDD"/>
<path d="M228.78 117.653H245.076V74.0709H277.954V60.7382H245.076V31.3488H287.245V18.0161H228.78V117.653Z" fill="#DDDDDD"/>
<path d="M391.261 67.6196C391.261 37.8002 368.818 16.7258 340.515 16.7258C312.497 16.7258 289.768 37.8002 289.768 67.6196C289.768 97.5824 312.497 118.657 340.515 118.657C368.818 118.657 391.261 97.5824 391.261 67.6196ZM306.493 67.6196C306.493 45.1117 320.788 31.0621 340.515 31.0621C360.241 31.0621 374.536 45.1117 374.536 67.6196C374.536 90.1276 360.241 104.464 340.515 104.464C320.788 104.464 306.493 90.1276 306.493 67.6196Z" fill="#DDDDDD"/>
<path d="M400.15 18.0161V117.653H457.672V104.464H416.446V18.0161H400.15Z" fill="#DDDDDD"/>
<path d="M456.519 117.653H472.815V67.8347V18.0161H456.519V117.653Z" fill="#DDDDDD"/>
<path d="M583.124 67.6196C583.124 37.8002 560.681 16.7258 532.377 16.7258C504.36 16.7258 481.631 37.8002 481.631 67.6196C481.631 97.5824 504.36 118.657 532.377 118.657C560.681 118.657 583.124 97.5824 583.124 67.6196ZM498.356 67.6196C498.356 45.1117 512.651 31.0621 532.377 31.0621C552.104 31.0621 566.399 45.1117 566.399 67.6196C566.399 90.1276 552.104 104.464 532.377 104.464C512.651 104.464 498.356 90.1276 498.356 67.6196Z" fill="#DDDDDD"/>
<path fill-rule="evenodd" clip-rule="evenodd" d="M149.371 64.7524C162.093 64.7524 167.811 57.7276 167.811 47.8356C167.811 37.8002 162.093 31.3488 149.371 31.3488H131.359V117.653H115.063V18.0161H149.371C172.957 18.0161 184.536 31.6356 184.536 47.8356C184.536 59.5913 178.246 72.2072 161.521 76.3647L186.108 117.653H166.668L147.363 84.0145V64.7524H149.371Z" fill="#DDDDDD"/>
</svg>
