<svg fill="none" height="408" viewBox="0 0 600 408" width="600" xmlns="http://www.w3.org/2000/svg"><rect fill="#090909" height="83" rx="7.5" stroke="#686868" width="599" x=".5" y=".5"/><path d="m306.724 44.3965h-2.321l-.703 3.6035h-1.257l.703-3.6035h-2.1v-1.2041h2.329l.606-3.1113h-2.267v-1.2217h2.505l.72-3.6563h1.257l-.72 3.6563h2.32l.721-3.6563h1.265l-.72 3.6563h1.792v1.2217h-2.03l-.606 3.1113h1.977v1.2041h-2.206l-.703 3.6035h-1.265zm-2.092-1.2041h2.32l.607-3.1113h-2.321zm15.908-.6504c0 1.9043-.326 3.3193-.976 4.2451s-1.667 1.3887-3.05 1.3887c-1.365 0-2.376-.4512-3.032-1.3535-.656-.9082-.996-2.2618-1.019-4.0606v-2.1709c0-1.8808.325-3.2783.975-4.1924.651-.914 1.67-1.3711 3.059-1.3711 1.377 0 2.39.4424 3.041 1.3272.65.8789.984 2.2383 1.002 4.0781zm-1.626-2.2236c0-1.377-.194-2.3789-.58-3.0059-.387-.6328-.999-.9492-1.837-.9492-.832 0-1.439.3135-1.82.9404-.38.627-.577 1.5908-.588 2.8916v2.6016c0 1.3828.199 2.4052.597 3.0674.404.6562 1.014.9843 1.828.9843.803 0 1.398-.3105 1.784-.9316.393-.6211.598-1.5996.616-2.9356zm10.3 2.0566c-.34.4043-.747.7295-1.222.9756-.468.2461-.984.3691-1.546.3691-.739 0-1.383-.1816-1.934-.5449-.545-.3633-.967-.873-1.266-1.5293-.298-.6621-.448-1.3916-.448-2.1885 0-.8554.161-1.6259.484-2.3115.328-.6855.791-1.21 1.388-1.5732.598-.3633 1.295-.545 2.092-.545 1.266 0 2.262.4747 2.988 1.4239.733.9433 1.099 2.2324 1.099 3.8672v.4746c0 2.4902-.492 4.3095-1.477 5.458-.984 1.1426-2.469 1.7285-4.456 1.7578h-.316v-1.3711h.343c1.341-.0234 2.373-.3721 3.093-1.0459.721-.6797 1.114-1.752 1.178-3.2168zm-2.505 0c.545 0 1.046-.167 1.503-.501.463-.334.8-.747 1.011-1.2392v-.6504c0-1.0664-.232-1.9336-.694-2.6016-.463-.668-1.049-1.0019-1.758-1.0019-.715 0-1.289.2753-1.723.8261-.433.545-.65 1.2657-.65 2.1621 0 .8731.208 1.5938.624 2.1621.422.5626.984.8438 1.687.8438zm14.766.167c0 1.9043-.326 3.3193-.976 4.2451s-1.667 1.3887-3.05 1.3887c-1.365 0-2.376-.4512-3.032-1.3535-.656-.9082-.996-2.2618-1.02-4.0606v-2.1709c0-1.8808.326-3.2783.976-4.1924.65-.914 1.67-1.3711 3.059-1.3711 1.377 0 2.39.4424 3.041 1.3272.65.8789.984 2.2383 1.002 4.0781zm-1.626-2.2236c0-1.377-.194-2.3789-.581-3.0059-.386-.6328-.999-.9492-1.836-.9492-.832 0-1.439.3135-1.82.9404-.381.627-.577 1.5908-.589 2.8916v2.6016c0 1.3828.2 2.4052.598 3.0674.404.6562 1.014.9843 1.828.9843.803 0 1.398-.3105 1.784-.9316.393-.6211.598-1.5996.616-2.9356zm10.3 2.0566c-.34.4043-.747.7295-1.222.9756-.468.2461-.984.3691-1.547.3691-.738 0-1.382-.1816-1.933-.5449-.545-.3633-.967-.873-1.266-1.5293-.299-.6621-.448-1.3916-.448-2.1885 0-.8554.161-1.6259.483-2.3115.328-.6855.791-1.21 1.389-1.5732.598-.3633 1.295-.545 2.092-.545 1.265 0 2.262.4747 2.988 1.4239.733.9433 1.099 2.2324 1.099 3.8672v.4746c0 2.4902-.492 4.3095-1.477 5.458-.984 1.1426-2.47 1.7285-4.456 1.7578h-.316v-1.3711h.342c1.342-.0234 2.374-.3721 3.094-1.0459.721-.6797 1.114-1.752 1.178-3.2168zm-2.505 0c.545 0 1.046-.167 1.503-.501.463-.334.8-.747 1.011-1.2392v-.6504c0-1.0664-.232-1.9336-.695-2.6016-.462-.668-1.048-1.0019-1.757-1.0019-.715 0-1.289.2753-1.723.8261-.434.545-.65 1.2657-.65 2.1621 0 .8731.208 1.5938.624 2.1621.421.5626.984.8438 1.687.8438zm14.765.167c0 1.9043-.325 3.3193-.975 4.2451-.651.9258-1.667 1.3887-3.05 1.3887-1.365 0-2.376-.4512-3.032-1.3535-.656-.9082-.996-2.2618-1.02-4.0606v-2.1709c0-1.8808.325-3.2783.976-4.1924.65-.914 1.67-1.3711 3.058-1.3711 1.377 0 2.391.4424 3.041 1.3272.651.8789.985 2.2383 1.002 4.0781zm-1.626-2.2236c0-1.377-.193-2.3789-.58-3.0059-.386-.6328-.999-.9492-1.837-.9492-.832 0-1.438.3135-1.819.9404-.381.627-.577 1.5908-.589 2.8916v2.6016c0 1.3828.199 2.4052.598 3.0674.404.6562 1.014.9843 1.828.9843.803 0 1.397-.3105 1.784-.9316.393-.6211.598-1.5996.615-2.9356zm10.301 2.0566c-.34.4043-.747.7295-1.222.9756-.469.2461-.984.3691-1.547.3691-.738 0-1.383-.1816-1.933-.5449-.545-.3633-.967-.873-1.266-1.5293-.299-.6621-.448-1.3916-.448-2.1885 0-.8554.161-1.6259.483-2.3115.328-.6855.791-1.21 1.389-1.5732.598-.3633 1.295-.545 2.092-.545 1.265 0 2.261.4747 2.988 1.4239.732.9433 1.099 2.2324 1.099 3.8672v.4746c0 2.4902-.493 4.3095-1.477 5.458-.984 1.1426-2.47 1.7285-4.456 1.7578h-.316v-1.3711h.342c1.342-.0234 2.373-.3721 3.094-1.0459.721-.6797 1.113-1.752 1.178-3.2168zm-2.505 0c.545 0 1.046-.167 1.503-.501.463-.334.8-.747 1.011-1.2392v-.6504c0-1.0664-.232-1.9336-.695-2.6016s-1.049-1.0019-1.758-1.0019c-.714 0-1.289.2753-1.722.8261-.434.545-.651 1.2657-.651 2.1621 0 .8731.208 1.5938.624 2.1621.422.5626.985.8438 1.688.8438z" fill="#9c9c9c"/><path d="m43.1729 42.9902v5.0098h-1.6875v-12.7969h4.7197c1.4004 0 2.4961.3574 3.2871 1.0723.7969.7148 1.1953 1.6611 1.1953 2.8389 0 1.2421-.3896 2.2002-1.1689 2.874-.7735.6679-1.8838 1.0019-3.3311 1.0019zm0-1.3798h3.0322c.9023 0 1.5937-.211 2.0742-.6329.4805-.4277.7207-1.0429.7207-1.8457 0-.7617-.2402-1.3711-.7207-1.8281s-1.1397-.6943-1.9775-.7119h-3.1289zm14.3697-1.6612c-.2461-.041-.5127-.0615-.7998-.0615-1.0664 0-1.79.4541-2.1709 1.3623v6.75h-1.626v-9.5098h1.5821l.0263 1.0987c.5332-.8496 1.2891-1.2744 2.2676-1.2744.3164 0 .5567.041.7207.123zm3.6295 8.0508h-1.6259v-9.5098h1.6259zm-1.7578-12.0322c0-.2637.0791-.4864.2373-.668.1641-.1816.4043-.2725.7207-.2725s.5567.0909.7207.2725c.1641.1816.2461.4043.2461.668 0 .2636-.082.4834-.2461.6592-.164.1757-.4043.2636-.7207.2636s-.5566-.0879-.7207-.2636c-.1582-.1758-.2373-.3956-.2373-.6592zm6.2575 2.5224.0439 1.0547c.6973-.8203 1.6377-1.2304 2.8213-1.2304 1.3301 0 2.2354.5097 2.7159 1.5293.3164-.4571.7265-.8262 1.2304-1.1075.5098-.2812 1.1104-.4218 1.8018-.4218 2.0859 0 3.1465 1.1044 3.1816 3.3134v6.3721h-1.626v-6.2754c0-.6797-.1552-1.1865-.4658-1.5205-.3105-.3398-.832-.5098-1.5644-.5098-.6035 0-1.1045.1817-1.503.545-.3984.3574-.6298.8408-.6943 1.4502v6.3105h-1.6348v-6.2314c0-1.3829-.6767-2.0743-2.0302-2.0743-1.0664 0-1.7959.4541-2.1885 1.3623v6.9434h-1.626v-9.5098zm20.4869 9.5098c-.0937-.1875-.1699-.5215-.2285-1.002-.7558.7852-1.6582 1.1778-2.707 1.1778-.9375 0-1.708-.2637-2.3115-.791-.5977-.5332-.8965-1.2071-.8965-2.0215 0-.9903.375-1.7578 1.125-2.3028.7559-.5507 1.8164-.8261 3.1816-.8261h1.5821v-.7471c0-.5684-.17-1.0195-.5098-1.3535-.3398-.3399-.8408-.5098-1.5029-.5098-.5801 0-1.0664.1465-1.459.4395-.3926.2929-.5889.6474-.5889 1.0635h-1.6347c0-.4747.1669-.9317.5009-1.3711.3399-.4454.7969-.7969 1.3711-1.0547.5801-.2578 1.2158-.3867 1.9073-.3867 1.0957 0 1.9541.2753 2.5751.8261.6211.5449.9434 1.2979.9668 2.2588v4.377c0 .873.1114 1.5674.334 2.083v.1406zm-2.6982-1.2393c.5098 0 .9932-.1318 1.4502-.3955.457-.2636.7881-.6064.9932-1.0283v-1.9512h-1.2744c-1.9922 0-2.9883.5831-2.9883 1.7491 0 .5097.1699.9082.5097 1.1953.3399.2871.7764.4306 1.3096.4306zm11.5749-6.8115c-.2461-.041-.5127-.0615-.7999-.0615-1.0664 0-1.79.4541-2.1709 1.3623v6.75h-1.6259v-9.5098h1.582l.0264 1.0987c.5332-.8496 1.289-1.2744 2.2675-1.2744.3165 0 .5567.041.7208.123zm5.1326 5.669 2.215-7.128h1.74l-3.823 10.9776c-.5921 1.582-1.5326 2.373-2.8216 2.373l-.3077-.0263-.6064-.1143v-1.3184l.4394.0352c.5508 0 .9786-.1113 1.2833-.334.3105-.2226.5654-.6299.7646-1.2217l.3604-.9668-3.3926-9.4043h1.7754z" fill="#ddd"/><rect fill="#ddd" height="84" rx="8" width="600" y="108"/><path d="m306.724 153.396h-2.321l-.703 3.604h-1.257l.703-3.604h-2.1v-1.204h2.329l.606-3.111h-2.267v-1.222h2.505l.72-3.656h1.257l-.72 3.656h2.32l.721-3.656h1.265l-.72 3.656h1.792v1.222h-2.03l-.606 3.111h1.977v1.204h-2.206l-.703 3.604h-1.265zm-2.092-1.204h2.32l.607-3.111h-2.321zm15.363-.843h-5.37v5.651h-1.688v-12.797h7.928v1.389h-6.24v4.377h5.37zm3.577-.765.65-6.381h6.557v1.503h-5.177l-.387 3.489c.627-.369 1.339-.553 2.136-.553 1.166 0 2.092.386 2.777 1.16.686.767 1.029 1.807 1.029 3.12 0 1.318-.358 2.358-1.073 3.12-.709.756-1.702 1.134-2.979 1.134-1.131 0-2.054-.314-2.769-.941s-1.122-1.494-1.221-2.601h1.538c.099.732.36 1.286.782 1.661.422.369.978.554 1.67.554.756 0 1.347-.258 1.775-.774.434-.515.651-1.227.651-2.136 0-.855-.235-1.541-.704-2.056-.462-.522-1.081-.782-1.854-.782-.709 0-1.266.155-1.67.465l-.431.352zm17.199.765h-5.37v5.651h-1.687v-12.797h7.928v1.389h-6.241v4.377h5.37zm3.577-.765.651-6.381h6.556v1.503h-5.177l-.386 3.489c.627-.369 1.339-.553 2.135-.553 1.167 0 2.092.386 2.778 1.16.685.767 1.028 1.807 1.028 3.12 0 1.318-.357 2.358-1.072 3.12-.709.756-1.702 1.134-2.98 1.134-1.13 0-2.053-.314-2.768-.941s-1.122-1.494-1.222-2.601h1.538c.1.732.361 1.286.782 1.661.422.369.979.554 1.67.554.756 0 1.348-.258 1.776-.774.433-.515.65-1.227.65-2.136 0-.855-.234-1.541-.703-2.056-.463-.522-1.081-.782-1.854-.782-.709 0-1.266.155-1.67.465l-.431.352zm17.2.765h-5.37v5.651h-1.688v-12.797h7.928v1.389h-6.24v4.377h5.37zm3.577-.765.65-6.381h6.557v1.503h-5.177l-.387 3.489c.627-.369 1.339-.553 2.136-.553 1.166 0 2.092.386 2.777 1.16.686.767 1.029 1.807 1.029 3.12 0 1.318-.358 2.358-1.072 3.12-.709.756-1.703 1.134-2.98 1.134-1.131 0-2.054-.314-2.769-.941-.714-.627-1.122-1.494-1.221-2.601h1.538c.1.732.36 1.286.782 1.661.422.369.979.554 1.67.554.756 0 1.348-.258 1.775-.774.434-.515.651-1.227.651-2.136 0-.855-.235-1.541-.703-2.056-.463-.522-1.081-.782-1.855-.782-.709 0-1.265.155-1.67.465l-.43.352z" fill="#686868"/><path d="m45.2559 149.296c-1.4473-.416-2.502-.926-3.1641-1.529-.6563-.61-.9844-1.36-.9844-2.25 0-1.008.4014-1.84 1.2041-2.496.8086-.663 1.8574-.994 3.1465-.994.8789 0 1.6611.17 2.3467.51.6914.34 1.2246.809 1.5996 1.406.3809.598.5713 1.251.5713 1.96h-1.6963c0-.773-.2461-1.38-.7383-1.819-.4922-.445-1.1865-.668-2.083-.668-.832 0-1.4824.185-1.9512.554-.4629.363-.6943.87-.6943 1.52 0 .522.2197.964.6592 1.327.4453.358 1.1982.686 2.2588.985 1.0664.299 1.8984.63 2.4961.993.6035.357 1.0488.776 1.3359 1.257.293.48.4395 1.046.4395 1.696 0 1.037-.4043 1.869-1.2129 2.496-.8086.621-1.8897.932-3.2432.932-.8789 0-1.6992-.167-2.4609-.501-.7618-.34-1.3506-.803-1.7666-1.389-.4102-.586-.6153-1.251-.6153-1.995h1.6963c0 .773.2842 1.386.8526 1.837.5742.445 1.3388.668 2.2939.668.8906 0 1.5732-.182 2.0479-.545.4746-.363.7119-.858.7119-1.485s-.2198-1.111-.6592-1.451c-.4395-.345-1.2363-.685-2.3906-1.019zm10.9684 5.88c-1.2891 0-2.3379-.422-3.1465-1.266-.8086-.849-1.2129-1.983-1.2129-3.401v-.299c0-.943.1787-1.784.5361-2.522.3633-.745.8672-1.325 1.5117-1.741.6504-.422 1.3535-.633 2.1094-.633 1.2363 0 2.1973.408 2.8828 1.222.6856.815 1.0283 1.981 1.0283 3.498v.677h-6.4423c.0234.937.2959 1.696.8173 2.276.5274.575 1.1954.862 2.0039.862.5743 0 1.0606-.118 1.459-.352.3985-.234.7471-.545 1.0459-.932l.9932.774c-.7969 1.224-1.9922 1.837-3.5859 1.837zm-.2022-8.526c-.6562 0-1.207.241-1.6523.721-.4453.475-.7207 1.143-.8262 2.004h4.7637v-.123c-.0469-.826-.2696-1.465-.668-1.916-.3984-.457-.9375-.686-1.6172-.686zm9.9752 7.199c.5801 0 1.087-.176 1.5206-.528.4335-.351.6738-.791.7207-1.318h1.538c-.0293.545-.2168 1.063-.5625 1.556-.3457.492-.8086.884-1.3886 1.177-.5743.293-1.1836.44-1.8282.44-1.2949 0-2.3261-.431-3.0937-1.292-.7617-.867-1.1426-2.051-1.1426-3.551v-.272c0-.926.1699-1.749.5098-2.47.3398-.721.8262-1.28 1.459-1.679.6386-.398 1.3916-.598 2.2588-.598 1.0664 0 1.9511.32 2.6543.958.7089.639 1.0869 1.468 1.1337 2.488h-1.538c-.0469-.615-.2813-1.119-.7032-1.512-.416-.398-.9316-.598-1.5468-.598-.8262 0-1.4678.299-1.9249.897-.4511.592-.6767 1.45-.6767 2.575v.308c0 1.095.2256 1.939.6767 2.531.4512.592 1.0958.888 1.9336.888zm5.5368-3.692c0-.931.1816-1.769.5449-2.513.3692-.745.8789-1.319 1.5293-1.723.6563-.404 1.4033-.607 2.2412-.607 1.295 0 2.3409.449 3.1377 1.345.8028.897 1.2041 2.089 1.2041 3.577v.115c0 .925-.1787 1.757-.5361 2.496-.3516.732-.8584 1.303-1.5205 1.714-.6563.41-1.4121.615-2.2676.615-1.2891 0-2.335-.448-3.1377-1.345-.7969-.896-1.1953-2.083-1.1953-3.56zm1.6348.194c0 1.054.2431 1.901.7295 2.54.4921.638 1.1484.958 1.9687.958.8262 0 1.4824-.323 1.9688-.967.4863-.651.7295-1.559.7295-2.725 0-1.043-.2491-1.886-.7471-2.531-.4922-.65-1.1485-.976-1.9688-.976-.8027 0-1.4502.32-1.9424.958-.4921.639-.7382 1.553-.7382 2.743zm10.9596-4.861.0527 1.196c.7266-.915 1.6758-1.372 2.8477-1.372 2.0097 0 3.0234 1.134 3.041 3.402v6.284h-1.626v-6.293c-.0059-.686-.1641-1.192-.4746-1.52-.3047-.329-.7822-.493-1.4326-.493-.5274 0-.9903.141-1.3887.422s-.709.651-.9316 1.108v6.776h-1.626v-9.51zm8.358 4.676c0-1.459.3457-2.631 1.0371-3.516.6914-.89 1.5967-1.336 2.7159-1.336 1.1132 0 1.9951.381 2.6455 1.143v-4.957h1.626v13.5h-1.4942l-.0791-1.02c-.6504.797-1.5557 1.196-2.7158 1.196-1.1016 0-2.001-.451-2.6983-1.354-.6914-.902-1.0371-2.08-1.0371-3.533zm1.626.185c0 1.078.2227 1.921.668 2.531.4453.609 1.0605.914 1.8457.914 1.0312 0 1.7842-.463 2.2588-1.389v-4.368c-.4864-.896-1.2334-1.345-2.2413-1.345-.7968 0-1.4179.308-1.8632.923s-.668 1.527-.668 2.734zm22.1475 0c0 1.447-.331 2.613-.993 3.498-.662.884-1.559 1.327-2.689 1.327-1.155 0-2.063-.366-2.725-1.099v4.579h-1.626v-13.166h1.485l.079 1.055c.663-.82 1.583-1.231 2.76-1.231 1.143 0 2.045.431 2.707 1.292.668.862 1.002 2.06 1.002 3.595zm-1.626-.185c0-1.072-.228-1.919-.685-2.54s-1.084-.932-1.881-.932c-.985 0-1.723.437-2.215 1.31v4.544c.486.867 1.23 1.301 2.232 1.301.78 0 1.398-.308 1.855-.923.463-.621.694-1.541.694-2.76zm8.657-3.217c-.246-.041-.513-.061-.8-.061-1.066 0-1.79.454-2.171 1.362v6.75h-1.626v-9.51h1.582l.027 1.099c.533-.85 1.289-1.275 2.267-1.275.317 0 .557.041.721.124zm3.63 8.051h-1.626v-9.51h1.626zm-1.758-12.032c0-.264.079-.487.237-.668.164-.182.404-.273.721-.273.316 0 .556.091.721.273.164.181.246.404.246.668 0 .263-.082.483-.246.659-.165.176-.405.264-.721.264-.317 0-.557-.088-.721-.264-.158-.176-.237-.396-.237-.659zm6.257 2.522.044 1.055c.698-.82 1.638-1.231 2.822-1.231 1.33 0 2.235.51 2.715 1.53.317-.457.727-.826 1.231-1.108.51-.281 1.11-.422 1.802-.422 2.086 0 3.146 1.105 3.181 3.314v6.372h-1.626v-6.275c0-.68-.155-1.187-.466-1.521-.31-.34-.832-.51-1.564-.51-.604 0-1.105.182-1.503.545-.398.358-.63.841-.694 1.45v6.311h-1.635v-6.231c0-1.383-.677-2.075-2.03-2.075-1.067 0-1.796.454-2.189 1.363v6.943h-1.626v-9.51zm20.487 9.51c-.093-.188-.17-.521-.228-1.002-.756.785-1.658 1.178-2.707 1.178-.938 0-1.708-.264-2.312-.791-.597-.533-.896-1.207-.896-2.022 0-.99.375-1.758 1.125-2.302.756-.551 1.816-.827 3.181-.827h1.582v-.747c0-.568-.17-1.019-.509-1.353-.34-.34-.841-.51-1.503-.51-.58 0-1.067.147-1.459.439-.393.293-.589.648-.589 1.064h-1.635c0-.475.167-.932.501-1.371.34-.445.797-.797 1.371-1.055.58-.258 1.216-.387 1.907-.387 1.096 0 1.954.276 2.576.827.621.545.943 1.297.966 2.258v4.377c0 .873.112 1.568.334 2.083v.141zm-2.698-1.239c.51 0 .993-.132 1.45-.396.457-.263.788-.606.993-1.028v-1.951h-1.274c-1.992 0-2.988.583-2.988 1.749 0 .51.17.908.509 1.195.34.287.777.431 1.31.431zm11.575-6.812c-.246-.041-.513-.061-.8-.061-1.066 0-1.79.454-2.171 1.362v6.75h-1.626v-9.51h1.582l.027 1.099c.533-.85 1.289-1.275 2.267-1.275.317 0 .557.041.721.124zm5.132 5.669 2.215-7.128h1.74l-3.823 10.978c-.592 1.582-1.532 2.373-2.821 2.373l-.308-.027-.606-.114v-1.318l.439.035c.551 0 .979-.111 1.283-.334.311-.223.566-.63.765-1.222l.36-.966-3.392-9.405h1.775z" fill="#090909"/><rect fill="#9c9c9c" height="84" rx="8" width="600" y="216"/><path d="m306.724 260.396h-2.321l-.703 3.604h-1.257l.703-3.604h-2.1v-1.204h2.329l.606-3.111h-2.267v-1.222h2.505l.72-3.656h1.257l-.72 3.656h2.32l.721-3.656h1.265l-.72 3.656h1.792v1.222h-2.03l-.606 3.111h1.977v1.204h-2.206l-.703 3.604h-1.265zm-2.092-1.204h2.32l.607-3.111h-2.321zm8.305 4.808v-12.797h4.184c1.388 0 2.431.287 3.129.861.703.575 1.054 1.424 1.054 2.549 0 .598-.17 1.128-.509 1.591-.34.457-.803.812-1.389 1.064.691.193 1.236.562 1.635 1.107.404.539.606 1.184.606 1.934 0 1.148-.372 2.05-1.116 2.707-.744.656-1.796.984-3.155.984zm1.688-5.985v4.605h2.786c.785 0 1.403-.202 1.854-.606.457-.41.686-.973.686-1.688 0-1.541-.838-2.311-2.514-2.311zm0-1.354h2.548c.739 0 1.328-.184 1.767-.554.445-.369.668-.87.668-1.503 0-.703-.205-1.212-.615-1.529-.41-.322-1.034-.483-1.872-.483h-2.496zm9.887 7.339v-12.797h4.184c1.388 0 2.431.287 3.128.861.704.575 1.055 1.424 1.055 2.549 0 .598-.17 1.128-.51 1.591-.339.457-.802.812-1.388 1.064.691.193 1.236.562 1.635 1.107.404.539.606 1.184.606 1.934 0 1.148-.372 2.05-1.116 2.707-.744.656-1.796.984-3.156.984zm1.687-5.985v4.605h2.787c.785 0 1.403-.202 1.854-.606.457-.41.686-.973.686-1.688 0-1.541-.838-2.311-2.514-2.311zm0-1.354h2.549c.739 0 1.327-.184 1.767-.554.445-.369.668-.87.668-1.503 0-.703-.205-1.212-.615-1.529-.411-.322-1.035-.483-1.872-.483h-2.497zm9.888 7.339v-12.797h4.183c1.389 0 2.432.287 3.129.861.703.575 1.055 1.424 1.055 2.549 0 .598-.17 1.128-.51 1.591-.34.457-.802.812-1.388 1.064.691.193 1.236.562 1.634 1.107.405.539.607 1.184.607 1.934 0 1.148-.372 2.05-1.116 2.707-.745.656-1.796.984-3.156.984zm1.687-5.985v4.605h2.786c.786 0 1.404-.202 1.855-.606.457-.41.686-.973.686-1.688 0-1.541-.838-2.311-2.514-2.311zm0-1.354h2.549c.738 0 1.327-.184 1.767-.554.445-.369.668-.87.668-1.503 0-.703-.205-1.212-.615-1.529-.411-.322-1.035-.483-1.873-.483h-2.496zm9.888 7.339v-12.797h4.183c1.389 0 2.432.287 3.129.861.703.575 1.055 1.424 1.055 2.549 0 .598-.17 1.128-.51 1.591-.34.457-.803.812-1.389 1.064.692.193 1.237.562 1.635 1.107.404.539.607 1.184.607 1.934 0 1.148-.372 2.05-1.117 2.707-.744.656-1.795.984-3.155.984zm1.687-5.985v4.605h2.786c.785 0 1.404-.202 1.855-.606.457-.41.685-.973.685-1.688 0-1.541-.838-2.311-2.513-2.311zm0-1.354h2.549c.738 0 1.327-.184 1.767-.554.445-.369.668-.87.668-1.503 0-.703-.206-1.212-.616-1.529-.41-.322-1.034-.483-1.872-.483h-2.496zm9.888 7.339v-12.797h4.183c1.389 0 2.432.287 3.129.861.703.575 1.055 1.424 1.055 2.549 0 .598-.17 1.128-.51 1.591-.34.457-.803.812-1.389 1.064.692.193 1.237.562 1.635 1.107.404.539.606 1.184.606 1.934 0 1.148-.372 2.05-1.116 2.707-.744.656-1.796.984-3.155.984zm1.687-5.985v4.605h2.786c.785 0 1.403-.202 1.855-.606.457-.41.685-.973.685-1.688 0-1.541-.838-2.311-2.513-2.311zm0-1.354h2.549c.738 0 1.327-.184 1.766-.554.446-.369.668-.87.668-1.503 0-.703-.205-1.212-.615-1.529-.41-.322-1.034-.483-1.872-.483h-2.496zm9.887 7.339v-12.797h4.184c1.389 0 2.432.287 3.129.861.703.575 1.055 1.424 1.055 2.549 0 .598-.17 1.128-.51 1.591-.34.457-.803.812-1.389 1.064.692.193 1.236.562 1.635 1.107.404.539.606 1.184.606 1.934 0 1.148-.372 2.05-1.116 2.707-.744.656-1.796.984-3.155.984zm1.688-5.985v4.605h2.786c.785 0 1.403-.202 1.854-.606.458-.41.686-.973.686-1.688 0-1.541-.838-2.311-2.514-2.311zm0-1.354h2.549c.738 0 1.327-.184 1.766-.554.446-.369.668-.87.668-1.503 0-.703-.205-1.212-.615-1.529-.41-.322-1.034-.483-1.872-.483h-2.496z" fill="#686868"/><path d="m43.1729 258.99v5.01h-1.6875v-12.797h4.7197c1.4004 0 2.4961.358 3.2871 1.072.7969.715 1.1953 1.662 1.1953 2.839 0 1.242-.3896 2.2-1.1689 2.874-.7735.668-1.8838 1.002-3.3311 1.002zm0-1.38h3.0322c.9023 0 1.5937-.211 2.0742-.632.4805-.428.7207-1.043.7207-1.846 0-.762-.2402-1.371-.7207-1.828s-1.1397-.695-1.9775-.712h-3.1289zm15.5387 6.39c-.0938-.188-.17-.521-.2286-1.002-.7558.785-1.6582 1.178-2.707 1.178-.9375 0-1.708-.264-2.3115-.791-.5977-.533-.8965-1.207-.8965-2.022 0-.99.375-1.758 1.125-2.302.7559-.551 1.8164-.827 3.1816-.827h1.5821v-.747c0-.568-.1699-1.019-.5098-1.353-.3398-.34-.8408-.51-1.5029-.51-.5801 0-1.0664.147-1.459.439-.3926.293-.5889.648-.5889 1.064h-1.6347c0-.475.167-.932.5009-1.371.3399-.445.7969-.797 1.3711-1.055.5801-.258 1.2159-.387 1.9073-.387 1.0957 0 1.9541.276 2.5752.827.6211.545.9433 1.297.9668 2.258v4.377c0 .873.1113 1.568.3339 2.083v.141zm-2.6983-1.239c.5098 0 .9932-.132 1.4502-.396.457-.263.7881-.606.9932-1.028v-1.951h-1.2744c-1.9922 0-2.9883.583-2.9883 1.749 0 .51.1699.908.5097 1.195.3399.287.7764.431 1.3096.431zm11.5749-6.812c-.2461-.041-.5127-.061-.7998-.061-1.0664 0-1.7901.454-2.1709 1.362v6.75h-1.626v-9.51h1.582l.0264 1.099c.5332-.85 1.289-1.275 2.2676-1.275.3164 0 .5566.041.7207.124zm7.3824 8.051c-.0937-.188-.1699-.521-.2285-1.002-.7559.785-1.6582 1.178-2.707 1.178-.9375 0-1.708-.264-2.3115-.791-.5977-.533-.8965-1.207-.8965-2.022 0-.99.375-1.758 1.125-2.302.7558-.551 1.8164-.827 3.1816-.827h1.582v-.747c0-.568-.1699-1.019-.5097-1.353-.3399-.34-.8408-.51-1.503-.51-.58 0-1.0664.147-1.4589.439-.3926.293-.5889.648-.5889 1.064h-1.6348c0-.475.167-.932.501-1.371.3398-.445.7969-.797 1.3711-1.055.5801-.258 1.2158-.387 1.9072-.387 1.0957 0 1.9541.276 2.5752.827.6211.545.9434 1.297.9668 2.258v4.377c0 .873.1113 1.568.334 2.083v.141zm-2.6982-1.239c.5097 0 .9931-.132 1.4502-.396.457-.263.7881-.606.9931-1.028v-1.951h-1.2744c-1.9922 0-2.9883.583-2.9883 1.749 0 .51.17.908.5098 1.195.3399.287.7764.431 1.3096.431zm6.5914-3.595c0-1.482.3428-2.66 1.0283-3.533.6856-.879 1.5938-1.319 2.7247-1.319 1.1601 0 2.0654.411 2.7158 1.231l.0791-1.055h1.4853v9.281c0 1.231-.3662 2.201-1.0986 2.91-.7266.709-1.7051 1.063-2.9355 1.063-.6856 0-1.3565-.146-2.0127-.439-.6563-.293-1.1573-.695-1.503-1.204l.8438-.976c.6972.861 1.5498 1.292 2.5576 1.292.791 0 1.4062-.223 1.8457-.668.4453-.445.668-1.072.668-1.881v-.817c-.6504.75-1.5381 1.125-2.6631 1.125-1.1133 0-2.0156-.448-2.7071-1.345-.6855-.896-1.0283-2.118-1.0283-3.665zm1.6348.185c0 1.072.2197 1.916.6592 2.531.4394.609 1.0547.914 1.8457.914 1.0254 0 1.7783-.466 2.2588-1.398v-4.341c-.4981-.909-1.2452-1.363-2.2412-1.363-.7911 0-1.4092.308-1.8545.923-.4454.615-.668 1.527-.668 2.734zm13.816-3.402c-.246-.041-.5126-.061-.7998-.061-1.0664 0-1.79.454-2.1709 1.362v6.75h-1.6259v-9.51h1.582l.0264 1.099c.5332-.85 1.289-1.275 2.2675-1.275.3165 0 .5567.041.7207.124zm7.3824 8.051c-.094-.188-.17-.521-.228-1.002-.756.785-1.6586 1.178-2.7074 1.178-.9375 0-1.708-.264-2.3116-.791-.5976-.533-.8964-1.207-.8964-2.022 0-.99.375-1.758 1.125-2.302.7558-.551 1.8164-.827 3.1816-.827h1.5818v-.747c0-.568-.17-1.019-.51-1.353-.339-.34-.84-.51-1.5025-.51-.58 0-1.0664.147-1.459.439-.3925.293-.5888.648-.5888 1.064h-1.6348c0-.475.167-.932.501-1.371.3398-.445.7969-.797 1.3711-1.055.5801-.258 1.2158-.387 1.9072-.387 1.0958 0 1.9538.276 2.5748.827.621.545.944 1.297.967 2.258v4.377c0 .873.112 1.568.334 2.083v.141zm-2.6981-1.239c.5097 0 .9931-.132 1.4501-.396.457-.263.788-.606.993-1.028v-1.951h-1.274c-1.9924 0-2.9885.583-2.9885 1.749 0 .51.17.908.5098 1.195s.7764.431 1.3096.431zm15.0111-3.41c0 1.447-.331 2.613-.993 3.498-.662.884-1.559 1.327-2.689 1.327-1.155 0-2.063-.366-2.725-1.099v4.579h-1.626v-13.166h1.485l.079 1.055c.663-.82 1.583-1.231 2.76-1.231 1.143 0 2.045.431 2.707 1.292.668.862 1.002 2.06 1.002 3.595zm-1.626-.185c0-1.072-.228-1.919-.685-2.54s-1.084-.932-1.881-.932c-.985 0-1.723.437-2.215 1.31v4.544c.486.867 1.23 1.301 2.232 1.301.78 0 1.398-.308 1.855-.923.463-.621.694-1.541.694-2.76zm5.686-3.524c.721-.885 1.659-1.328 2.813-1.328 2.01 0 3.023 1.134 3.041 3.402v6.284h-1.626v-6.293c-.006-.686-.164-1.192-.475-1.52-.304-.329-.782-.493-1.432-.493-.528 0-.99.141-1.389.422-.398.281-.709.651-.932 1.108v6.776h-1.626v-13.5h1.626z" fill="#090909"/><rect fill="#686868" height="84" rx="8" width="600" y="324"/><path d="m306.724 368.396h-2.321l-.703 3.604h-1.257l.703-3.604h-2.1v-1.204h2.329l.606-3.111h-2.267v-1.222h2.505l.72-3.656h1.257l-.72 3.656h2.32l.721-3.656h1.265l-.72 3.656h1.792v1.222h-2.03l-.606 3.111h1.977v1.204h-2.206l-.703 3.604h-1.265zm-2.092-1.204h2.32l.607-3.111h-2.321zm14.264-7.998v1.38h-.299c-1.265.024-2.273.399-3.023 1.125-.75.727-1.184 1.749-1.301 3.068.674-.774 1.594-1.161 2.76-1.161 1.113 0 2.001.393 2.663 1.178.668.785 1.002 1.799 1.002 3.041 0 1.319-.36 2.373-1.081 3.164-.715.791-1.676 1.187-2.883 1.187-1.225 0-2.218-.469-2.979-1.406-.762-.944-1.143-2.157-1.143-3.639v-.624c0-2.356.501-4.154 1.503-5.397 1.008-1.248 2.505-1.886 4.491-1.916zm-2.136 5.766c-.556 0-1.069.167-1.538.501-.468.334-.794.753-.975 1.257v.597c0 1.055.237 1.905.712 2.549.474.645 1.066.967 1.775.967.732 0 1.307-.269 1.723-.809.422-.539.632-1.245.632-2.118 0-.879-.213-1.588-.641-2.127-.422-.545-.984-.817-1.688-.817zm13.983-2.417c0 .639-.169 1.207-.509 1.705-.334.498-.788.888-1.363 1.169.668.287 1.196.706 1.582 1.257.393.551.589 1.175.589 1.872 0 1.107-.375 1.989-1.125 2.645-.744.657-1.725.985-2.944.985-1.231 0-2.218-.328-2.962-.985-.738-.662-1.107-1.544-1.107-2.645 0-.692.187-1.316.562-1.872.381-.557.905-.979 1.573-1.266-.568-.281-1.016-.671-1.344-1.169-.329-.498-.493-1.063-.493-1.696 0-1.078.346-1.934 1.038-2.566.691-.633 1.602-.95 2.733-.95 1.125 0 2.033.317 2.725.95.697.632 1.045 1.488 1.045 2.566zm-1.327 5.968c0-.715-.228-1.298-.685-1.749-.451-.451-1.043-.677-1.776-.677-.732 0-1.321.223-1.766.668-.44.445-.659 1.031-.659 1.758 0 .726.213 1.298.641 1.714.434.416 1.034.624 1.802.624.762 0 1.359-.208 1.793-.624.433-.422.65-.994.65-1.714zm-2.443-8.148c-.639 0-1.157.199-1.556.598-.392.393-.589.929-.589 1.608 0 .651.194 1.178.58 1.582.393.399.915.598 1.565.598s1.169-.199 1.556-.598c.392-.404.588-.931.588-1.582 0-.65-.202-1.18-.606-1.59-.404-.411-.917-.616-1.538-.616zm12.858-1.169v1.38h-.299c-1.265.024-2.273.399-3.023 1.125-.75.727-1.184 1.749-1.301 3.068.674-.774 1.594-1.161 2.76-1.161 1.113 0 2.001.393 2.663 1.178.668.785 1.002 1.799 1.002 3.041 0 1.319-.361 2.373-1.081 3.164-.715.791-1.676 1.187-2.883 1.187-1.225 0-2.218-.469-2.98-1.406-.761-.944-1.142-2.157-1.142-3.639v-.624c0-2.356.501-4.154 1.503-5.397 1.008-1.248 2.505-1.886 4.491-1.916zm-2.136 5.766c-.556 0-1.069.167-1.538.501s-.794.753-.975 1.257v.597c0 1.055.237 1.905.711 2.549.475.645 1.067.967 1.776.967.732 0 1.307-.269 1.723-.809.421-.539.632-1.245.632-2.118 0-.879-.214-1.588-.641-2.127-.422-.545-.985-.817-1.688-.817zm13.983-2.417c0 .639-.17 1.207-.509 1.705-.334.498-.789.888-1.363 1.169.668.287 1.196.706 1.582 1.257.393.551.589 1.175.589 1.872 0 1.107-.375 1.989-1.125 2.645-.744.657-1.725.985-2.944.985-1.231 0-2.218-.328-2.962-.985-.738-.662-1.108-1.544-1.108-2.645 0-.692.188-1.316.563-1.872.381-.557.905-.979 1.573-1.266-.568-.281-1.016-.671-1.345-1.169-.328-.498-.492-1.063-.492-1.696 0-1.078.346-1.934 1.037-2.566.692-.633 1.603-.95 2.734-.95 1.125 0 2.033.317 2.724.95.698.632 1.046 1.488 1.046 2.566zm-1.327 5.968c0-.715-.228-1.298-.685-1.749-.452-.451-1.043-.677-1.776-.677-.732 0-1.321.223-1.766.668-.44.445-.66 1.031-.66 1.758 0 .726.214 1.298.642 1.714.434.416 1.034.624 1.802.624.761 0 1.359-.208 1.793-.624.433-.422.65-.994.65-1.714zm-2.443-8.148c-.639 0-1.157.199-1.556.598-.392.393-.589.929-.589 1.608 0 .651.194 1.178.58 1.582.393.399.914.598 1.565.598.65 0 1.169-.199 1.555-.598.393-.404.589-.931.589-1.582 0-.65-.202-1.18-.606-1.59-.404-.411-.917-.616-1.538-.616zm12.858-1.169v1.38h-.299c-1.266.024-2.273.399-3.023 1.125-.75.727-1.184 1.749-1.301 3.068.674-.774 1.594-1.161 2.76-1.161 1.113 0 2.001.393 2.663 1.178.668.785 1.002 1.799 1.002 3.041 0 1.319-.361 2.373-1.081 3.164-.715.791-1.676 1.187-2.883 1.187-1.225 0-2.218-.469-2.98-1.406-.762-.944-1.142-2.157-1.142-3.639v-.624c0-2.356.501-4.154 1.503-5.397 1.007-1.248 2.504-1.886 4.491-1.916zm-2.136 5.766c-.557 0-1.069.167-1.538.501s-.794.753-.976 1.257v.597c0 1.055.238 1.905.712 2.549.475.645 1.067.967 1.776.967.732 0 1.306-.269 1.722-.809.422-.539.633-1.245.633-2.118 0-.879-.214-1.588-.641-2.127-.422-.545-.985-.817-1.688-.817zm13.983-2.417c0 .639-.17 1.207-.51 1.705-.334.498-.788.888-1.362 1.169.668.287 1.195.706 1.582 1.257.393.551.589 1.175.589 1.872 0 1.107-.375 1.989-1.125 2.645-.744.657-1.726.985-2.944.985-1.231 0-2.218-.328-2.962-.985-.739-.662-1.108-1.544-1.108-2.645 0-.692.188-1.316.563-1.872.381-.557.905-.979 1.573-1.266-.568-.281-1.017-.671-1.345-1.169s-.492-1.063-.492-1.696c0-1.078.346-1.934 1.037-2.566.692-.633 1.603-.95 2.734-.95 1.125 0 2.033.317 2.724.95.697.632 1.046 1.488 1.046 2.566zm-1.327 5.968c0-.715-.229-1.298-.686-1.749-.451-.451-1.043-.677-1.775-.677s-1.321.223-1.767.668c-.439.445-.659 1.031-.659 1.758 0 .726.214 1.298.642 1.714.433.416 1.034.624 1.802.624.761 0 1.359-.208 1.793-.624.433-.422.65-.994.65-1.714zm-2.443-8.148c-.639 0-1.158.199-1.556.598-.393.393-.589.929-.589 1.608 0 .651.193 1.178.58 1.582.393.399.914.598 1.565.598.65 0 1.169-.199 1.555-.598.393-.404.589-.931.589-1.582 0-.65-.202-1.18-.606-1.59-.405-.411-.917-.616-1.538-.616z" fill="#9c9c9c"/><path d="m50.8984 367.939c-.1582 1.354-.6591 2.4-1.5029 3.138-.8379.733-1.9541 1.099-3.3486 1.099-1.5117 0-2.7246-.542-3.6387-1.626-.9082-1.084-1.3623-2.534-1.3623-4.351v-1.23c0-1.19.2109-2.236.6328-3.138.4277-.902 1.0313-1.594 1.8106-2.074.7793-.486 1.6816-.73 2.707-.73 1.3594 0 2.4492.381 3.2695 1.143.8203.756 1.2979 1.805 1.4326 3.146h-1.6963c-.1464-1.019-.4658-1.757-.958-2.214-.4863-.457-1.1689-.686-2.0478-.686-1.0781 0-1.9248.398-2.5401 1.195-.6093.797-.914 1.931-.914 3.402v1.239c0 1.389.29 2.493.8701 3.313.5801.821 1.3916 1.231 2.4346 1.231.9375 0 1.6552-.211 2.1533-.633.5039-.428.8379-1.169 1.0019-2.224zm8.2878 4.061c-.0938-.188-.17-.521-.2285-1.002-.7559.785-1.6582 1.178-2.7071 1.178-.9375 0-1.708-.264-2.3115-.791-.5977-.533-.8965-1.207-.8965-2.022 0-.99.375-1.758 1.125-2.302.7559-.551 1.8164-.827 3.1817-.827h1.582v-.747c0-.568-.1699-1.019-.5098-1.353-.3398-.34-.8408-.51-1.5029-.51-.5801 0-1.0664.147-1.459.439-.3926.293-.5889.648-.5889 1.064h-1.6347c0-.475.167-.932.501-1.371.3398-.445.7968-.797 1.371-1.055.5801-.258 1.2159-.387 1.9073-.387 1.0957 0 1.9541.276 2.5752.827.6211.545.9433 1.297.9668 2.258v4.377c0 .873.1113 1.568.3339 2.083v.141zm-2.6983-1.239c.5098 0 .9932-.132 1.4502-.396.4571-.263.7881-.606.9932-1.028v-1.951h-1.2744c-1.9922 0-2.9883.583-2.9883 1.749 0 .51.1699.908.5098 1.195.3398.287.7763.431 1.3095.431zm15.0114-3.41c0 1.447-.3311 2.613-.9932 3.498-.6621.884-1.5586 1.327-2.6894 1.327-1.1543 0-2.0625-.366-2.7246-1.099v4.579h-1.626v-13.166h1.4853l.0791 1.055c.6622-.82 1.5821-1.231 2.7598-1.231 1.1426 0 2.0449.431 2.707 1.292.668.862 1.002 2.06 1.002 3.595zm-1.626-.185c0-1.072-.2285-1.919-.6855-2.54-.4571-.621-1.084-.932-1.8809-.932-.9844 0-1.7226.437-2.2148 1.31v4.544c.4863.867 1.2304 1.301 2.2324 1.301.7793 0 1.3975-.308 1.8545-.923.4629-.621.6943-1.541.6943-2.76zm6.2663-6.978v2.302h1.7754v1.257h-1.7754v5.898c0 .38.0791.667.2373.861.1582.187.4277.281.8086.281.1875 0 .4453-.035.7734-.105v1.318c-.4277.117-.8437.176-1.248.176-.7266 0-1.2745-.22-1.6436-.659-.3691-.44-.5537-1.064-.5537-1.872v-5.898h-1.7314v-1.257h1.7314v-2.302zm5.8092 11.812h-1.626v-9.51h1.626zm-1.7578-12.032c0-.264.0791-.487.2373-.668.164-.182.4043-.273.7207-.273s.5566.091.7207.273c.164.181.2461.404.2461.668 0 .263-.0821.483-.2461.659-.1641.176-.4043.264-.7207.264s-.5567-.088-.7207-.264c-.1582-.176-.2373-.396-.2373-.659zm4.2975 7.189c0-.931.1816-1.769.5449-2.513.3691-.745.8789-1.319 1.5293-1.723.6562-.404 1.4033-.607 2.2412-.607 1.2949 0 2.3408.449 3.1377 1.345.8027.897 1.2041 2.089 1.2041 3.577v.115c0 .925-.1787 1.757-.5361 2.496-.3516.732-.8584 1.303-1.5205 1.714-.6563.41-1.4121.615-2.2676.615-1.2891 0-2.335-.448-3.1377-1.345-.7969-.896-1.1953-2.083-1.1953-3.56zm1.6347.194c0 1.054.2432 1.901.7295 2.54.4922.638 1.1485.958 1.9688.958.8262 0 1.4824-.323 1.9687-.967.4864-.651.7295-1.559.7295-2.725 0-1.043-.249-1.886-.747-2.531-.4922-.65-1.1485-.976-1.9688-.976-.8027 0-1.4502.32-1.9424.958-.4922.639-.7383 1.553-.7383 2.743zm10.9597-4.861.0527 1.196c.7265-.915 1.6758-1.372 2.8476-1.372 2.0098 0 3.0238 1.134 3.0408 3.402v6.284h-1.626v-6.293c-.006-.686-.164-1.192-.474-1.52-.305-.329-.783-.493-1.4329-.493-.5274 0-.9903.141-1.3887.422-.3985.281-.709.651-.9317 1.108v6.776h-1.6259v-9.51z" fill="#ddd"/></svg>