<svg width="600" height="408" viewBox="0 0 600 408" fill="none" xmlns="http://www.w3.org/2000/svg">
<rect x="0.5" y="0.5" width="599" height="83" rx="7.5" fill="#090909" stroke="#9A9A9A"/>
<path d="M302.452 48L304.939 35.2031H306.205L303.709 48H302.452ZM306.029 48L308.525 35.2031H309.782L307.286 48H306.029ZM310.854 40.0811H301.714V38.8594H310.854V40.0811ZM310.195 44.3965H301.046V43.1836H310.195V44.3965ZM320.548 40.582V42.5332C320.548 43.582 320.455 44.4668 320.267 45.1875C320.08 45.9082 319.81 46.4883 319.459 46.9277C319.107 47.3672 318.682 47.6865 318.184 47.8857C317.692 48.0791 317.135 48.1758 316.514 48.1758C316.022 48.1758 315.568 48.1143 315.152 47.9912C314.736 47.8682 314.361 47.6719 314.027 47.4023C313.699 47.127 313.418 46.7695 313.183 46.3301C312.949 45.8906 312.77 45.3574 312.647 44.7305C312.524 44.1035 312.463 43.3711 312.463 42.5332V40.582C312.463 39.5332 312.556 38.6543 312.744 37.9453C312.937 37.2363 313.21 36.668 313.561 36.2402C313.913 35.8066 314.335 35.4961 314.827 35.3086C315.325 35.1211 315.881 35.0273 316.497 35.0273C316.995 35.0273 317.452 35.0889 317.868 35.2119C318.29 35.3291 318.665 35.5195 318.993 35.7832C319.321 36.041 319.599 36.3867 319.828 36.8203C320.062 37.248 320.241 37.7725 320.364 38.3936C320.487 39.0146 320.548 39.7441 320.548 40.582ZM318.914 42.7969V40.3096C318.914 39.7354 318.879 39.2314 318.808 38.7979C318.744 38.3584 318.647 37.9834 318.518 37.6729C318.389 37.3623 318.225 37.1104 318.026 36.917C317.833 36.7236 317.607 36.583 317.349 36.4951C317.097 36.4014 316.813 36.3545 316.497 36.3545C316.11 36.3545 315.767 36.4277 315.468 36.5742C315.17 36.7148 314.918 36.9404 314.713 37.251C314.513 37.5615 314.361 37.9688 314.256 38.4727C314.15 38.9766 314.097 39.5889 314.097 40.3096V42.7969C314.097 43.3711 314.13 43.8779 314.194 44.3174C314.264 44.7568 314.367 45.1377 314.502 45.46C314.636 45.7764 314.8 46.0371 314.994 46.2422C315.187 46.4473 315.41 46.5996 315.662 46.6992C315.92 46.793 316.204 46.8398 316.514 46.8398C316.913 46.8398 317.261 46.7637 317.56 46.6113C317.859 46.459 318.108 46.2217 318.307 45.8994C318.512 45.5713 318.665 45.1523 318.764 44.6426C318.864 44.127 318.914 43.5117 318.914 42.7969ZM324.617 46.6377H324.784C325.722 46.6377 326.484 46.5059 327.07 46.2422C327.656 45.9785 328.107 45.624 328.423 45.1787C328.74 44.7334 328.956 44.2324 329.074 43.6758C329.191 43.1133 329.249 42.5361 329.249 41.9443V39.9844C329.249 39.4043 329.182 38.8887 329.047 38.4375C328.918 37.9863 328.737 37.6084 328.502 37.3037C328.274 36.999 328.013 36.7676 327.72 36.6094C327.427 36.4512 327.116 36.3721 326.788 36.3721C326.413 36.3721 326.076 36.4482 325.778 36.6006C325.485 36.7471 325.236 36.9551 325.031 37.2246C324.831 37.4941 324.679 37.8105 324.574 38.1738C324.468 38.5371 324.415 38.9326 324.415 39.3604C324.415 39.7412 324.462 40.1104 324.556 40.4678C324.65 40.8252 324.793 41.1475 324.987 41.4346C325.18 41.7217 325.42 41.9502 325.707 42.1201C326 42.2842 326.343 42.3662 326.736 42.3662C327.099 42.3662 327.439 42.2959 327.755 42.1553C328.077 42.0088 328.362 41.8125 328.608 41.5664C328.86 41.3145 329.059 41.0303 329.205 40.7139C329.358 40.3975 329.446 40.0664 329.469 39.7207H330.242C330.242 40.207 330.146 40.6875 329.952 41.1621C329.765 41.6309 329.501 42.0586 329.161 42.4453C328.822 42.832 328.423 43.1426 327.966 43.377C327.509 43.6055 327.011 43.7197 326.472 43.7197C325.839 43.7197 325.291 43.5967 324.828 43.3506C324.366 43.1045 323.985 42.7764 323.686 42.3662C323.393 41.9561 323.173 41.499 323.027 40.9951C322.886 40.4854 322.816 39.9697 322.816 39.4482C322.816 38.8389 322.901 38.2676 323.071 37.7344C323.241 37.2012 323.492 36.7324 323.826 36.3281C324.16 35.918 324.574 35.5986 325.066 35.3701C325.564 35.1416 326.138 35.0273 326.788 35.0273C327.521 35.0273 328.145 35.1738 328.66 35.4668C329.176 35.7598 329.595 36.1523 329.917 36.6445C330.245 37.1367 330.486 37.6904 330.638 38.3057C330.79 38.9209 330.866 39.5537 330.866 40.2041V40.793C330.866 41.4551 330.823 42.1289 330.735 42.8145C330.653 43.4941 330.491 44.1445 330.251 44.7656C330.017 45.3867 329.674 45.9434 329.223 46.4355C328.772 46.9219 328.183 47.3086 327.456 47.5957C326.736 47.877 325.845 48.0176 324.784 48.0176H324.617V46.6377ZM341.518 40.582V42.5332C341.518 43.582 341.425 44.4668 341.237 45.1875C341.05 45.9082 340.78 46.4883 340.429 46.9277C340.077 47.3672 339.652 47.6865 339.154 47.8857C338.662 48.0791 338.105 48.1758 337.484 48.1758C336.992 48.1758 336.538 48.1143 336.122 47.9912C335.706 47.8682 335.331 47.6719 334.997 47.4023C334.669 47.127 334.388 46.7695 334.153 46.3301C333.919 45.8906 333.74 45.3574 333.617 44.7305C333.494 44.1035 333.433 43.3711 333.433 42.5332V40.582C333.433 39.5332 333.526 38.6543 333.714 37.9453C333.907 37.2363 334.18 36.668 334.531 36.2402C334.883 35.8066 335.305 35.4961 335.797 35.3086C336.295 35.1211 336.851 35.0273 337.467 35.0273C337.965 35.0273 338.422 35.0889 338.838 35.2119C339.26 35.3291 339.635 35.5195 339.963 35.7832C340.291 36.041 340.569 36.3867 340.798 36.8203C341.032 37.248 341.211 37.7725 341.334 38.3936C341.457 39.0146 341.518 39.7441 341.518 40.582ZM339.884 42.7969V40.3096C339.884 39.7354 339.849 39.2314 339.778 38.7979C339.714 38.3584 339.617 37.9834 339.488 37.6729C339.359 37.3623 339.195 37.1104 338.996 36.917C338.803 36.7236 338.577 36.583 338.319 36.4951C338.067 36.4014 337.783 36.3545 337.467 36.3545C337.08 36.3545 336.737 36.4277 336.438 36.5742C336.14 36.7148 335.888 36.9404 335.683 37.251C335.483 37.5615 335.331 37.9688 335.226 38.4727C335.12 38.9766 335.067 39.5889 335.067 40.3096V42.7969C335.067 43.3711 335.1 43.8779 335.164 44.3174C335.234 44.7568 335.337 45.1377 335.472 45.46C335.606 45.7764 335.77 46.0371 335.964 46.2422C336.157 46.4473 336.38 46.5996 336.632 46.6992C336.89 46.793 337.174 46.8398 337.484 46.8398C337.883 46.8398 338.231 46.7637 338.53 46.6113C338.829 46.459 339.078 46.2217 339.277 45.8994C339.482 45.5713 339.635 45.1523 339.734 44.6426C339.834 44.127 339.884 43.5117 339.884 42.7969ZM345.587 46.6377H345.754C346.692 46.6377 347.454 46.5059 348.04 46.2422C348.626 45.9785 349.077 45.624 349.393 45.1787C349.71 44.7334 349.926 44.2324 350.044 43.6758C350.161 43.1133 350.219 42.5361 350.219 41.9443V39.9844C350.219 39.4043 350.152 38.8887 350.017 38.4375C349.888 37.9863 349.707 37.6084 349.472 37.3037C349.244 36.999 348.983 36.7676 348.69 36.6094C348.397 36.4512 348.086 36.3721 347.758 36.3721C347.383 36.3721 347.046 36.4482 346.748 36.6006C346.455 36.7471 346.206 36.9551 346.001 37.2246C345.801 37.4941 345.649 37.8105 345.544 38.1738C345.438 38.5371 345.385 38.9326 345.385 39.3604C345.385 39.7412 345.432 40.1104 345.526 40.4678C345.62 40.8252 345.763 41.1475 345.957 41.4346C346.15 41.7217 346.39 41.9502 346.677 42.1201C346.97 42.2842 347.313 42.3662 347.706 42.3662C348.069 42.3662 348.409 42.2959 348.725 42.1553C349.047 42.0088 349.332 41.8125 349.578 41.5664C349.83 41.3145 350.029 41.0303 350.175 40.7139C350.328 40.3975 350.416 40.0664 350.439 39.7207H351.212C351.212 40.207 351.116 40.6875 350.922 41.1621C350.735 41.6309 350.471 42.0586 350.131 42.4453C349.792 42.832 349.393 43.1426 348.936 43.377C348.479 43.6055 347.981 43.7197 347.442 43.7197C346.809 43.7197 346.261 43.5967 345.798 43.3506C345.336 43.1045 344.955 42.7764 344.656 42.3662C344.363 41.9561 344.143 41.499 343.997 40.9951C343.856 40.4854 343.786 39.9697 343.786 39.4482C343.786 38.8389 343.871 38.2676 344.041 37.7344C344.211 37.2012 344.462 36.7324 344.796 36.3281C345.13 35.918 345.544 35.5986 346.036 35.3701C346.534 35.1416 347.108 35.0273 347.758 35.0273C348.491 35.0273 349.115 35.1738 349.63 35.4668C350.146 35.7598 350.565 36.1523 350.887 36.6445C351.215 37.1367 351.456 37.6904 351.608 38.3057C351.76 38.9209 351.836 39.5537 351.836 40.2041V40.793C351.836 41.4551 351.793 42.1289 351.705 42.8145C351.623 43.4941 351.461 44.1445 351.221 44.7656C350.987 45.3867 350.644 45.9434 350.193 46.4355C349.742 46.9219 349.153 47.3086 348.426 47.5957C347.706 47.877 346.815 48.0176 345.754 48.0176H345.587V46.6377ZM362.488 40.582V42.5332C362.488 43.582 362.395 44.4668 362.207 45.1875C362.02 45.9082 361.75 46.4883 361.399 46.9277C361.047 47.3672 360.622 47.6865 360.124 47.8857C359.632 48.0791 359.075 48.1758 358.454 48.1758C357.962 48.1758 357.508 48.1143 357.092 47.9912C356.676 47.8682 356.301 47.6719 355.967 47.4023C355.639 47.127 355.358 46.7695 355.123 46.3301C354.889 45.8906 354.71 45.3574 354.587 44.7305C354.464 44.1035 354.403 43.3711 354.403 42.5332V40.582C354.403 39.5332 354.496 38.6543 354.684 37.9453C354.877 37.2363 355.15 36.668 355.501 36.2402C355.853 35.8066 356.275 35.4961 356.767 35.3086C357.265 35.1211 357.821 35.0273 358.437 35.0273C358.935 35.0273 359.392 35.0889 359.808 35.2119C360.23 35.3291 360.605 35.5195 360.933 35.7832C361.261 36.041 361.539 36.3867 361.768 36.8203C362.002 37.248 362.181 37.7725 362.304 38.3936C362.427 39.0146 362.488 39.7441 362.488 40.582ZM360.854 42.7969V40.3096C360.854 39.7354 360.819 39.2314 360.748 38.7979C360.684 38.3584 360.587 37.9834 360.458 37.6729C360.329 37.3623 360.165 37.1104 359.966 36.917C359.773 36.7236 359.547 36.583 359.289 36.4951C359.037 36.4014 358.753 36.3545 358.437 36.3545C358.05 36.3545 357.707 36.4277 357.408 36.5742C357.11 36.7148 356.858 36.9404 356.653 37.251C356.453 37.5615 356.301 37.9688 356.196 38.4727C356.09 38.9766 356.037 39.5889 356.037 40.3096V42.7969C356.037 43.3711 356.07 43.8779 356.134 44.3174C356.204 44.7568 356.307 45.1377 356.442 45.46C356.576 45.7764 356.74 46.0371 356.934 46.2422C357.127 46.4473 357.35 46.5996 357.602 46.6992C357.86 46.793 358.144 46.8398 358.454 46.8398C358.853 46.8398 359.201 46.7637 359.5 46.6113C359.799 46.459 360.048 46.2217 360.247 45.8994C360.452 45.5713 360.605 45.1523 360.704 44.6426C360.804 44.127 360.854 43.5117 360.854 42.7969ZM366.557 46.6377H366.724C367.662 46.6377 368.424 46.5059 369.01 46.2422C369.596 45.9785 370.047 45.624 370.363 45.1787C370.68 44.7334 370.896 44.2324 371.014 43.6758C371.131 43.1133 371.189 42.5361 371.189 41.9443V39.9844C371.189 39.4043 371.122 38.8887 370.987 38.4375C370.858 37.9863 370.677 37.6084 370.442 37.3037C370.214 36.999 369.953 36.7676 369.66 36.6094C369.367 36.4512 369.056 36.3721 368.728 36.3721C368.353 36.3721 368.016 36.4482 367.718 36.6006C367.425 36.7471 367.176 36.9551 366.971 37.2246C366.771 37.4941 366.619 37.8105 366.514 38.1738C366.408 38.5371 366.355 38.9326 366.355 39.3604C366.355 39.7412 366.402 40.1104 366.496 40.4678C366.59 40.8252 366.733 41.1475 366.927 41.4346C367.12 41.7217 367.36 41.9502 367.647 42.1201C367.94 42.2842 368.283 42.3662 368.676 42.3662C369.039 42.3662 369.379 42.2959 369.695 42.1553C370.017 42.0088 370.302 41.8125 370.548 41.5664C370.8 41.3145 370.999 41.0303 371.145 40.7139C371.298 40.3975 371.386 40.0664 371.409 39.7207H372.182C372.182 40.207 372.086 40.6875 371.892 41.1621C371.705 41.6309 371.441 42.0586 371.101 42.4453C370.762 42.832 370.363 43.1426 369.906 43.377C369.449 43.6055 368.951 43.7197 368.412 43.7197C367.779 43.7197 367.231 43.5967 366.768 43.3506C366.306 43.1045 365.925 42.7764 365.626 42.3662C365.333 41.9561 365.113 41.499 364.967 40.9951C364.826 40.4854 364.756 39.9697 364.756 39.4482C364.756 38.8389 364.841 38.2676 365.011 37.7344C365.181 37.2012 365.432 36.7324 365.766 36.3281C366.1 35.918 366.514 35.5986 367.006 35.3701C367.504 35.1416 368.078 35.0273 368.728 35.0273C369.461 35.0273 370.085 35.1738 370.6 35.4668C371.116 35.7598 371.535 36.1523 371.857 36.6445C372.185 37.1367 372.426 37.6904 372.578 38.3057C372.73 38.9209 372.806 39.5537 372.806 40.2041V40.793C372.806 41.4551 372.763 42.1289 372.675 42.8145C372.593 43.4941 372.431 44.1445 372.191 44.7656C371.957 45.3867 371.614 45.9434 371.163 46.4355C370.712 46.9219 370.123 47.3086 369.396 47.5957C368.676 47.877 367.785 48.0176 366.724 48.0176H366.557V46.6377Z" fill="#D6D6D6"/>
<path d="M46.2051 42.9814H42.7861V41.6016H46.2051C46.8672 41.6016 47.4033 41.4961 47.8135 41.2852C48.2236 41.0742 48.5225 40.7812 48.71 40.4062C48.9033 40.0312 49 39.6035 49 39.123C49 38.6836 48.9033 38.2705 48.71 37.8838C48.5225 37.4971 48.2236 37.1865 47.8135 36.9521C47.4033 36.7119 46.8672 36.5918 46.2051 36.5918H43.1816V48H41.4854V35.2031H46.2051C47.1719 35.2031 47.9893 35.3701 48.6572 35.7041C49.3252 36.0381 49.832 36.501 50.1777 37.0928C50.5234 37.6787 50.6963 38.3496 50.6963 39.1055C50.6963 39.9258 50.5234 40.626 50.1777 41.2061C49.832 41.7861 49.3252 42.2285 48.6572 42.5332C47.9893 42.832 47.1719 42.9814 46.2051 42.9814ZM54.5807 39.9844V48H52.9547V38.4902H54.5368L54.5807 39.9844ZM57.5514 38.4375L57.5426 39.9492C57.4079 39.9199 57.2789 39.9023 57.1559 39.8965C57.0387 39.8848 56.9039 39.8789 56.7516 39.8789C56.3766 39.8789 56.0455 39.9375 55.7584 40.0547C55.4713 40.1719 55.2282 40.3359 55.0289 40.5469C54.8297 40.7578 54.6715 41.0098 54.5543 41.3027C54.443 41.5898 54.3698 41.9062 54.3346 42.252L53.8776 42.5156C53.8776 41.9414 53.9332 41.4023 54.0446 40.8984C54.1618 40.3945 54.3405 39.9492 54.5807 39.5625C54.8209 39.1699 55.1256 38.8652 55.4948 38.6484C55.8698 38.4258 56.3151 38.3145 56.8307 38.3145C56.9479 38.3145 57.0827 38.3291 57.235 38.3584C57.3873 38.3818 57.4928 38.4082 57.5514 38.4375ZM61.1809 38.4902V48H59.5462V38.4902H61.1809ZM59.4231 35.9678C59.4231 35.7041 59.5022 35.4814 59.6604 35.2998C59.8245 35.1182 60.0647 35.0273 60.3811 35.0273C60.6917 35.0273 60.929 35.1182 61.093 35.2998C61.263 35.4814 61.3479 35.7041 61.3479 35.9678C61.3479 36.2197 61.263 36.4365 61.093 36.6182C60.929 36.7939 60.6917 36.8818 60.3811 36.8818C60.0647 36.8818 59.8245 36.7939 59.6604 36.6182C59.5022 36.4365 59.4231 36.2197 59.4231 35.9678ZM65.7685 40.3799V48H64.1337V38.4902H65.6806L65.7685 40.3799ZM65.4345 42.8848L64.6786 42.8584C64.6845 42.208 64.7695 41.6074 64.9335 41.0566C65.0976 40.5 65.3407 40.0166 65.663 39.6064C65.9853 39.1963 66.3866 38.8799 66.8671 38.6572C67.3476 38.4287 67.9042 38.3145 68.537 38.3145C68.9823 38.3145 69.3925 38.3789 69.7675 38.5078C70.1425 38.6309 70.4677 38.8271 70.7431 39.0967C71.0185 39.3662 71.2323 39.7119 71.3847 40.1338C71.537 40.5557 71.6132 41.0654 71.6132 41.6631V48H69.9872V41.7422C69.9872 41.2441 69.9023 40.8457 69.7323 40.5469C69.5683 40.248 69.3339 40.0312 69.0292 39.8965C68.7245 39.7559 68.3671 39.6855 67.957 39.6855C67.4765 39.6855 67.0751 39.7705 66.7529 39.9404C66.4306 40.1104 66.1728 40.3447 65.9794 40.6436C65.7861 40.9424 65.6454 41.2852 65.5575 41.6719C65.4755 42.0527 65.4345 42.457 65.4345 42.8848ZM71.5956 41.9883L70.5058 42.3223C70.5116 41.8008 70.5966 41.2998 70.7607 40.8193C70.9306 40.3389 71.1737 39.9111 71.4902 39.5361C71.8124 39.1611 72.2079 38.8652 72.6767 38.6484C73.1454 38.4258 73.6816 38.3145 74.2851 38.3145C74.7948 38.3145 75.246 38.3818 75.6386 38.5166C76.037 38.6514 76.371 38.8594 76.6405 39.1406C76.9159 39.416 77.1239 39.7705 77.2646 40.2041C77.4052 40.6377 77.4755 41.1533 77.4755 41.751V48H75.8407V41.7334C75.8407 41.2002 75.7558 40.7871 75.5859 40.4941C75.4218 40.1953 75.1874 39.9873 74.8827 39.8701C74.5839 39.7471 74.2265 39.6855 73.8105 39.6855C73.453 39.6855 73.1366 39.7471 72.8612 39.8701C72.5859 39.9932 72.3544 40.1631 72.1669 40.3799C71.9794 40.5908 71.8359 40.834 71.7362 41.1094C71.6425 41.3848 71.5956 41.6777 71.5956 41.9883ZM85.9039 46.374V41.4785C85.9039 41.1035 85.8277 40.7783 85.6754 40.5029C85.5289 40.2217 85.3062 40.0049 85.0074 39.8525C84.7086 39.7002 84.3394 39.624 83.9 39.624C83.4898 39.624 83.1295 39.6943 82.8189 39.835C82.5142 39.9756 82.274 40.1602 82.0982 40.3887C81.9283 40.6172 81.8433 40.8633 81.8433 41.127H80.2173C80.2173 40.7871 80.3052 40.4502 80.481 40.1162C80.6568 39.7822 80.9087 39.4805 81.2369 39.2109C81.5709 38.9355 81.9693 38.7188 82.4322 38.5605C82.9009 38.3965 83.4224 38.3145 83.9966 38.3145C84.688 38.3145 85.2974 38.4316 85.8248 38.666C86.358 38.9004 86.774 39.2549 87.0728 39.7295C87.3775 40.1982 87.5298 40.7871 87.5298 41.4961V45.9258C87.5298 46.2422 87.5562 46.5791 87.6089 46.9365C87.6675 47.2939 87.7525 47.6016 87.8638 47.8594V48H86.1675C86.0855 47.8125 86.0211 47.5635 85.9742 47.2529C85.9273 46.9365 85.9039 46.6436 85.9039 46.374ZM86.1851 42.2344L86.2027 43.377H84.5591C84.0962 43.377 83.6832 43.415 83.3199 43.4912C82.9566 43.5615 82.6519 43.6699 82.4058 43.8164C82.1597 43.9629 81.9722 44.1475 81.8433 44.3701C81.7144 44.5869 81.65 44.8418 81.65 45.1348C81.65 45.4336 81.7173 45.7061 81.8521 45.9521C81.9869 46.1982 82.189 46.3945 82.4586 46.541C82.7339 46.6816 83.0709 46.752 83.4693 46.752C83.9673 46.752 84.4068 46.6465 84.7877 46.4355C85.1685 46.2246 85.4703 45.9668 85.6929 45.6621C85.9214 45.3574 86.0445 45.0615 86.0621 44.7744L86.7564 45.5566C86.7154 45.8027 86.6041 46.0752 86.4224 46.374C86.2408 46.6729 85.9976 46.96 85.6929 47.2354C85.3941 47.5049 85.0367 47.7305 84.6207 47.9121C84.2105 48.0879 83.7476 48.1758 83.232 48.1758C82.5875 48.1758 82.022 48.0498 81.5357 47.7979C81.0552 47.5459 80.6802 47.209 80.4107 46.7871C80.147 46.3594 80.0152 45.8818 80.0152 45.3545C80.0152 44.8447 80.1148 44.3965 80.314 44.0098C80.5132 43.6172 80.8004 43.292 81.1754 43.0342C81.5504 42.7705 82.0015 42.5713 82.5289 42.4365C83.0562 42.3018 83.6451 42.2344 84.2955 42.2344H86.1851ZM92.0734 39.9844V48H90.4475V38.4902H92.0295L92.0734 39.9844ZM95.0441 38.4375L95.0354 39.9492C94.9006 39.9199 94.7717 39.9023 94.6486 39.8965C94.5314 39.8848 94.3967 39.8789 94.2443 39.8789C93.8693 39.8789 93.5383 39.9375 93.2512 40.0547C92.9641 40.1719 92.7209 40.3359 92.5217 40.5469C92.3225 40.7578 92.1643 41.0098 92.0471 41.3027C91.9357 41.5898 91.8625 41.9062 91.8273 42.252L91.3703 42.5156C91.3703 41.9414 91.426 41.4023 91.5373 40.8984C91.6545 40.3945 91.8332 39.9492 92.0734 39.5625C92.3137 39.1699 92.6184 38.8652 92.9875 38.6484C93.3625 38.4258 93.8078 38.3145 94.3234 38.3145C94.4406 38.3145 94.5754 38.3291 94.7277 38.3584C94.8801 38.3818 94.9855 38.4082 95.0441 38.4375ZM99.7371 47.0156L102.383 38.4902H104.123L100.308 49.4678C100.221 49.7021 100.103 49.9541 99.9569 50.2236C99.8162 50.499 99.6346 50.7598 99.412 51.0059C99.1893 51.252 98.9198 51.4512 98.6034 51.6035C98.2928 51.7617 97.9207 51.8408 97.4871 51.8408C97.3582 51.8408 97.1942 51.8232 96.995 51.7881C96.7957 51.7529 96.6551 51.7236 96.5731 51.7002L96.5643 50.3818C96.6112 50.3877 96.6844 50.3936 96.784 50.3994C96.8895 50.4111 96.9627 50.417 97.0037 50.417C97.3729 50.417 97.6864 50.3672 97.9442 50.2676C98.202 50.1738 98.4188 50.0127 98.5946 49.7842C98.7762 49.5615 98.9315 49.2539 99.0604 48.8613L99.7371 47.0156ZM97.7948 38.4902L100.264 45.873L100.686 47.5869L99.5174 48.1846L96.0194 38.4902H97.7948Z" fill="#EDEDED"/>
<rect y="108" width="600" height="84" rx="8" fill="#EDEDED"/>
<path d="M302.452 157L304.939 144.203H306.205L303.709 157H302.452ZM306.029 157L308.525 144.203H309.782L307.286 157H306.029ZM310.854 149.081H301.714V147.859H310.854V149.081ZM310.195 153.396H301.046V152.184H310.195V153.396ZM321.067 155.62V157H314.291V155.62H321.067ZM314.633 144.203V157H312.937V144.203H314.633ZM320.171 149.705V151.085H314.291V149.705H320.171ZM320.979 144.203V145.592H314.291V144.203H320.979ZM326.991 157H324.319L324.336 155.62H326.991C327.905 155.62 328.666 155.43 329.276 155.049C329.885 154.662 330.342 154.123 330.647 153.432C330.957 152.734 331.113 151.92 331.113 150.988V150.206C331.113 149.474 331.025 148.823 330.849 148.255C330.673 147.681 330.415 147.197 330.075 146.805C329.736 146.406 329.32 146.104 328.827 145.899C328.341 145.694 327.782 145.592 327.149 145.592H324.266V144.203H327.149C327.987 144.203 328.751 144.344 329.443 144.625C330.134 144.9 330.729 145.302 331.227 145.829C331.731 146.351 332.117 146.983 332.387 147.728C332.657 148.466 332.791 149.298 332.791 150.224V150.988C332.791 151.914 332.657 152.749 332.387 153.493C332.117 154.231 331.728 154.861 331.218 155.383C330.714 155.904 330.105 156.306 329.39 156.587C328.681 156.862 327.881 157 326.991 157ZM325.224 144.203V157H323.528V144.203H325.224ZM343.83 155.62V157H337.054V155.62H343.83ZM337.396 144.203V157H335.7V144.203H337.396ZM342.934 149.705V151.085H337.054V149.705H342.934ZM343.742 144.203V145.592H337.054V144.203H343.742ZM349.753 157H347.082L347.099 155.62H349.753C350.668 155.62 351.429 155.43 352.039 155.049C352.648 154.662 353.105 154.123 353.41 153.432C353.72 152.734 353.876 151.92 353.876 150.988V150.206C353.876 149.474 353.788 148.823 353.612 148.255C353.436 147.681 353.178 147.197 352.838 146.805C352.499 146.406 352.083 146.104 351.59 145.899C351.104 145.694 350.544 145.592 349.912 145.592H347.029V144.203H349.912C350.75 144.203 351.514 144.344 352.206 144.625C352.897 144.9 353.492 145.302 353.99 145.829C354.494 146.351 354.88 146.983 355.15 147.728C355.419 148.466 355.554 149.298 355.554 150.224V150.988C355.554 151.914 355.419 152.749 355.15 153.493C354.88 154.231 354.491 154.861 353.981 155.383C353.477 155.904 352.868 156.306 352.153 156.587C351.444 156.862 350.644 157 349.753 157ZM347.987 144.203V157H346.291V144.203H347.987ZM366.593 155.62V157H359.817V155.62H366.593ZM360.159 144.203V157H358.463V144.203H360.159ZM365.696 149.705V151.085H359.817V149.705H365.696ZM366.505 144.203V145.592H359.817V144.203H366.505ZM372.516 157H369.845L369.862 155.62H372.516C373.431 155.62 374.192 155.43 374.802 155.049C375.411 154.662 375.868 154.123 376.173 153.432C376.483 152.734 376.639 151.92 376.639 150.988V150.206C376.639 149.474 376.551 148.823 376.375 148.255C376.199 147.681 375.941 147.197 375.601 146.805C375.262 146.406 374.846 146.104 374.353 145.899C373.867 145.694 373.307 145.592 372.675 145.592H369.792V144.203H372.675C373.513 144.203 374.277 144.344 374.969 144.625C375.66 144.9 376.255 145.302 376.753 145.829C377.257 146.351 377.643 146.983 377.913 147.728C378.182 148.466 378.317 149.298 378.317 150.224V150.988C378.317 151.914 378.182 152.749 377.913 153.493C377.643 154.231 377.254 154.861 376.744 155.383C376.24 155.904 375.631 156.306 374.916 156.587C374.207 156.862 373.407 157 372.516 157ZM370.75 144.203V157H369.054V144.203H370.75Z" fill="#090909"/>
<path d="M48.3057 151.766C48.3057 151.467 48.2588 151.203 48.165 150.975C48.0771 150.74 47.9189 150.529 47.6904 150.342C47.4678 150.154 47.1572 149.976 46.7588 149.806C46.3662 149.636 45.8682 149.463 45.2646 149.287C44.6318 149.1 44.0605 148.892 43.5508 148.663C43.041 148.429 42.6045 148.162 42.2412 147.863C41.8779 147.564 41.5996 147.222 41.4062 146.835C41.2129 146.448 41.1162 146.006 41.1162 145.508C41.1162 145.01 41.2188 144.55 41.4238 144.128C41.6289 143.706 41.9219 143.34 42.3027 143.029C42.6895 142.713 43.1494 142.467 43.6826 142.291C44.2158 142.115 44.8105 142.027 45.4668 142.027C46.4277 142.027 47.2422 142.212 47.9102 142.581C48.584 142.944 49.0967 143.422 49.4482 144.014C49.7998 144.6 49.9756 145.227 49.9756 145.895H48.2881C48.2881 145.414 48.1855 144.989 47.9805 144.62C47.7754 144.245 47.4648 143.952 47.0488 143.741C46.6328 143.524 46.1055 143.416 45.4668 143.416C44.8633 143.416 44.3652 143.507 43.9727 143.688C43.5801 143.87 43.2871 144.116 43.0938 144.427C42.9062 144.737 42.8125 145.092 42.8125 145.49C42.8125 145.76 42.8682 146.006 42.9795 146.229C43.0967 146.445 43.2754 146.647 43.5156 146.835C43.7617 147.022 44.0723 147.195 44.4473 147.354C44.8281 147.512 45.2822 147.664 45.8096 147.811C46.5361 148.016 47.1631 148.244 47.6904 148.496C48.2178 148.748 48.6514 149.032 48.9912 149.349C49.3369 149.659 49.5918 150.014 49.7559 150.412C49.9258 150.805 50.0107 151.25 50.0107 151.748C50.0107 152.27 49.9053 152.741 49.6943 153.163C49.4834 153.585 49.1816 153.945 48.7891 154.244C48.3965 154.543 47.9248 154.774 47.374 154.938C46.8291 155.097 46.2197 155.176 45.5459 155.176C44.9541 155.176 44.3711 155.094 43.7969 154.93C43.2285 154.766 42.71 154.52 42.2412 154.191C41.7783 153.863 41.4062 153.459 41.125 152.979C40.8496 152.492 40.7119 151.93 40.7119 151.291H42.3994C42.3994 151.73 42.4844 152.108 42.6543 152.425C42.8242 152.735 43.0557 152.993 43.3486 153.198C43.6475 153.403 43.9844 153.556 44.3594 153.655C44.7402 153.749 45.1357 153.796 45.5459 153.796C46.1377 153.796 46.6387 153.714 47.0488 153.55C47.459 153.386 47.7695 153.151 47.9805 152.847C48.1973 152.542 48.3057 152.182 48.3057 151.766ZM56.233 155.176C55.5709 155.176 54.9704 155.064 54.4313 154.842C53.8981 154.613 53.4381 154.294 53.0514 153.884C52.6705 153.474 52.3776 152.987 52.1725 152.425C51.9674 151.862 51.8649 151.247 51.8649 150.579V150.21C51.8649 149.437 51.9791 148.748 52.2077 148.145C52.4362 147.535 52.7467 147.02 53.1393 146.598C53.5319 146.176 53.9772 145.856 54.4752 145.64C54.9733 145.423 55.4889 145.314 56.0221 145.314C56.7018 145.314 57.2877 145.432 57.7799 145.666C58.278 145.9 58.6852 146.229 59.0016 146.65C59.318 147.066 59.5524 147.559 59.7047 148.127C59.8571 148.689 59.9332 149.305 59.9332 149.973V150.702H52.8317V149.375H58.3073V149.252C58.2838 148.83 58.1959 148.42 58.0436 148.021C57.8971 147.623 57.6627 147.295 57.3405 147.037C57.0182 146.779 56.5787 146.65 56.0221 146.65C55.653 146.65 55.3131 146.729 55.0026 146.888C54.692 147.04 54.4254 147.269 54.2028 147.573C53.9801 147.878 53.8073 148.25 53.6842 148.689C53.5612 149.129 53.4996 149.636 53.4996 150.21V150.579C53.4996 151.03 53.5612 151.455 53.6842 151.854C53.8131 152.246 53.9977 152.592 54.2379 152.891C54.484 153.189 54.7799 153.424 55.1256 153.594C55.4772 153.764 55.8756 153.849 56.3209 153.849C56.8952 153.849 57.3815 153.731 57.7799 153.497C58.1784 153.263 58.527 152.949 58.8258 152.557L59.8102 153.339C59.6051 153.649 59.3444 153.945 59.028 154.227C58.7116 154.508 58.3219 154.736 57.859 154.912C57.402 155.088 56.86 155.176 56.233 155.176ZM65.9973 153.84C66.3841 153.84 66.7415 153.761 67.0696 153.603C67.3977 153.444 67.6673 153.228 67.8782 152.952C68.0891 152.671 68.2093 152.352 68.2386 151.994H69.7854C69.7561 152.557 69.5657 153.081 69.2141 153.567C68.8684 154.048 68.4143 154.438 67.8518 154.736C67.2893 155.029 66.6712 155.176 65.9973 155.176C65.2825 155.176 64.6585 155.05 64.1253 154.798C63.5979 154.546 63.1585 154.2 62.8069 153.761C62.4612 153.321 62.2005 152.817 62.0247 152.249C61.8548 151.675 61.7698 151.068 61.7698 150.43V150.061C61.7698 149.422 61.8548 148.818 62.0247 148.25C62.2005 147.676 62.4612 147.169 62.8069 146.729C63.1585 146.29 63.5979 145.944 64.1253 145.692C64.6585 145.44 65.2825 145.314 65.9973 145.314C66.7415 145.314 67.3919 145.467 67.9485 145.771C68.5052 146.07 68.9417 146.48 69.2581 147.002C69.5804 147.518 69.7561 148.104 69.7854 148.76H68.2386C68.2093 148.367 68.0979 148.013 67.9046 147.696C67.7171 147.38 67.4593 147.128 67.1311 146.94C66.8089 146.747 66.4309 146.65 65.9973 146.65C65.4993 146.65 65.0804 146.75 64.7405 146.949C64.4065 147.143 64.1399 147.406 63.9407 147.74C63.7473 148.068 63.6067 148.435 63.5188 148.839C63.4368 149.237 63.3958 149.645 63.3958 150.061V150.43C63.3958 150.846 63.4368 151.256 63.5188 151.66C63.6009 152.064 63.7386 152.431 63.9319 152.759C64.1311 153.087 64.3977 153.351 64.7317 153.55C65.0716 153.743 65.4934 153.84 65.9973 153.84ZM71.5429 150.351V150.148C71.5429 149.463 71.6425 148.827 71.8417 148.241C72.0409 147.649 72.328 147.137 72.703 146.703C73.078 146.264 73.5321 145.924 74.0654 145.684C74.5986 145.438 75.1962 145.314 75.8583 145.314C76.5263 145.314 77.1269 145.438 77.6601 145.684C78.1991 145.924 78.6562 146.264 79.0312 146.703C79.412 147.137 79.7021 147.649 79.9013 148.241C80.1005 148.827 80.2001 149.463 80.2001 150.148V150.351C80.2001 151.036 80.1005 151.672 79.9013 152.258C79.7021 152.844 79.412 153.356 79.0312 153.796C78.6562 154.229 78.2021 154.569 77.6689 154.815C77.1415 155.056 76.5439 155.176 75.8759 155.176C75.2079 155.176 74.6073 155.056 74.0741 154.815C73.5409 154.569 73.0839 154.229 72.703 153.796C72.328 153.356 72.0409 152.844 71.8417 152.258C71.6425 151.672 71.5429 151.036 71.5429 150.351ZM73.1689 150.148V150.351C73.1689 150.825 73.2245 151.273 73.3359 151.695C73.4472 152.111 73.6142 152.48 73.8368 152.803C74.0654 153.125 74.3495 153.38 74.6894 153.567C75.0292 153.749 75.4247 153.84 75.8759 153.84C76.3212 153.84 76.7109 153.749 77.0448 153.567C77.3847 153.38 77.6659 153.125 77.8886 152.803C78.1112 152.48 78.2782 152.111 78.3896 151.695C78.5068 151.273 78.5654 150.825 78.5654 150.351V150.148C78.5654 149.68 78.5068 149.237 78.3896 148.821C78.2782 148.399 78.1083 148.027 77.8798 147.705C77.6571 147.377 77.3759 147.119 77.0361 146.932C76.7021 146.744 76.3095 146.65 75.8583 146.65C75.413 146.65 75.0204 146.744 74.6806 146.932C74.3466 147.119 74.0654 147.377 73.8368 147.705C73.6142 148.027 73.4472 148.399 73.3359 148.821C73.2245 149.237 73.1689 149.68 73.1689 150.148ZM84.2252 147.521V155H82.5992V145.49H84.1373L84.2252 147.521ZM83.8384 149.885L83.1617 149.858C83.1675 149.208 83.2642 148.607 83.4517 148.057C83.6392 147.5 83.9029 147.017 84.2427 146.606C84.5826 146.196 84.9869 145.88 85.4556 145.657C85.9302 145.429 86.4546 145.314 87.0289 145.314C87.4976 145.314 87.9195 145.379 88.2945 145.508C88.6695 145.631 88.9888 145.83 89.2525 146.105C89.522 146.381 89.7271 146.738 89.8677 147.178C90.0084 147.611 90.0787 148.142 90.0787 148.769V155H88.4439V148.751C88.4439 148.253 88.3707 147.854 88.2242 147.556C88.0777 147.251 87.8638 147.031 87.5826 146.896C87.3013 146.756 86.9556 146.686 86.5455 146.686C86.1412 146.686 85.772 146.771 85.438 146.94C85.1099 147.11 84.8257 147.345 84.5855 147.644C84.3511 147.942 84.1666 148.285 84.0318 148.672C83.9029 149.053 83.8384 149.457 83.8384 149.885ZM98.9025 153.154V141.5H100.537V155H99.0432L98.9025 153.154ZM92.5041 150.351V150.166C92.5041 149.439 92.592 148.78 92.7678 148.188C92.9494 147.591 93.2043 147.078 93.5324 146.65C93.8664 146.223 94.2619 145.895 94.7189 145.666C95.1818 145.432 95.6975 145.314 96.2658 145.314C96.8635 145.314 97.385 145.42 97.8303 145.631C98.2814 145.836 98.6623 146.138 98.9729 146.536C99.2893 146.929 99.5383 147.403 99.7199 147.96C99.9016 148.517 100.028 149.146 100.098 149.85V150.658C100.033 151.355 99.9074 151.982 99.7199 152.539C99.5383 153.096 99.2893 153.57 98.9729 153.963C98.6623 154.355 98.2814 154.657 97.8303 154.868C97.3791 155.073 96.8518 155.176 96.2482 155.176C95.6916 155.176 95.1818 155.056 94.7189 154.815C94.2619 154.575 93.8664 154.238 93.5324 153.805C93.2043 153.371 92.9494 152.861 92.7678 152.275C92.592 151.684 92.5041 151.042 92.5041 150.351ZM94.1389 150.166V150.351C94.1389 150.825 94.1857 151.271 94.2795 151.687C94.3791 152.103 94.5314 152.469 94.7365 152.785C94.9416 153.102 95.2023 153.351 95.5187 153.532C95.8352 153.708 96.2131 153.796 96.6525 153.796C97.1916 153.796 97.634 153.682 97.9797 153.453C98.3312 153.225 98.6125 152.923 98.8234 152.548C99.0344 152.173 99.1984 151.766 99.3156 151.326V149.208C99.2453 148.886 99.1428 148.575 99.008 148.276C98.8791 147.972 98.7092 147.702 98.4982 147.468C98.2932 147.228 98.0383 147.037 97.7336 146.896C97.4348 146.756 97.0803 146.686 96.6701 146.686C96.2248 146.686 95.841 146.779 95.5187 146.967C95.2023 147.148 94.9416 147.4 94.7365 147.723C94.5314 148.039 94.3791 148.408 94.2795 148.83C94.1857 149.246 94.1389 149.691 94.1389 150.166ZM109.879 147.318V158.656H108.245V145.49H109.739L109.879 147.318ZM116.287 150.166V150.351C116.287 151.042 116.205 151.684 116.041 152.275C115.876 152.861 115.636 153.371 115.32 153.805C115.009 154.238 114.625 154.575 114.168 154.815C113.711 155.056 113.187 155.176 112.595 155.176C111.992 155.176 111.458 155.076 110.996 154.877C110.533 154.678 110.14 154.388 109.818 154.007C109.496 153.626 109.238 153.169 109.044 152.636C108.857 152.103 108.728 151.502 108.658 150.834V149.85C108.728 149.146 108.86 148.517 109.053 147.96C109.247 147.403 109.501 146.929 109.818 146.536C110.14 146.138 110.53 145.836 110.987 145.631C111.444 145.42 111.971 145.314 112.569 145.314C113.166 145.314 113.697 145.432 114.16 145.666C114.623 145.895 115.012 146.223 115.329 146.65C115.645 147.078 115.882 147.591 116.041 148.188C116.205 148.78 116.287 149.439 116.287 150.166ZM114.652 150.351V150.166C114.652 149.691 114.602 149.246 114.502 148.83C114.403 148.408 114.248 148.039 114.037 147.723C113.832 147.4 113.568 147.148 113.246 146.967C112.923 146.779 112.54 146.686 112.094 146.686C111.684 146.686 111.327 146.756 111.022 146.896C110.723 147.037 110.468 147.228 110.257 147.468C110.046 147.702 109.874 147.972 109.739 148.276C109.61 148.575 109.513 148.886 109.449 149.208V151.484C109.566 151.895 109.73 152.281 109.941 152.645C110.152 153.002 110.433 153.292 110.785 153.515C111.136 153.731 111.579 153.84 112.112 153.84C112.551 153.84 112.929 153.749 113.246 153.567C113.568 153.38 113.832 153.125 114.037 152.803C114.248 152.48 114.403 152.111 114.502 151.695C114.602 151.273 114.652 150.825 114.652 150.351ZM120.347 146.984V155H118.721V145.49H120.303L120.347 146.984ZM123.317 145.438L123.309 146.949C123.174 146.92 123.045 146.902 122.922 146.896C122.805 146.885 122.67 146.879 122.518 146.879C122.143 146.879 121.812 146.938 121.525 147.055C121.237 147.172 120.994 147.336 120.795 147.547C120.596 147.758 120.438 148.01 120.32 148.303C120.209 148.59 120.136 148.906 120.101 149.252L119.644 149.516C119.644 148.941 119.699 148.402 119.811 147.898C119.928 147.395 120.107 146.949 120.347 146.562C120.587 146.17 120.892 145.865 121.261 145.648C121.636 145.426 122.081 145.314 122.597 145.314C122.714 145.314 122.849 145.329 123.001 145.358C123.153 145.382 123.259 145.408 123.317 145.438ZM126.947 145.49V155H125.312V145.49H126.947ZM125.189 142.968C125.189 142.704 125.268 142.481 125.427 142.3C125.591 142.118 125.831 142.027 126.147 142.027C126.458 142.027 126.695 142.118 126.859 142.3C127.029 142.481 127.114 142.704 127.114 142.968C127.114 143.22 127.029 143.437 126.859 143.618C126.695 143.794 126.458 143.882 126.147 143.882C125.831 143.882 125.591 143.794 125.427 143.618C125.268 143.437 125.189 143.22 125.189 142.968ZM131.535 147.38V155H129.9V145.49H131.447L131.535 147.38ZM131.201 149.885L130.445 149.858C130.451 149.208 130.536 148.607 130.7 148.057C130.864 147.5 131.107 147.017 131.429 146.606C131.751 146.196 132.153 145.88 132.633 145.657C133.114 145.429 133.67 145.314 134.303 145.314C134.748 145.314 135.159 145.379 135.534 145.508C135.909 145.631 136.234 145.827 136.509 146.097C136.785 146.366 136.998 146.712 137.151 147.134C137.303 147.556 137.379 148.065 137.379 148.663V155H135.753V148.742C135.753 148.244 135.668 147.846 135.498 147.547C135.334 147.248 135.1 147.031 134.795 146.896C134.491 146.756 134.133 146.686 133.723 146.686C133.243 146.686 132.841 146.771 132.519 146.94C132.197 147.11 131.939 147.345 131.746 147.644C131.552 147.942 131.412 148.285 131.324 148.672C131.242 149.053 131.201 149.457 131.201 149.885ZM137.362 148.988L136.272 149.322C136.278 148.801 136.363 148.3 136.527 147.819C136.697 147.339 136.94 146.911 137.256 146.536C137.579 146.161 137.974 145.865 138.443 145.648C138.912 145.426 139.448 145.314 140.051 145.314C140.561 145.314 141.012 145.382 141.405 145.517C141.803 145.651 142.137 145.859 142.407 146.141C142.682 146.416 142.89 146.771 143.031 147.204C143.171 147.638 143.242 148.153 143.242 148.751V155H141.607V148.733C141.607 148.2 141.522 147.787 141.352 147.494C141.188 147.195 140.954 146.987 140.649 146.87C140.35 146.747 139.993 146.686 139.577 146.686C139.219 146.686 138.903 146.747 138.627 146.87C138.352 146.993 138.121 147.163 137.933 147.38C137.746 147.591 137.602 147.834 137.502 148.109C137.409 148.385 137.362 148.678 137.362 148.988ZM151.67 153.374V148.479C151.67 148.104 151.594 147.778 151.441 147.503C151.295 147.222 151.072 147.005 150.773 146.853C150.475 146.7 150.106 146.624 149.666 146.624C149.256 146.624 148.896 146.694 148.585 146.835C148.28 146.976 148.04 147.16 147.864 147.389C147.694 147.617 147.609 147.863 147.609 148.127H145.983C145.983 147.787 146.071 147.45 146.247 147.116C146.423 146.782 146.675 146.48 147.003 146.211C147.337 145.936 147.735 145.719 148.198 145.561C148.667 145.396 149.189 145.314 149.763 145.314C150.454 145.314 151.064 145.432 151.591 145.666C152.124 145.9 152.54 146.255 152.839 146.729C153.144 147.198 153.296 147.787 153.296 148.496V152.926C153.296 153.242 153.322 153.579 153.375 153.937C153.434 154.294 153.519 154.602 153.63 154.859V155H151.934C151.852 154.812 151.787 154.563 151.74 154.253C151.693 153.937 151.67 153.644 151.67 153.374ZM151.951 149.234L151.969 150.377H150.325C149.862 150.377 149.449 150.415 149.086 150.491C148.723 150.562 148.418 150.67 148.172 150.816C147.926 150.963 147.738 151.147 147.609 151.37C147.481 151.587 147.416 151.842 147.416 152.135C147.416 152.434 147.483 152.706 147.618 152.952C147.753 153.198 147.955 153.395 148.225 153.541C148.5 153.682 148.837 153.752 149.235 153.752C149.733 153.752 150.173 153.646 150.554 153.436C150.935 153.225 151.236 152.967 151.459 152.662C151.688 152.357 151.811 152.062 151.828 151.774L152.522 152.557C152.481 152.803 152.37 153.075 152.189 153.374C152.007 153.673 151.764 153.96 151.459 154.235C151.16 154.505 150.803 154.73 150.387 154.912C149.977 155.088 149.514 155.176 148.998 155.176C148.354 155.176 147.788 155.05 147.302 154.798C146.821 154.546 146.446 154.209 146.177 153.787C145.913 153.359 145.781 152.882 145.781 152.354C145.781 151.845 145.881 151.396 146.08 151.01C146.279 150.617 146.566 150.292 146.941 150.034C147.316 149.771 147.768 149.571 148.295 149.437C148.822 149.302 149.411 149.234 150.062 149.234H151.951ZM157.84 146.984V155H156.214V145.49H157.796L157.84 146.984ZM160.81 145.438L160.801 146.949C160.667 146.92 160.538 146.902 160.415 146.896C160.298 146.885 160.163 146.879 160.01 146.879C159.635 146.879 159.304 146.938 159.017 147.055C158.73 147.172 158.487 147.336 158.288 147.547C158.089 147.758 157.93 148.01 157.813 148.303C157.702 148.59 157.629 148.906 157.593 149.252L157.136 149.516C157.136 148.941 157.192 148.402 157.303 147.898C157.421 147.395 157.599 146.949 157.84 146.562C158.08 146.17 158.384 145.865 158.754 145.648C159.129 145.426 159.574 145.314 160.09 145.314C160.207 145.314 160.341 145.329 160.494 145.358C160.646 145.382 160.752 145.408 160.81 145.438ZM165.503 154.016L168.149 145.49H169.889L166.075 156.468C165.987 156.702 165.869 156.954 165.723 157.224C165.582 157.499 165.401 157.76 165.178 158.006C164.955 158.252 164.686 158.451 164.369 158.604C164.059 158.762 163.687 158.841 163.253 158.841C163.124 158.841 162.96 158.823 162.761 158.788C162.562 158.753 162.421 158.724 162.339 158.7L162.33 157.382C162.377 157.388 162.451 157.394 162.55 157.399C162.656 157.411 162.729 157.417 162.77 157.417C163.139 157.417 163.452 157.367 163.71 157.268C163.968 157.174 164.185 157.013 164.361 156.784C164.542 156.562 164.698 156.254 164.826 155.861L165.503 154.016ZM163.561 145.49L166.031 152.873L166.452 154.587L165.284 155.185L161.785 145.49H163.561Z" fill="#090909"/>
<rect y="216" width="600" height="84" rx="8" fill="#D6D6D6"/>
<path d="M302.452 264L304.939 251.203H306.205L303.709 264H302.452ZM306.029 264L308.525 251.203H309.782L307.286 264H306.029ZM310.854 256.081H301.714V254.859H310.854V256.081ZM310.195 260.396H301.046V259.184H310.195V260.396ZM316.4 264H313.728L313.746 262.62H316.4C317.314 262.62 318.076 262.43 318.685 262.049C319.295 261.662 319.752 261.123 320.056 260.432C320.367 259.734 320.522 258.92 320.522 257.988V257.206C320.522 256.474 320.434 255.823 320.258 255.255C320.083 254.681 319.825 254.197 319.485 253.805C319.145 253.406 318.729 253.104 318.237 252.899C317.751 252.694 317.191 252.592 316.558 252.592H313.675V251.203H316.558C317.396 251.203 318.161 251.344 318.852 251.625C319.544 251.9 320.138 252.302 320.636 252.829C321.14 253.351 321.527 253.983 321.797 254.728C322.066 255.466 322.201 256.298 322.201 257.224V257.988C322.201 258.914 322.066 259.749 321.797 260.493C321.527 261.231 321.137 261.861 320.628 262.383C320.124 262.904 319.514 263.306 318.799 263.587C318.09 263.862 317.291 264 316.4 264ZM314.633 251.203V264H312.937V251.203H314.633ZM330.928 251.186H331.069V252.565H330.928C330.067 252.565 329.346 252.706 328.766 252.987C328.186 253.263 327.726 253.635 327.386 254.104C327.046 254.566 326.8 255.088 326.648 255.668C326.501 256.248 326.428 256.837 326.428 257.435V259.315C326.428 259.884 326.495 260.388 326.63 260.827C326.765 261.261 326.949 261.627 327.184 261.926C327.418 262.225 327.682 262.45 327.975 262.603C328.274 262.755 328.584 262.831 328.907 262.831C329.282 262.831 329.616 262.761 329.908 262.62C330.201 262.474 330.448 262.271 330.647 262.014C330.852 261.75 331.007 261.439 331.113 261.082C331.218 260.725 331.271 260.332 331.271 259.904C331.271 259.523 331.224 259.157 331.13 258.806C331.036 258.448 330.893 258.132 330.699 257.856C330.506 257.575 330.263 257.355 329.97 257.197C329.683 257.033 329.34 256.951 328.942 256.951C328.491 256.951 328.069 257.062 327.676 257.285C327.289 257.502 326.97 257.789 326.718 258.146C326.472 258.498 326.331 258.882 326.296 259.298L325.435 259.289C325.517 258.633 325.669 258.073 325.892 257.61C326.12 257.142 326.402 256.761 326.736 256.468C327.075 256.169 327.453 255.952 327.869 255.817C328.291 255.677 328.737 255.606 329.205 255.606C329.844 255.606 330.395 255.727 330.858 255.967C331.321 256.207 331.701 256.529 332 256.934C332.299 257.332 332.519 257.783 332.659 258.287C332.806 258.785 332.879 259.298 332.879 259.825C332.879 260.429 332.794 260.994 332.624 261.521C332.454 262.049 332.199 262.512 331.86 262.91C331.526 263.309 331.113 263.619 330.62 263.842C330.128 264.064 329.557 264.176 328.907 264.176C328.215 264.176 327.612 264.035 327.096 263.754C326.58 263.467 326.153 263.086 325.813 262.611C325.473 262.137 325.218 261.609 325.048 261.029C324.878 260.449 324.793 259.86 324.793 259.263V258.498C324.793 257.596 324.884 256.711 325.066 255.844C325.247 254.977 325.561 254.191 326.006 253.488C326.457 252.785 327.081 252.226 327.878 251.81C328.675 251.394 329.692 251.186 330.928 251.186ZM339.058 264H336.386L336.403 262.62H339.058C339.972 262.62 340.733 262.43 341.343 262.049C341.952 261.662 342.409 261.123 342.714 260.432C343.024 259.734 343.18 258.92 343.18 257.988V257.206C343.18 256.474 343.092 255.823 342.916 255.255C342.74 254.681 342.482 254.197 342.143 253.805C341.803 253.406 341.387 253.104 340.894 252.899C340.408 252.694 339.849 252.592 339.216 252.592H336.333V251.203H339.216C340.054 251.203 340.818 251.344 341.51 251.625C342.201 251.9 342.796 252.302 343.294 252.829C343.798 253.351 344.184 253.983 344.454 254.728C344.724 255.466 344.858 256.298 344.858 257.224V257.988C344.858 258.914 344.724 259.749 344.454 260.493C344.184 261.231 343.795 261.861 343.285 262.383C342.781 262.904 342.172 263.306 341.457 263.587C340.748 263.862 339.948 264 339.058 264ZM337.291 251.203V264H335.595V251.203H337.291ZM353.586 251.186H353.726V252.565H353.586C352.724 252.565 352.003 252.706 351.423 252.987C350.843 253.263 350.383 253.635 350.044 254.104C349.704 254.566 349.458 255.088 349.305 255.668C349.159 256.248 349.086 256.837 349.086 257.435V259.315C349.086 259.884 349.153 260.388 349.288 260.827C349.422 261.261 349.607 261.627 349.841 261.926C350.076 262.225 350.339 262.45 350.632 262.603C350.931 262.755 351.242 262.831 351.564 262.831C351.939 262.831 352.273 262.761 352.566 262.62C352.859 262.474 353.105 262.271 353.304 262.014C353.509 261.75 353.665 261.439 353.77 261.082C353.876 260.725 353.928 260.332 353.928 259.904C353.928 259.523 353.881 259.157 353.788 258.806C353.694 258.448 353.55 258.132 353.357 257.856C353.164 257.575 352.92 257.355 352.627 257.197C352.34 257.033 351.998 256.951 351.599 256.951C351.148 256.951 350.726 257.062 350.334 257.285C349.947 257.502 349.627 257.789 349.376 258.146C349.129 258.498 348.989 258.882 348.954 259.298L348.092 259.289C348.174 258.633 348.327 258.073 348.549 257.61C348.778 257.142 349.059 256.761 349.393 256.468C349.733 256.169 350.111 255.952 350.527 255.817C350.949 255.677 351.394 255.606 351.863 255.606C352.502 255.606 353.052 255.727 353.515 255.967C353.978 256.207 354.359 256.529 354.658 256.934C354.957 257.332 355.176 257.783 355.317 258.287C355.463 258.785 355.537 259.298 355.537 259.825C355.537 260.429 355.452 260.994 355.282 261.521C355.112 262.049 354.857 262.512 354.517 262.91C354.183 263.309 353.77 263.619 353.278 263.842C352.786 264.064 352.214 264.176 351.564 264.176C350.873 264.176 350.269 264.035 349.753 263.754C349.238 263.467 348.81 263.086 348.47 262.611C348.13 262.137 347.876 261.609 347.706 261.029C347.536 260.449 347.451 259.86 347.451 259.263V258.498C347.451 257.596 347.542 256.711 347.723 255.844C347.905 254.977 348.218 254.191 348.664 253.488C349.115 252.785 349.739 252.226 350.536 251.81C351.333 251.394 352.349 251.186 353.586 251.186ZM361.715 264H359.043L359.061 262.62H361.715C362.629 262.62 363.391 262.43 364 262.049C364.61 261.662 365.067 261.123 365.371 260.432C365.682 259.734 365.837 258.92 365.837 257.988V257.206C365.837 256.474 365.749 255.823 365.573 255.255C365.398 254.681 365.14 254.197 364.8 253.805C364.46 253.406 364.044 253.104 363.552 252.899C363.066 252.694 362.506 252.592 361.873 252.592H358.99V251.203H361.873C362.711 251.203 363.476 251.344 364.167 251.625C364.859 251.9 365.453 252.302 365.951 252.829C366.455 253.351 366.842 253.983 367.112 254.728C367.381 255.466 367.516 256.298 367.516 257.224V257.988C367.516 258.914 367.381 259.749 367.112 260.493C366.842 261.231 366.452 261.861 365.943 262.383C365.439 262.904 364.829 263.306 364.114 263.587C363.405 263.862 362.606 264 361.715 264ZM359.948 251.203V264H358.252V251.203H359.948ZM376.243 251.186H376.384V252.565H376.243C375.382 252.565 374.661 252.706 374.081 252.987C373.501 253.263 373.041 253.635 372.701 254.104C372.361 254.566 372.115 255.088 371.963 255.668C371.816 256.248 371.743 256.837 371.743 257.435V259.315C371.743 259.884 371.81 260.388 371.945 260.827C372.08 261.261 372.264 261.627 372.499 261.926C372.733 262.225 372.997 262.45 373.29 262.603C373.589 262.755 373.899 262.831 374.222 262.831C374.597 262.831 374.931 262.761 375.223 262.62C375.516 262.474 375.763 262.271 375.962 262.014C376.167 261.75 376.322 261.439 376.428 261.082C376.533 260.725 376.586 260.332 376.586 259.904C376.586 259.523 376.539 259.157 376.445 258.806C376.351 258.448 376.208 258.132 376.014 257.856C375.821 257.575 375.578 257.355 375.285 257.197C374.998 257.033 374.655 256.951 374.257 256.951C373.806 256.951 373.384 257.062 372.991 257.285C372.604 257.502 372.285 257.789 372.033 258.146C371.787 258.498 371.646 258.882 371.611 259.298L370.75 259.289C370.832 258.633 370.984 258.073 371.207 257.61C371.435 257.142 371.717 256.761 372.051 256.468C372.39 256.169 372.768 255.952 373.184 255.817C373.606 255.677 374.052 255.606 374.52 255.606C375.159 255.606 375.71 255.727 376.173 255.967C376.636 256.207 377.016 256.529 377.315 256.934C377.614 257.332 377.834 257.783 377.974 258.287C378.121 258.785 378.194 259.298 378.194 259.825C378.194 260.429 378.109 260.994 377.939 261.521C377.769 262.049 377.514 262.512 377.175 262.91C376.841 263.309 376.428 263.619 375.935 263.842C375.443 264.064 374.872 264.176 374.222 264.176C373.53 264.176 372.927 264.035 372.411 263.754C371.895 263.467 371.468 263.086 371.128 262.611C370.788 262.137 370.533 261.609 370.363 261.029C370.193 260.449 370.108 259.86 370.108 259.263V258.498C370.108 257.596 370.199 256.711 370.381 255.844C370.562 254.977 370.876 254.191 371.321 253.488C371.772 252.785 372.396 252.226 373.193 251.81C373.99 251.394 375.007 251.186 376.243 251.186Z" fill="#090909"/>
<path d="M46.2051 258.981H42.7861V257.602H46.2051C46.8672 257.602 47.4033 257.496 47.8135 257.285C48.2236 257.074 48.5225 256.781 48.71 256.406C48.9033 256.031 49 255.604 49 255.123C49 254.684 48.9033 254.271 48.71 253.884C48.5225 253.497 48.2236 253.187 47.8135 252.952C47.4033 252.712 46.8672 252.592 46.2051 252.592H43.1816V264H41.4854V251.203H46.2051C47.1719 251.203 47.9893 251.37 48.6572 251.704C49.3252 252.038 49.832 252.501 50.1777 253.093C50.5234 253.679 50.6963 254.35 50.6963 255.105C50.6963 255.926 50.5234 256.626 50.1777 257.206C49.832 257.786 49.3252 258.229 48.6572 258.533C47.9893 258.832 47.1719 258.981 46.2051 258.981ZM58.4567 262.374V257.479C58.4567 257.104 58.3805 256.778 58.2282 256.503C58.0817 256.222 57.859 256.005 57.5602 255.853C57.2614 255.7 56.8922 255.624 56.4528 255.624C56.0426 255.624 55.6823 255.694 55.3717 255.835C55.067 255.976 54.8268 256.16 54.651 256.389C54.4811 256.617 54.3961 256.863 54.3961 257.127H52.7702C52.7702 256.787 52.858 256.45 53.0338 256.116C53.2096 255.782 53.4616 255.48 53.7897 255.211C54.1237 254.936 54.5221 254.719 54.985 254.561C55.4537 254.396 55.9752 254.314 56.5495 254.314C57.2409 254.314 57.8502 254.432 58.3776 254.666C58.9108 254.9 59.3268 255.255 59.6256 255.729C59.9303 256.198 60.0827 256.787 60.0827 257.496V261.926C60.0827 262.242 60.109 262.579 60.1618 262.937C60.2204 263.294 60.3053 263.602 60.4166 263.859V264H58.7204C58.6383 263.812 58.5739 263.563 58.527 263.253C58.4801 262.937 58.4567 262.644 58.4567 262.374ZM58.7379 258.234L58.7555 259.377H57.112C56.6491 259.377 56.236 259.415 55.8727 259.491C55.5094 259.562 55.2047 259.67 54.9586 259.816C54.7125 259.963 54.525 260.147 54.3961 260.37C54.2672 260.587 54.2028 260.842 54.2028 261.135C54.2028 261.434 54.2702 261.706 54.4049 261.952C54.5397 262.198 54.7418 262.395 55.0114 262.541C55.2868 262.682 55.6237 262.752 56.0221 262.752C56.5202 262.752 56.9596 262.646 57.3405 262.436C57.7213 262.225 58.0231 261.967 58.2457 261.662C58.4743 261.357 58.5973 261.062 58.6149 260.774L59.3092 261.557C59.2682 261.803 59.1569 262.075 58.9752 262.374C58.7936 262.673 58.5504 262.96 58.2457 263.235C57.9469 263.505 57.5895 263.73 57.1735 263.912C56.7633 264.088 56.3004 264.176 55.7848 264.176C55.1403 264.176 54.5748 264.05 54.0885 263.798C53.608 263.546 53.233 263.209 52.9635 262.787C52.6998 262.359 52.568 261.882 52.568 261.354C52.568 260.845 52.6676 260.396 52.8668 260.01C53.0661 259.617 53.3532 259.292 53.7282 259.034C54.1032 258.771 54.5543 258.571 55.0817 258.437C55.609 258.302 56.1979 258.234 56.8483 258.234H58.7379ZM64.6262 255.984V264H63.0003V254.49H64.5823L64.6262 255.984ZM67.597 254.438L67.5882 255.949C67.4534 255.92 67.3245 255.902 67.2014 255.896C67.0843 255.885 66.9495 255.879 66.7971 255.879C66.4221 255.879 66.0911 255.938 65.804 256.055C65.5169 256.172 65.2737 256.336 65.0745 256.547C64.8753 256.758 64.7171 257.01 64.5999 257.303C64.4886 257.59 64.4153 257.906 64.3802 258.252L63.9231 258.516C63.9231 257.941 63.9788 257.402 64.0901 256.898C64.2073 256.395 64.386 255.949 64.6262 255.562C64.8665 255.17 65.1712 254.865 65.5403 254.648C65.9153 254.426 66.3606 254.314 66.8762 254.314C66.9934 254.314 67.1282 254.329 67.2805 254.358C67.4329 254.382 67.5384 254.408 67.597 254.438ZM74.7157 262.374V257.479C74.7157 257.104 74.6396 256.778 74.4872 256.503C74.3407 256.222 74.1181 256.005 73.8193 255.853C73.5204 255.7 73.1513 255.624 72.7118 255.624C72.3017 255.624 71.9413 255.694 71.6308 255.835C71.3261 255.976 71.0859 256.16 70.9101 256.389C70.7402 256.617 70.6552 256.863 70.6552 257.127H69.0292C69.0292 256.787 69.1171 256.45 69.2929 256.116C69.4687 255.782 69.7206 255.48 70.0487 255.211C70.3827 254.936 70.7812 254.719 71.2441 254.561C71.7128 254.396 72.2343 254.314 72.8085 254.314C73.4999 254.314 74.1093 254.432 74.6366 254.666C75.1698 254.9 75.5859 255.255 75.8847 255.729C76.1894 256.198 76.3417 256.787 76.3417 257.496V261.926C76.3417 262.242 76.3681 262.579 76.4208 262.937C76.4794 263.294 76.5644 263.602 76.6757 263.859V264H74.9794C74.8974 263.812 74.8329 263.563 74.7861 263.253C74.7392 262.937 74.7157 262.644 74.7157 262.374ZM74.997 258.234L75.0146 259.377H73.371C72.9081 259.377 72.495 259.415 72.1318 259.491C71.7685 259.562 71.4638 259.67 71.2177 259.816C70.9716 259.963 70.7841 260.147 70.6552 260.37C70.5263 260.587 70.4618 260.842 70.4618 261.135C70.4618 261.434 70.5292 261.706 70.664 261.952C70.7987 262.198 71.0009 262.395 71.2704 262.541C71.5458 262.682 71.8827 262.752 72.2812 262.752C72.7792 262.752 73.2187 262.646 73.5995 262.436C73.9804 262.225 74.2821 261.967 74.5048 261.662C74.7333 261.357 74.8564 261.062 74.8739 260.774L75.5683 261.557C75.5273 261.803 75.4159 262.075 75.2343 262.374C75.0527 262.673 74.8095 262.96 74.5048 263.235C74.206 263.505 73.8486 263.73 73.4325 263.912C73.0224 264.088 72.5595 264.176 72.0439 264.176C71.3993 264.176 70.8339 264.05 70.3476 263.798C69.8671 263.546 69.4921 263.209 69.2226 262.787C68.9589 262.359 68.8271 261.882 68.8271 261.354C68.8271 260.845 68.9267 260.396 69.1259 260.01C69.3251 259.617 69.6122 259.292 69.9872 259.034C70.3622 258.771 70.8134 258.571 71.3407 258.437C71.8681 258.302 72.457 258.234 73.1073 258.234H74.997ZM85.4205 254.49H86.897V263.798C86.897 264.636 86.7271 265.351 86.3873 265.942C86.0474 266.534 85.5728 266.982 84.9634 267.287C84.3599 267.598 83.6627 267.753 82.8716 267.753C82.5435 267.753 82.1568 267.7 81.7115 267.595C81.272 267.495 80.8384 267.322 80.4107 267.076C79.9888 266.836 79.6343 266.511 79.3472 266.101L80.1998 265.134C80.5982 265.614 81.0142 265.948 81.4478 266.136C81.8873 266.323 82.3209 266.417 82.7486 266.417C83.2642 266.417 83.7095 266.32 84.0845 266.127C84.4595 265.934 84.7496 265.646 84.9546 265.266C85.1656 264.891 85.2711 264.428 85.2711 263.877V256.582L85.4205 254.49ZM78.8726 259.351V259.166C78.8726 258.439 78.9576 257.78 79.1275 257.188C79.3033 256.591 79.5523 256.078 79.8746 255.65C80.2027 255.223 80.5982 254.895 81.0611 254.666C81.524 254.432 82.0455 254.314 82.6255 254.314C83.2232 254.314 83.7447 254.42 84.19 254.631C84.6412 254.836 85.022 255.138 85.3326 255.536C85.649 255.929 85.898 256.403 86.0796 256.96C86.2613 257.517 86.3873 258.146 86.4576 258.85V259.658C86.3931 260.355 86.2671 260.982 86.0796 261.539C85.898 262.096 85.649 262.57 85.3326 262.963C85.022 263.355 84.6412 263.657 84.19 263.868C83.7388 264.073 83.2115 264.176 82.608 264.176C82.0396 264.176 81.524 264.056 81.0611 263.815C80.6041 263.575 80.2115 263.238 79.8834 262.805C79.5552 262.371 79.3033 261.861 79.1275 261.275C78.9576 260.684 78.8726 260.042 78.8726 259.351ZM80.4986 259.166V259.351C80.4986 259.825 80.5455 260.271 80.6392 260.687C80.7388 261.103 80.8882 261.469 81.0875 261.785C81.2925 262.102 81.5533 262.351 81.8697 262.532C82.1861 262.708 82.564 262.796 83.0035 262.796C83.5425 262.796 83.9879 262.682 84.3394 262.453C84.691 262.225 84.9693 261.923 85.1744 261.548C85.3853 261.173 85.5494 260.766 85.6666 260.326V258.208C85.6021 257.886 85.5025 257.575 85.3677 257.276C85.2388 256.972 85.0689 256.702 84.858 256.468C84.6529 256.228 84.398 256.037 84.0933 255.896C83.7886 255.756 83.4312 255.686 83.0211 255.686C82.5757 255.686 82.192 255.779 81.8697 255.967C81.5533 256.148 81.2925 256.4 81.0875 256.723C80.8882 257.039 80.7388 257.408 80.6392 257.83C80.5455 258.246 80.4986 258.691 80.4986 259.166ZM91.3527 255.984V264H89.7268V254.49H91.3088L91.3527 255.984ZM94.3234 254.438L94.3146 255.949C94.1799 255.92 94.051 255.902 93.9279 255.896C93.8107 255.885 93.676 255.879 93.5236 255.879C93.1486 255.879 92.8176 255.938 92.5305 256.055C92.2434 256.172 92.0002 256.336 91.801 256.547C91.6018 256.758 91.4436 257.01 91.3264 257.303C91.215 257.59 91.1418 257.906 91.1066 258.252L90.6496 258.516C90.6496 257.941 90.7053 257.402 90.8166 256.898C90.9338 256.395 91.1125 255.949 91.3527 255.562C91.593 255.17 91.8977 254.865 92.2668 254.648C92.6418 254.426 93.0871 254.314 93.6027 254.314C93.7199 254.314 93.8547 254.329 94.007 254.358C94.1594 254.382 94.2648 254.408 94.3234 254.438ZM101.442 262.374V257.479C101.442 257.104 101.366 256.778 101.214 256.503C101.067 256.222 100.845 256.005 100.546 255.853C100.247 255.7 99.8778 255.624 99.4383 255.624C99.0282 255.624 98.6678 255.694 98.3573 255.835C98.0526 255.976 97.8123 256.16 97.6366 256.389C97.4666 256.617 97.3817 256.863 97.3817 257.127H95.7557C95.7557 256.787 95.8436 256.45 96.0194 256.116C96.1952 255.782 96.4471 255.48 96.7752 255.211C97.1092 254.936 97.5077 254.719 97.9705 254.561C98.4393 254.396 98.9608 254.314 99.535 254.314C100.226 254.314 100.836 254.432 101.363 254.666C101.896 254.9 102.312 255.255 102.611 255.729C102.916 256.198 103.068 256.787 103.068 257.496V261.926C103.068 262.242 103.095 262.579 103.147 262.937C103.206 263.294 103.291 263.602 103.402 263.859V264H101.706C101.624 263.812 101.559 263.563 101.513 263.253C101.466 262.937 101.442 262.644 101.442 262.374ZM101.723 258.234L101.741 259.377H100.097C99.6346 259.377 99.2215 259.415 98.8582 259.491C98.495 259.562 98.1903 259.67 97.9442 259.816C97.6981 259.963 97.5106 260.147 97.3817 260.37C97.2528 260.587 97.1883 260.842 97.1883 261.135C97.1883 261.434 97.2557 261.706 97.3905 261.952C97.5252 262.198 97.7274 262.395 97.9969 262.541C98.2723 262.682 98.6092 262.752 99.0077 262.752C99.5057 262.752 99.9452 262.646 100.326 262.436C100.707 262.225 101.009 261.967 101.231 261.662C101.46 261.357 101.583 261.062 101.6 260.774L102.295 261.557C102.254 261.803 102.142 262.075 101.961 262.374C101.779 262.673 101.536 262.96 101.231 263.235C100.932 263.505 100.575 263.73 100.159 263.912C99.7489 264.088 99.286 264.176 98.7704 264.176C98.1258 264.176 97.5604 264.05 97.0741 263.798C96.5936 263.546 96.2186 263.209 95.9491 262.787C95.6854 262.359 95.5536 261.882 95.5536 261.354C95.5536 260.845 95.6532 260.396 95.8524 260.01C96.0516 259.617 96.3387 259.292 96.7137 259.034C97.0887 258.771 97.5399 258.571 98.0672 258.437C98.5946 258.302 99.1834 258.234 99.8338 258.234H101.723ZM107.612 256.318V267.656H105.977V254.49H107.471L107.612 256.318ZM114.019 259.166V259.351C114.019 260.042 113.937 260.684 113.773 261.275C113.609 261.861 113.369 262.371 113.052 262.805C112.742 263.238 112.358 263.575 111.901 263.815C111.444 264.056 110.919 264.176 110.328 264.176C109.724 264.176 109.191 264.076 108.728 263.877C108.265 263.678 107.873 263.388 107.55 263.007C107.228 262.626 106.97 262.169 106.777 261.636C106.589 261.103 106.46 260.502 106.39 259.834V258.85C106.46 258.146 106.592 257.517 106.786 256.96C106.979 256.403 107.234 255.929 107.55 255.536C107.873 255.138 108.262 254.836 108.719 254.631C109.176 254.42 109.704 254.314 110.301 254.314C110.899 254.314 111.429 254.432 111.892 254.666C112.355 254.895 112.745 255.223 113.061 255.65C113.377 256.078 113.615 256.591 113.773 257.188C113.937 257.78 114.019 258.439 114.019 259.166ZM112.384 259.351V259.166C112.384 258.691 112.334 258.246 112.235 257.83C112.135 257.408 111.98 257.039 111.769 256.723C111.564 256.4 111.3 256.148 110.978 255.967C110.656 255.779 110.272 255.686 109.827 255.686C109.416 255.686 109.059 255.756 108.754 255.896C108.456 256.037 108.201 256.228 107.99 256.468C107.779 256.702 107.606 256.972 107.471 257.276C107.342 257.575 107.246 257.886 107.181 258.208V260.484C107.298 260.895 107.462 261.281 107.673 261.645C107.884 262.002 108.166 262.292 108.517 262.515C108.869 262.731 109.311 262.84 109.844 262.84C110.284 262.84 110.662 262.749 110.978 262.567C111.3 262.38 111.564 262.125 111.769 261.803C111.98 261.48 112.135 261.111 112.235 260.695C112.334 260.273 112.384 259.825 112.384 259.351ZM118.079 250.5V264H116.453V250.5H118.079ZM117.692 258.885L117.016 258.858C117.022 258.208 117.118 257.607 117.306 257.057C117.493 256.5 117.757 256.017 118.097 255.606C118.437 255.196 118.841 254.88 119.31 254.657C119.784 254.429 120.309 254.314 120.883 254.314C121.352 254.314 121.774 254.379 122.149 254.508C122.524 254.631 122.843 254.83 123.107 255.105C123.376 255.381 123.581 255.738 123.722 256.178C123.862 256.611 123.933 257.142 123.933 257.769V264H122.298V257.751C122.298 257.253 122.225 256.854 122.078 256.556C121.932 256.251 121.718 256.031 121.437 255.896C121.155 255.756 120.81 255.686 120.4 255.686C119.995 255.686 119.626 255.771 119.292 255.94C118.964 256.11 118.68 256.345 118.44 256.644C118.205 256.942 118.021 257.285 117.886 257.672C117.757 258.053 117.692 258.457 117.692 258.885Z" fill="#090909"/>
<rect y="324" width="600" height="84" rx="8" fill="#9A9A9A"/>
<path d="M302.452 372L304.939 359.203H306.205L303.709 372H302.452ZM306.029 372L308.525 359.203H309.782L307.286 372H306.029ZM310.854 364.081H301.714V362.859H310.854V364.081ZM310.195 368.396H301.046V367.184H310.195V368.396ZM314.132 370.638H314.299C315.237 370.638 315.999 370.506 316.585 370.242C317.171 369.979 317.622 369.624 317.938 369.179C318.255 368.733 318.471 368.232 318.589 367.676C318.706 367.113 318.764 366.536 318.764 365.944V363.984C318.764 363.404 318.697 362.889 318.562 362.438C318.433 361.986 318.252 361.608 318.017 361.304C317.789 360.999 317.528 360.768 317.235 360.609C316.942 360.451 316.631 360.372 316.303 360.372C315.928 360.372 315.591 360.448 315.293 360.601C315 360.747 314.751 360.955 314.546 361.225C314.346 361.494 314.194 361.811 314.089 362.174C313.983 362.537 313.93 362.933 313.93 363.36C313.93 363.741 313.977 364.11 314.071 364.468C314.165 364.825 314.308 365.147 314.502 365.435C314.695 365.722 314.935 365.95 315.222 366.12C315.515 366.284 315.858 366.366 316.251 366.366C316.614 366.366 316.954 366.296 317.27 366.155C317.592 366.009 317.877 365.812 318.123 365.566C318.375 365.314 318.574 365.03 318.72 364.714C318.873 364.397 318.961 364.066 318.984 363.721H319.757C319.757 364.207 319.661 364.688 319.467 365.162C319.28 365.631 319.016 366.059 318.676 366.445C318.337 366.832 317.938 367.143 317.481 367.377C317.024 367.605 316.526 367.72 315.987 367.72C315.354 367.72 314.806 367.597 314.343 367.351C313.881 367.104 313.5 366.776 313.201 366.366C312.908 365.956 312.688 365.499 312.542 364.995C312.401 364.485 312.331 363.97 312.331 363.448C312.331 362.839 312.416 362.268 312.586 361.734C312.756 361.201 313.007 360.732 313.341 360.328C313.675 359.918 314.089 359.599 314.581 359.37C315.079 359.142 315.653 359.027 316.303 359.027C317.036 359.027 317.66 359.174 318.175 359.467C318.691 359.76 319.11 360.152 319.432 360.645C319.76 361.137 320.001 361.69 320.153 362.306C320.305 362.921 320.381 363.554 320.381 364.204V364.793C320.381 365.455 320.338 366.129 320.25 366.814C320.168 367.494 320.006 368.145 319.766 368.766C319.532 369.387 319.189 369.943 318.738 370.436C318.287 370.922 317.698 371.309 316.971 371.596C316.251 371.877 315.36 372.018 314.299 372.018H314.132V370.638ZM328.159 360.337L323.923 372H322.192L327.07 359.203H328.186L328.159 360.337ZM331.71 372L327.465 360.337L327.439 359.203H328.555L333.45 372H331.71ZM331.491 367.263V368.651H324.301V367.263H331.491ZM336.72 370.638H336.887C337.824 370.638 338.586 370.506 339.172 370.242C339.758 369.979 340.209 369.624 340.525 369.179C340.842 368.733 341.059 368.232 341.176 367.676C341.293 367.113 341.351 366.536 341.351 365.944V363.984C341.351 363.404 341.284 362.889 341.149 362.438C341.02 361.986 340.839 361.608 340.604 361.304C340.376 360.999 340.115 360.768 339.822 360.609C339.529 360.451 339.219 360.372 338.891 360.372C338.516 360.372 338.179 360.448 337.88 360.601C337.587 360.747 337.338 360.955 337.133 361.225C336.934 361.494 336.781 361.811 336.676 362.174C336.57 362.537 336.518 362.933 336.518 363.36C336.518 363.741 336.564 364.11 336.658 364.468C336.752 364.825 336.895 365.147 337.089 365.435C337.282 365.722 337.522 365.95 337.809 366.12C338.102 366.284 338.445 366.366 338.838 366.366C339.201 366.366 339.541 366.296 339.857 366.155C340.18 366.009 340.464 365.812 340.71 365.566C340.962 365.314 341.161 365.03 341.308 364.714C341.46 364.397 341.548 364.066 341.571 363.721H342.345C342.345 364.207 342.248 364.688 342.055 365.162C341.867 365.631 341.603 366.059 341.264 366.445C340.924 366.832 340.525 367.143 340.068 367.377C339.611 367.605 339.113 367.72 338.574 367.72C337.941 367.72 337.393 367.597 336.931 367.351C336.468 367.104 336.087 366.776 335.788 366.366C335.495 365.956 335.275 365.499 335.129 364.995C334.988 364.485 334.918 363.97 334.918 363.448C334.918 362.839 335.003 362.268 335.173 361.734C335.343 361.201 335.595 360.732 335.929 360.328C336.263 359.918 336.676 359.599 337.168 359.37C337.666 359.142 338.24 359.027 338.891 359.027C339.623 359.027 340.247 359.174 340.763 359.467C341.278 359.76 341.697 360.152 342.019 360.645C342.348 361.137 342.588 361.69 342.74 362.306C342.893 362.921 342.969 363.554 342.969 364.204V364.793C342.969 365.455 342.925 366.129 342.837 366.814C342.755 367.494 342.594 368.145 342.353 368.766C342.119 369.387 341.776 369.943 341.325 370.436C340.874 370.922 340.285 371.309 339.559 371.596C338.838 371.877 337.947 372.018 336.887 372.018H336.72V370.638ZM350.747 360.337L346.51 372H344.779L349.657 359.203H350.773L350.747 360.337ZM354.297 372L350.052 360.337L350.026 359.203H351.142L356.038 372H354.297ZM354.078 367.263V368.651H346.888V367.263H354.078ZM359.307 370.638H359.474C360.411 370.638 361.173 370.506 361.759 370.242C362.345 369.979 362.796 369.624 363.112 369.179C363.429 368.733 363.646 368.232 363.763 367.676C363.88 367.113 363.939 366.536 363.939 365.944V363.984C363.939 363.404 363.871 362.889 363.737 362.438C363.608 361.986 363.426 361.608 363.192 361.304C362.963 360.999 362.702 360.768 362.409 360.609C362.116 360.451 361.806 360.372 361.478 360.372C361.103 360.372 360.766 360.448 360.467 360.601C360.174 360.747 359.925 360.955 359.72 361.225C359.521 361.494 359.368 361.811 359.263 362.174C359.157 362.537 359.105 362.933 359.105 363.36C359.105 363.741 359.152 364.11 359.245 364.468C359.339 364.825 359.483 365.147 359.676 365.435C359.869 365.722 360.11 365.95 360.397 366.12C360.69 366.284 361.032 366.366 361.425 366.366C361.788 366.366 362.128 366.296 362.445 366.155C362.767 366.009 363.051 365.812 363.297 365.566C363.549 365.314 363.748 365.03 363.895 364.714C364.047 364.397 364.135 364.066 364.158 363.721H364.932C364.932 364.207 364.835 364.688 364.642 365.162C364.454 365.631 364.191 366.059 363.851 366.445C363.511 366.832 363.112 367.143 362.655 367.377C362.198 367.605 361.7 367.72 361.161 367.72C360.529 367.72 359.981 367.597 359.518 367.351C359.055 367.104 358.674 366.776 358.375 366.366C358.082 365.956 357.862 365.499 357.716 364.995C357.575 364.485 357.505 363.97 357.505 363.448C357.505 362.839 357.59 362.268 357.76 361.734C357.93 361.201 358.182 360.732 358.516 360.328C358.85 359.918 359.263 359.599 359.755 359.37C360.253 359.142 360.827 359.027 361.478 359.027C362.21 359.027 362.834 359.174 363.35 359.467C363.865 359.76 364.284 360.152 364.607 360.645C364.935 361.137 365.175 361.69 365.327 362.306C365.48 362.921 365.556 363.554 365.556 364.204V364.793C365.556 365.455 365.512 366.129 365.424 366.814C365.342 367.494 365.181 368.145 364.941 368.766C364.706 369.387 364.363 369.943 363.912 370.436C363.461 370.922 362.872 371.309 362.146 371.596C361.425 371.877 360.534 372.018 359.474 372.018H359.307V370.638ZM373.334 360.337L369.098 372H367.366L372.244 359.203H373.36L373.334 360.337ZM376.885 372L372.639 360.337L372.613 359.203H373.729L378.625 372H376.885ZM376.665 367.263V368.651H369.475V367.263H376.665Z" fill="#EDEDED"/>
<path d="M49.2109 367.931H50.8984C50.8105 368.739 50.5791 369.463 50.2041 370.102C49.8291 370.74 49.2988 371.247 48.6133 371.622C47.9277 371.991 47.0723 372.176 46.0469 372.176C45.2969 372.176 44.6143 372.035 43.999 371.754C43.3896 371.473 42.8652 371.074 42.4258 370.559C41.9863 370.037 41.6465 369.413 41.4062 368.687C41.1719 367.954 41.0547 367.14 41.0547 366.243V364.969C41.0547 364.072 41.1719 363.261 41.4062 362.534C41.6465 361.802 41.9893 361.175 42.4346 360.653C42.8857 360.132 43.4277 359.73 44.0605 359.449C44.6934 359.168 45.4053 359.027 46.1963 359.027C47.1631 359.027 47.9805 359.209 48.6484 359.572C49.3164 359.936 49.835 360.439 50.2041 361.084C50.5791 361.723 50.8105 362.464 50.8984 363.308H49.2109C49.1289 362.71 48.9766 362.197 48.7539 361.77C48.5312 361.336 48.2148 361.002 47.8047 360.768C47.3945 360.533 46.8584 360.416 46.1963 360.416C45.6279 360.416 45.127 360.524 44.6934 360.741C44.2656 360.958 43.9053 361.266 43.6123 361.664C43.3252 362.062 43.1084 362.54 42.9619 363.097C42.8154 363.653 42.7422 364.271 42.7422 364.951V366.243C42.7422 366.87 42.8066 367.459 42.9355 368.01C43.0703 368.561 43.2725 369.044 43.542 369.46C43.8115 369.876 44.1543 370.204 44.5703 370.444C44.9863 370.679 45.4785 370.796 46.0469 370.796C46.7676 370.796 47.3418 370.682 47.7695 370.453C48.1973 370.225 48.5195 369.896 48.7363 369.469C48.959 369.041 49.1172 368.528 49.2109 367.931ZM58.9313 370.374V365.479C58.9313 365.104 58.8551 364.778 58.7028 364.503C58.5563 364.222 58.3336 364.005 58.0348 363.853C57.736 363.7 57.3668 363.624 56.9274 363.624C56.5172 363.624 56.1569 363.694 55.8463 363.835C55.5416 363.976 55.3014 364.16 55.1256 364.389C54.9557 364.617 54.8707 364.863 54.8707 365.127H53.2448C53.2448 364.787 53.3327 364.45 53.5084 364.116C53.6842 363.782 53.9362 363.48 54.2643 363.211C54.5983 362.936 54.9967 362.719 55.4596 362.561C55.9284 362.396 56.4498 362.314 57.0241 362.314C57.7155 362.314 58.3248 362.432 58.8522 362.666C59.3854 362.9 59.8014 363.255 60.1002 363.729C60.4049 364.198 60.5573 364.787 60.5573 365.496V369.926C60.5573 370.242 60.5836 370.579 60.6364 370.937C60.695 371.294 60.7799 371.602 60.8912 371.859V372H59.195C59.1129 371.812 59.0485 371.563 59.0016 371.253C58.9547 370.937 58.9313 370.644 58.9313 370.374ZM59.2125 366.234L59.2301 367.377H57.5866C57.1237 367.377 56.7106 367.415 56.3473 367.491C55.984 367.562 55.6793 367.67 55.4332 367.816C55.1871 367.963 54.9996 368.147 54.8707 368.37C54.7418 368.587 54.6774 368.842 54.6774 369.135C54.6774 369.434 54.7448 369.706 54.8795 369.952C55.0143 370.198 55.2164 370.395 55.486 370.541C55.7614 370.682 56.0983 370.752 56.4967 370.752C56.9948 370.752 57.4342 370.646 57.8151 370.436C58.1959 370.225 58.4977 369.967 58.7204 369.662C58.9489 369.357 59.0719 369.062 59.0895 368.774L59.7838 369.557C59.7428 369.803 59.6315 370.075 59.4498 370.374C59.2682 370.673 59.025 370.96 58.7204 371.235C58.4215 371.505 58.0641 371.73 57.6481 371.912C57.2379 372.088 56.775 372.176 56.2594 372.176C55.6149 372.176 55.0495 372.05 54.5631 371.798C54.0827 371.546 53.7077 371.209 53.4381 370.787C53.1745 370.359 53.0426 369.882 53.0426 369.354C53.0426 368.845 53.1422 368.396 53.3414 368.01C53.5407 367.617 53.8278 367.292 54.2028 367.034C54.5778 366.771 55.0289 366.571 55.5563 366.437C56.0836 366.302 56.6725 366.234 57.3229 366.234H59.2125ZM65.1009 364.318V375.656H63.4661V362.49H64.9602L65.1009 364.318ZM71.5081 367.166V367.351C71.5081 368.042 71.4261 368.684 71.262 369.275C71.0979 369.861 70.8577 370.371 70.5413 370.805C70.2307 371.238 69.847 371.575 69.3899 371.815C68.9329 372.056 68.4085 372.176 67.8167 372.176C67.2132 372.176 66.68 372.076 66.2171 371.877C65.7542 371.678 65.3616 371.388 65.0393 371.007C64.7171 370.626 64.4593 370.169 64.2659 369.636C64.0784 369.103 63.9495 368.502 63.8792 367.834V366.85C63.9495 366.146 64.0813 365.517 64.2747 364.96C64.468 364.403 64.7229 363.929 65.0393 363.536C65.3616 363.138 65.7512 362.836 66.2083 362.631C66.6653 362.42 67.1927 362.314 67.7903 362.314C68.388 362.314 68.9182 362.432 69.3811 362.666C69.844 362.895 70.2337 363.223 70.5501 363.65C70.8665 364.078 71.1038 364.591 71.262 365.188C71.4261 365.78 71.5081 366.439 71.5081 367.166ZM69.8733 367.351V367.166C69.8733 366.691 69.8235 366.246 69.7239 365.83C69.6243 365.408 69.469 365.039 69.2581 364.723C69.053 364.4 68.7893 364.148 68.4671 363.967C68.1448 363.779 67.761 363.686 67.3157 363.686C66.9055 363.686 66.5481 363.756 66.2434 363.896C65.9446 364.037 65.6897 364.228 65.4788 364.468C65.2679 364.702 65.095 364.972 64.9602 365.276C64.8313 365.575 64.7346 365.886 64.6702 366.208V368.484C64.7874 368.895 64.9514 369.281 65.1624 369.645C65.3733 370.002 65.6546 370.292 66.0061 370.515C66.3577 370.731 66.8001 370.84 67.3333 370.84C67.7727 370.84 68.1507 370.749 68.4671 370.567C68.7893 370.38 69.053 370.125 69.2581 369.803C69.469 369.48 69.6243 369.111 69.7239 368.695C69.8235 368.273 69.8733 367.825 69.8733 367.351ZM77.9238 362.49V363.738H72.7822V362.49H77.9238ZM74.5224 360.179H76.1484V369.645C76.1484 369.967 76.1982 370.21 76.2978 370.374C76.3974 370.538 76.5263 370.646 76.6845 370.699C76.8427 370.752 77.0126 370.778 77.1943 370.778C77.329 370.778 77.4697 370.767 77.6161 370.743C77.7685 370.714 77.8827 370.69 77.9589 370.673L77.9677 372C77.8388 372.041 77.6689 372.079 77.4579 372.114C77.2529 372.155 77.0038 372.176 76.7109 372.176C76.3124 372.176 75.9462 372.097 75.6122 371.938C75.2782 371.78 75.0116 371.517 74.8124 371.147C74.6191 370.772 74.5224 370.269 74.5224 369.636V360.179ZM81.9576 362.49V372H80.3228V362.49H81.9576ZM80.1998 359.968C80.1998 359.704 80.2789 359.481 80.4371 359.3C80.6011 359.118 80.8414 359.027 81.1578 359.027C81.4683 359.027 81.7056 359.118 81.8697 359.3C82.0396 359.481 82.1246 359.704 82.1246 359.968C82.1246 360.22 82.0396 360.437 81.8697 360.618C81.7056 360.794 81.4683 360.882 81.1578 360.882C80.8414 360.882 80.6011 360.794 80.4371 360.618C80.2789 360.437 80.1998 360.22 80.1998 359.968ZM84.4973 367.351V367.148C84.4973 366.463 84.5969 365.827 84.7961 365.241C84.9953 364.649 85.2824 364.137 85.6574 363.703C86.0324 363.264 86.4865 362.924 87.0197 362.684C87.5529 362.438 88.1506 362.314 88.8127 362.314C89.4807 362.314 90.0812 362.438 90.6145 362.684C91.1535 362.924 91.6105 363.264 91.9855 363.703C92.3664 364.137 92.6564 364.649 92.8557 365.241C93.0549 365.827 93.1545 366.463 93.1545 367.148V367.351C93.1545 368.036 93.0549 368.672 92.8557 369.258C92.6564 369.844 92.3664 370.356 91.9855 370.796C91.6105 371.229 91.1564 371.569 90.6232 371.815C90.0959 372.056 89.4982 372.176 88.8303 372.176C88.1623 372.176 87.5617 372.056 87.0285 371.815C86.4953 371.569 86.0383 371.229 85.6574 370.796C85.2824 370.356 84.9953 369.844 84.7961 369.258C84.5969 368.672 84.4973 368.036 84.4973 367.351ZM86.1232 367.148V367.351C86.1232 367.825 86.1789 368.273 86.2902 368.695C86.4016 369.111 86.5686 369.48 86.7912 369.803C87.0197 370.125 87.3039 370.38 87.6437 370.567C87.9836 370.749 88.3791 370.84 88.8303 370.84C89.2756 370.84 89.6652 370.749 89.9992 370.567C90.3391 370.38 90.6203 370.125 90.843 369.803C91.0656 369.48 91.2326 369.111 91.3439 368.695C91.4611 368.273 91.5197 367.825 91.5197 367.351V367.148C91.5197 366.68 91.4611 366.237 91.3439 365.821C91.2326 365.399 91.0627 365.027 90.8342 364.705C90.6115 364.377 90.3303 364.119 89.9904 363.932C89.6564 363.744 89.2639 363.65 88.8127 363.65C88.3674 363.65 87.9748 363.744 87.635 363.932C87.301 364.119 87.0197 364.377 86.7912 364.705C86.5686 365.027 86.4016 365.399 86.2902 365.821C86.1789 366.237 86.1232 366.68 86.1232 367.148ZM97.1795 364.521V372H95.5536V362.49H97.0916L97.1795 364.521ZM96.7928 366.885L96.1161 366.858C96.1219 366.208 96.2186 365.607 96.4061 365.057C96.5936 364.5 96.8573 364.017 97.1971 363.606C97.537 363.196 97.9412 362.88 98.41 362.657C98.8846 362.429 99.409 362.314 99.9832 362.314C100.452 362.314 100.874 362.379 101.249 362.508C101.624 362.631 101.943 362.83 102.207 363.105C102.476 363.381 102.681 363.738 102.822 364.178C102.963 364.611 103.033 365.142 103.033 365.769V372H101.398V365.751C101.398 365.253 101.325 364.854 101.179 364.556C101.032 364.251 100.818 364.031 100.537 363.896C100.256 363.756 99.91 363.686 99.4998 363.686C99.0955 363.686 98.7264 363.771 98.3924 363.94C98.0643 364.11 97.7801 364.345 97.5399 364.644C97.3055 364.942 97.1209 365.285 96.9862 365.672C96.8573 366.053 96.7928 366.457 96.7928 366.885Z" fill="#EDEDED"/>
</svg>
