<svg fill="none" height="24" viewBox="0 0 24 24" width="24" xmlns="http://www.w3.org/2000/svg"><path d="m.800049 23.2h-.5v.5h.5zm2.700001-4.8v.5h1v-.5zm20.20005-14.4v-.5h-1v.5zm-23.400051-4v23.2h1.000001v-23.2zm.5 23.7h23.200051v-1h-23.200051zm3.700001-5.3c0-2.3544.39378-4.6799 1.1569-6.3969.77067-1.734 1.84124-2.7031 3.1431-2.7031v-1c-1.89814 0-3.22757 1.43092-4.05691 3.2969-.83687 1.883-1.24309 4.3575-1.24309 6.8031zm4.3-9.1c.62076 0 1.20445.3076 1.81085.8674.61.563 1.182 1.3231 1.7891 2.1326.5929.7905 1.2209 1.6304 1.9109 2.2674.6936.6402 1.5099 1.1326 2.4892 1.1326v-1c-.6208 0-1.2045-.3076-1.8109-.8674-.61-.563-1.182-1.3231-1.7892-2.1326-.5928-.7905-1.2208-1.6304-1.9108-2.2674-.6936-.64021-1.50991-1.1326-2.48915-1.1326zm8.00005 6.4c1.8231 0 3.5625-1.1377 4.8227-3.133 1.2625-1.999 2.0773-4.8979 2.0773-8.567h-1c0 3.5309-.7853 6.232-1.9228 8.033-1.1398 1.8047-2.6004 2.667-3.9772 2.667z" fill="#686868"/></svg>